<?xml version="1.0" encoding="UTF-8"?>
<svg id="b" data-name="レイヤー 2" xmlns="http://www.w3.org/2000/svg" width="23.04" height="29.01" xmlns:xlink="http://www.w3.org/1999/xlink" viewBox="0 0 23.04 29.01">
  <defs>
    <style>
      .g {
        fill: #bcd4a5;
      }

      .h {
        fill: #deead3;
      }

      .i {
        fill: #b9d2a1;
      }

      .j {
        fill: #bad3a2;
      }

      .k {
        fill: #a9c88b;
      }

      .l {
        fill: #afcc93;
      }

      .m {
        fill: #bed6a9;
      }

      .n {
        fill: #b6d19e;
      }

      .o {
        fill: #b0cd96;
      }

      .p {
        fill: #cbdeba;
      }

      .q {
        fill: #cfe1c0;
      }

      .r {
        fill: url(#f);
      }

      .s {
        fill: #b2ce97;
      }

      .t {
        fill: #e9f1e2;
      }

      .u {
        fill: #bbd4a4;
      }

      .v {
        fill: #bdd5a6;
      }

      .w {
        fill: #b3cf99;
      }

      .x {
        fill: #b8d2a0;
      }

      .y {
        fill: #c3d9ae;
      }

      .z, .aa {
        fill: #f4f8f1;
      }

      .ab {
        fill: url(#e);
      }

      .ac {
        fill: #c3d9af;
      }

      .ad {
        fill: url(#d);
      }

      .ae {
        fill: #abca8f;
      }

      .af {
        fill: #edf3e6;
      }

      .ag {
        fill: #c4dab1;
      }

      .ah {
        fill: #b5d09d;
      }

      .ai {
        fill: #e6efdd;
      }

      .aj {
        fill: #acca90;
      }

      .ak {
        fill: #b2ce98;
      }

      .al {
        fill: #f4f8f0;
      }

      .am {
        fill: #b5d09c;
      }

      .an {
        fill: #adcb91;
      }

      .ao {
        fill: #c0d7aa;
      }

      .ap {
        fill: #bfd6a9;
      }

      .aq {
        fill: #b7d19f;
      }

      .ar {
        fill: #c5dab2;
      }

      .aa {
        opacity: .33;
      }
    </style>
    <linearGradient id="d" data-name="ﾁ裼 胙琅韃 43" x1="1252.51" y1="804.43" x2="1260.58" y2="803.62" gradientTransform="translate(1019.45 1119.85) rotate(-165.36)" gradientUnits="userSpaceOnUse">
      <stop offset=".16" stop-color="#bdd5a6"/>
      <stop offset=".57" stop-color="#b2ce98"/>
      <stop offset="1" stop-color="#acca90"/>
    </linearGradient>
    <linearGradient id="e" data-name="ﾁ裼 胙琅韃 42" x1="1258.87" y1="808.1" x2="1254.13" y2="811.21" gradientTransform="translate(1019.45 1119.85) rotate(-165.36)" gradientUnits="userSpaceOnUse">
      <stop offset=".08" stop-color="#c8dcb5"/>
      <stop offset=".58" stop-color="#bad3a2"/>
      <stop offset=".97" stop-color="#b4cf9a"/>
    </linearGradient>
    <linearGradient id="f" data-name="ﾁ裼 胙琅韃 41" x1="1250.18" y1="805.25" x2="1253.21" y2="813.05" gradientTransform="translate(1019.45 1119.85) rotate(-165.36)" gradientUnits="userSpaceOnUse">
      <stop offset="0" stop-color="#dbe8cf"/>
      <stop offset=".21" stop-color="#d6e5c9"/>
      <stop offset=".48" stop-color="#cbdeba"/>
      <stop offset=".6" stop-color="#c4dab1"/>
    </linearGradient>
  </defs>
  <g id="c" data-name="design">
    <g>
      <g>
        <g>
          <path class="aq" d="m.07,18.48c-.18-1.42-.03-2.97.7-4.55.69-1.5,1.44-2.84,2.22-4.04l.15.1-1.49,5.21L.07,18.48Z"/>
          <path class="s" d="m.07,18.48h0s2.26-3.18,2.26-3.18l.15.11.52,2.02s-.13.05-.33.12l-.19.07c-.07.02-.14.05-.22.08l-1.98.71s-.09.03-.12.04l-.05.02s-.02,0-.02,0h0Z"/>
          <polygon class="aj" points=".07 18.48 1.66 15.2 3.14 9.99 3.39 12.32 5.39 11.72 3.38 13.82 2.33 15.3 .07 18.48"/>
          <path class="y" d="m.07,18.48h0s.01,0,.02,0c0,0,0,0,0,0,.35-.08,2.97-.73,2.94-.83l.82,3.2.03.13-1.55,2.98c-.91-1.27-2.01-3.21-2.29-5.47Z"/>
          <path class="s" d="m.1,18.47l.05-.02s-.03.01-.04.02c0,0,0,0,0,0Z"/>
          <path class="s" d="m.11,18.47s.03-.01.04-.02c.03-.01.07-.03.12-.04.41-.15,1.33-.48,1.98-.71.08-.03.15-.05.22-.08.07-.02.13-.05.19-.07.2-.07.33-.12.33-.12l.02.07.03.13h0c.03.11-2.6.76-2.94.84Z"/>
          <path class="s" d="m.27,18.41l1.98-.71c-.66.24-1.57.57-1.98.71Z"/>
          <path class="am" d="m3.14,9.99l-.15-.1c.52-.8,1.07-1.54,1.62-2.21l2.18,2.58-1.41,1.47-1.99.59-.25-2.33Z"/>
          <polygon class="w" points="2.33 15.3 3.38 13.82 5.93 17.07 5.11 16.68 2.48 15.41 2.33 15.3"/>
          <path class="l" d="m3,17.43l-.52-2.02,2.63,1.26h-.02s-.02.02-.03.02l-1.89.68-.13.05s-.05.02-.05.02Z"/>
          <path class="l" d="m6.54,7.32l-1.93.36c1.06-1.3,2.16-2.38,3.25-3.28l.09,4.94-.7,1.04-.46-.12-.25-2.94Z"/>
          <polygon class="i" points="4.61 7.67 6.54 7.32 6.79 10.26 4.61 7.67"/>
          <polygon class="s" points="3.38 13.82 5.39 11.72 5.96 11.93 3.38 13.82"/>
          <polygon class="af" points="3.38 13.82 5.96 11.93 6.42 12.1 5.49 13.15 8.23 11.78 8.06 11.91 7.08 12.66 6.97 13.1 3.38 13.82"/>
          <polygon class="z" points="3.38 13.82 6.97 13.1 12.09 15.95 5.93 17.07 3.38 13.82"/>
          <path class="s" d="m2.47,17.62l.19-.07c-.06.02-.12.04-.19.07Z"/>
          <path class="l" d="m3.02,17.51l-.02-.07s.02,0,.05-.02c.03-.01.07-.03.13-.05.43-.15,1.55-.54,1.86-.66-.38.16-1.95.81-1.98.92l-.03-.13Z"/>
          <path class="l" d="m3.04,17.42l.13-.05c-.05.02-.1.03-.13.05Z"/>
          <path class="o" d="m3.05,17.64h0c.03-.12,1.6-.77,1.98-.93.01,0,.03-.01.04-.01,0,0,.02,0,.03-.01h.02s.82.38.82.38l-2.03,3.9-.03-.13-.82-3.2Z"/>
          <path class="l" d="m3.17,17.37l1.89-.68s-.02,0-.04.01c-.31.12-1.42.51-1.86.66Z"/>
          <polygon class="ag" points="5.39 11.72 6.79 10.26 7.25 10.38 6.42 12.1 6.13 11.81 5.96 11.93 5.39 11.72"/>
          <polygon class="g" points="2.36 23.95 3.9 20.97 4.4 22.92 2.36 23.95"/>
          <path class="x" d="m2.36,23.95l2.05-1.03,1.23,4.23c-.84-.56-1.6-1.21-2.16-1.82-.22-.24-.64-.72-1.12-1.38Z"/>
          <polygon class="m" points="5.49 13.15 6.42 12.1 7.25 10.38 9.09 10.93 9.1 12.01 6.97 13.1 7.08 12.66 8.06 11.91 8.23 11.78 5.49 13.15"/>
          <polygon class="ae" points="7.95 9.33 7.86 4.39 10.16 5.74 7.95 9.33"/>
          <path class="o" d="m10.16,5.74l-2.3-1.35c.4-.33.8-.64,1.2-.92l1.1,2.26Z"/>
          <polygon class="al" points="5.96 11.93 6.13 11.81 6.42 12.1 5.96 11.93"/>
          <polygon class="w" points="4.4 22.92 3.9 20.97 5.93 17.07 5.1 22.1 4.4 22.92"/>
          <polygon class="ak" points="7.25 10.38 7.95 9.33 9.09 10.93 7.25 10.38"/>
          <polygon class="q" points="10.16 5.74 9.06 3.48 17.25 .06 14.52 5.31 10.16 5.74"/>
          <path class="am" d="m17.25.06l-8.19,3.42C12.64.92,15.94.24,17.25.06Z"/>
          <polygon class="ad" points="5.63 27.15 4.4 22.92 5.1 22.1 10.03 21.09 12.25 24.97 11.11 25.79 9.69 26.82 7.72 28.24 5.63 27.15"/>
          <polygon class="ab" points="5.1 22.1 5.93 17.07 12.09 15.95 10.03 21.09 5.1 22.1"/>
          <polygon class="aj" points="7.95 9.33 10.16 5.74 14.52 5.31 12.66 7.34 9.09 10.93 7.95 9.33"/>
          <polygon class="af" points="6.97 13.1 9.1 12.01 13.29 13.82 12.09 15.95 6.97 13.1"/>
          <polygon class="g" points="9.1 12.01 9.09 10.93 12.66 7.34 12.91 9.93 9.1 12.01"/>
          <polygon class="ar" points="9.1 12.01 12.91 9.93 13.22 13.09 13.29 13.82 9.1 12.01"/>
          <path class="n" d="m5.63,27.15l2.09,1.09c-.7-.25-1.42-.64-2.09-1.09Z"/>
          <path class="w" d="m12.91,9.93l-.25-2.59,1.86-2.03,1.59,1.85,1.06-1.02.62,2.87-.45.41-1.36,1.25-.08-.65s-2.55,2.55-2.68,3.02l-.27-3.14-.03.02Z"/>
          <path class="ah" d="m7.72,28.24l1.97-1.42,1.51,2.14c-1.21-.1-2.52-.37-3.48-.72Z"/>
          <path class="ag" d="m13.22,13.09l-.31-3.15.03-.02.27,3.14h0s0,0,0,.01c0,0,0,.02,0,.03Z"/>
          <path class="aj" d="m14.52,5.31L17.25.06c.38-.05.59-.06.59-.06,0,0,.28.3.7.88l-1.35,1.49-2.67,2.95Z"/>
          <polygon class="ag" points="14.52 5.31 17.19 2.36 17.17 6.14 16.11 7.16 14.52 5.31"/>
          <path class="s" d="m13.22,13.05h0c.12-.47,2.68-3.02,2.68-3.02l.08.65h0s0,0,0,0l.56,4.44h0s.14,1.12.14,1.12l-3.46-3.15v-.03s0,0,0,0Z"/>
          <path class="n" d="m13.22,13.09s0-.02,0-.03v.03s0,0,0,0Z"/>
          <polygon class="n" points="13.29 13.82 13.22 13.09 13.23 13.09 13.29 13.82"/>
          <polygon class="v" points="9.69 26.82 11.11 25.79 12.84 27.65 11.9 27.4 13.22 28.96 11.21 28.96 11.2 28.96 9.69 26.82"/>
          <polygon class="ak" points="13.1 16.9 13.78 15.78 16.74 16.82 15.33 19.2 13.1 16.9"/>
          <polygon class="u" points="17.17 6.14 17.19 2.36 18.54 .88 18.4 2.39 17.79 9.02 17.17 6.14"/>
          <polygon class="ap" points="15.98 10.68 15.98 10.68 17.34 9.43 17.82 11.91 17.61 12.15 17.27 14.5 15.98 10.69 15.98 10.68"/>
          <path class="l" d="m18.4,2.39l.14-1.51c.93,1.25,2.57,3.78,3.59,7.25l-2.14,1.13-1.6-6.86Z"/>
          <polygon class="j" points="15.98 10.69 17.27 14.5 17.22 14.85 16.55 15.13 16.55 15.13 15.98 10.69"/>
          <path class="n" d="m11.21,28.96h2.01c-.56.07-1.26.06-2.01,0Z"/>
          <polygon class="aj" points="17.79 9.02 18.4 2.39 20 9.25 18.7 7.97 18.06 8.75 18.67 9.3 18.09 9.47 17.79 9.02"/>
          <polygon class="ac" points="17.82 11.91 17.34 9.43 17.79 9.02 18.09 9.47 18.67 9.3 18.06 8.75 18.7 7.97 20 9.25 18.54 10.02 18.62 11.03 17.82 11.91"/>
          <polygon class="ak" points="15.33 19.2 16.74 16.82 16.77 16.83 15.33 19.2 15.33 19.2"/>
          <polygon class="p" points="16.69 16.25 16.55 15.13 17.22 14.85 17.53 15.5 16.95 16.48 16.69 16.25"/>
          <polygon class="an" points="17.27 14.5 17.61 12.15 17.82 11.91 18.62 11.03 18.79 13.39 17.58 15.42 17.27 14.5"/>
          <polygon class="aj" points="16.76 16.79 16.69 16.25 16.95 16.48 16.76 16.79"/>
          <polygon class="an" points="17.22 14.85 17.27 14.5 17.58 15.42 17.58 15.42 17.53 15.5 17.22 14.85"/>
          <polygon class="ak" points="16.74 16.82 16.76 16.79 16.77 16.83 16.74 16.82"/>
          <polygon class="aj" points="16.77 16.83 16.76 16.79 16.95 16.48 16.96 16.49 16.77 16.83"/>
          <polygon class="ak" points="16.77 16.83 16.96 16.49 17.48 16.96 16.77 16.83"/>
          <polygon class="h" points="18.62 11.03 18.54 10.02 20 9.25 22.13 8.12 21.73 15.82 18.79 13.39 18.62 11.03"/>
          <polygon class="aj" points="16.95 16.48 17.53 15.5 17.54 15.52 16.96 16.49 16.95 16.48"/>
          <polygon class="ak" points="16.96 16.49 17.54 15.52 17.8 16.08 17.48 16.96 16.96 16.49"/>
          <polygon class="an" points="17.54 15.52 17.53 15.5 17.58 15.42 17.59 15.44 17.54 15.52"/>
          <polygon class="an" points="17.8 16.08 17.54 15.52 17.59 15.44 17.8 16.08"/>
          <polygon class="aj" points="17.58 15.42 17.58 15.42 18.79 13.39 17.59 15.44 17.58 15.42"/>
          <polygon class="ak" points="17.8 16.08 17.59 15.44 18.79 13.39 17.8 16.08"/>
          <path class="i" d="m21.73,15.82l.4-7.7c.73,2.46,1.14,5.39.78,8.67l-1.17-.97Z"/>
          <polygon class="ao" points="21.63 17.94 21.73 15.82 22.91 16.79 22.91 16.79 22.91 16.79 21.63 17.94"/>
        </g>
        <g>
          <polygon class="r" points="12.25 24.97 10.03 21.09 12.09 15.95 14.97 19.79 15.98 21.13 12.99 25.16 12.25 24.97"/>
          <polygon class="k" points="14.97 19.79 12.09 15.95 13.29 13.82 13.23 13.09 16.69 16.25 16.76 16.79 16.74 16.82 13.78 15.78 13.1 16.9 15.33 19.2 14.97 19.79"/>
          <path class="ah" d="m11.11,25.79l1.13-.82.74.19.23.2-.31.36.54.14,1.88-2.24,2.23-.57.41,4.16c-1.98,1.41-3.99,1.64-4.75,1.75l-1.32-1.56.94.25-1.73-1.86Z"/>
          <polygon class="n" points="14.97 19.79 15.33 19.2 15.33 19.2 14.97 19.79"/>
          <polygon class="an" points="14.97 19.79 15.33 19.2 16.76 16.83 16.77 16.83 18.53 20.72 15.98 21.13 14.97 19.79"/>
          <polygon class="p" points="13.45 25.86 12.91 25.72 13.22 25.36 15.03 23.25 15.33 23.62 13.45 25.86"/>
          <polygon class="l" points="12.99 25.16 15.98 21.13 16.81 22.23 15.33 23.62 15.03 23.25 13.22 25.36 12.99 25.16"/>
          <polygon class="j" points="17.48 16.96 18.53 20.72 16.77 16.83 17.48 16.96"/>
          <polygon class="h" points="15.33 23.62 16.81 22.23 18.53 20.72 18.59 22.14 17.56 23.05 15.33 23.62"/>
          <polygon class="m" points="15.98 21.13 18.53 20.72 16.81 22.23 15.98 21.13"/>
          <polygon class="ai" points="18.53 20.72 17.48 16.96 17.8 16.08 18.79 13.39 21.73 15.82 21.63 17.94 18.53 20.72"/>
          <polygon class="t" points="18.59 22.14 18.53 20.72 21.63 17.94 21.37 22.86 21.37 22.87 21.37 22.87 18.59 22.14"/>
          <path class="v" d="m21.37,22.87c-.9,2.09-2.14,3.45-3.4,4.34l-.41-4.16,1.03-.91,2.78.73Z"/>
          <path class="q" d="m21.37,22.86l.25-4.92,1.28-1.15c-.18,1.65-.56,3.38-1.19,5.19-.11.31-.22.6-.34.88Z"/>
        </g>
      </g>
      <polygon class="aa" points="9.17 24.65 18.53 20.72 18.79 13.39 15.68 6.1 9.91 9.89 5.08 15.99 9.17 24.65"/>
    </g>
  </g>
</svg>