<?xml version="1.0" encoding="UTF-8"?>
<svg id="b" data-name="レイヤー 2" xmlns="http://www.w3.org/2000/svg" width="9.78" height="11.34" viewBox="0 0 9.78 11.34">
  <defs>
    <style>
      .d {
        fill: #d3d3d0;
      }
    </style>
  </defs>
  <g id="c" data-name="design">
    <path class="d" d="m5.01,11.34c-.19,0-.24-.15-.25-.22-.11-.58-.17-1.18-.23-1.77-.03-.24-.05-.49-.08-.73-.02-.15-.14-.26-.29-.27h-.04c-1.04,0-1.67.7-2.22,1.32-.5.56-.94,1.04-1.6,1.04-.05,0-.1,0-.15,0-.22-.29-.14-.46,0-.68.26-.42.64-.78,1.03-1.15.61-.58,1.24-1.19,1.59-2.14.05-.13,0-.28-.12-.36-.56-.35-1.1-.4-1.58-.44-.38-.04-.7-.07-.95-.24.09-.36.35-.47.81-.63.36-.12.76-.27,1.02-.64.06-.08.07-.19.03-.29l-.61-1.45.25-.37s.06,0,.09,0c.36,0,.62.25.93.55.34.33.73.71,1.33.74,0,0,0,0,.01,0,.09,0,.17-.04.23-.11.5-.59.48-1.28.47-1.89-.01-.46-.02-.9.18-1.27.15-.29.3-.33.41-.33,0,0,0,0,0,0,.26.32.26.74.25,1.21,0,.57,0,1.22.51,1.73.06.06.13.09.21.09h0c.76-.01,1.22-.56,1.46-.85.23-.28.43-.57.54-.73.37-.13.63-.19.8-.19.1,0,.18.02.25.07.05.51-.25.88-.6,1.31-.37.45-.79.97-.74,1.69,0,.06.03.12.06.17.28.36.7.42,1.04.47.39.06.61.1.74.38-.15.45-.49.5-1.09.56-.5.05-1.13.11-1.48.68-.03.05-.05.12-.04.18,0,.06,0,.13,0,.19,0,.19,0,.41.1.61.24.41.56.75.88,1.07.43.44.83.85.96,1.41-.01.34-.12.47-.29.55-.39-.08-.68-.39-.99-.71-.42-.44-.9-.93-1.69-.93-.08,0-.17.04-.22.1-.35.39-.4.87-.45,1.29-.04.4-.08.75-.34.99-.04.01-.08.02-.12.02Z"/>
  </g>
</svg>