<?xml version="1.0" encoding="UTF-8"?>
<svg id="b" data-name="レイヤー 2" xmlns="http://www.w3.org/2000/svg" width="20.47" height="22.03" xmlns:xlink="http://www.w3.org/1999/xlink" viewBox="0 0 20.47 22.03">
  <defs>
    <style>
      .g {
        fill: #bda6c8;
      }

      .h {
        fill: #e6ddea;
      }

      .i {
        fill: #c5b1cf;
      }

      .j {
        fill: #d1c1d9;
      }

      .k {
        fill: #c9b6d2;
      }

      .l {
        fill: #cdbdd6;
      }

      .m {
        fill: #c8b5d1;
      }

      .n {
        fill: #bfa9ca;
      }

      .o {
        fill: #ccbbd5;
      }

      .p {
        fill: #cebdd6;
      }

      .q {
        fill: #cfbed7;
      }

      .r {
        fill: #c0abcb;
      }

      .s {
        fill: #dbcfe1;
      }

      .t {
        fill: #d7cade;
      }

      .u {
        fill: url(#f);
      }

      .v {
        opacity: .33;
      }

      .v, .w {
        fill: #f7f4f8;
      }

      .x {
        fill: #c4afce;
      }

      .y {
        fill: #bfaaca;
      }

      .z {
        fill: #c2adcc;
      }

      .aa {
        fill: #c3aecd;
      }

      .ab {
        fill: #cbbad4;
      }

      .ac {
        fill: #cbb9d4;
      }

      .ad {
        fill: #c6b3d0;
      }

      .ae {
        fill: url(#e);
      }

      .af {
        fill: #eee9f1;
      }

      .ag {
        fill: url(#d);
      }

      .ah {
        fill: #d1c2d9;
      }

      .ai {
        fill: #c4b0ce;
      }

      .aj {
        fill: #c9b7d2;
      }

      .ak {
        fill: #d2c3da;
      }

      .al {
        fill: #f1ecf3;
      }

      .am {
        fill: #cab8d3;
      }

      .an {
        fill: #ece5ef;
      }

      .ao {
        fill: #c7b4d0;
      }
    </style>
    <linearGradient id="d" data-name="ﾁ裼 胙琅韃 37" x1="999.06" y1="255.01" x2="1005.78" y2="254.34" gradientTransform="translate(683.87 795.69) rotate(-145.36)" gradientUnits="userSpaceOnUse">
      <stop offset=".16" stop-color="#ccbbd5"/>
      <stop offset=".48" stop-color="#c5b2cf"/>
      <stop offset="1" stop-color="#bfaaca"/>
    </linearGradient>
    <linearGradient id="e" data-name="ﾁ裼 胙琅韃 36" x1="1004.36" y1="258.07" x2="1000.4" y2="260.67" gradientTransform="translate(683.87 795.69) rotate(-145.36)" gradientUnits="userSpaceOnUse">
      <stop offset=".08" stop-color="#d5c6dc"/>
      <stop offset=".48" stop-color="#ccbad4"/>
      <stop offset=".97" stop-color="#c5b2cf"/>
    </linearGradient>
    <linearGradient id="f" data-name="ﾁ裼 胙琅韃 35" x1="997.12" y1="255.7" x2="999.64" y2="262.2" gradientTransform="translate(683.87 795.69) rotate(-145.36)" gradientUnits="userSpaceOnUse">
      <stop offset="0" stop-color="#e4dbe8"/>
      <stop offset=".24" stop-color="#e0d5e4"/>
      <stop offset=".54" stop-color="#d4c6dc"/>
      <stop offset=".6" stop-color="#d2c3da"/>
    </linearGradient>
  </defs>
  <g id="c" data-name="design">
    <g>
      <g>
        <g>
          <path class="m" d="m.21,9.81c.27-1.16.83-2.33,1.85-3.37.97-.98,1.93-1.82,2.89-2.53l.09.12-2.65,3.66L.21,9.81Z"/>
          <path class="x" d="m.21,9.81h0s2.67-1.85,2.67-1.85l.09.13-.17,1.73s-.11,0-.29,0h-.17c-.06,0-.12,0-.19,0H.39s-.08,0-.11,0h-.04s-.01,0-.02,0h0Z"/>
          <polygon class="y" points=".21 9.81 2.39 7.7 5.04 4.04 4.57 5.94 6.3 6.04 4.13 7.11 2.88 7.97 .21 9.81"/>
          <path class="j" d="m.21,9.81h0s.01,0,.02,0c0,0,0,0,0,0,.3.03,2.53.27,2.54.19l-.27,2.74v.11s-2.07,1.89-2.07,1.89c-.35-1.25-.66-3.08-.23-4.93Z"/>
          <path class="x" d="m.23,9.82h.04s-.03,0-.04,0c0,0,0,0,0,0Z"/>
          <path class="x" d="m.24,9.82s.02,0,.04,0c.03,0,.07,0,.11,0,.36,0,1.17,0,1.76,0,.07,0,.13,0,.19,0,.06,0,.12,0,.17,0,.18,0,.29,0,.29,0v.06s-.02.11-.02.11h0c0,.09-2.25-.15-2.54-.18Z"/>
          <path class="x" d="m.39,9.82h1.76c-.58,0-1.39,0-1.76,0Z"/>
          <path class="ad" d="m5.04,4.04l-.09-.12c.64-.48,1.27-.9,1.9-1.27l.97,2.64-1.52.75-1.73-.1.47-1.9Z"/>
          <polygon class="i" points="2.88 7.97 4.13 7.11 5.2 10.38 4.67 9.84 2.97 8.1 2.88 7.97"/>
          <path class="z" d="m2.8,9.83l.17-1.73,1.7,1.74h-.02s-.01,0-.02,0h-1.68s-.11-.01-.11-.01c-.03,0-.04,0-.04,0Z"/>
          <path class="z" d="m8.45,2.92l-1.61-.27c1.2-.72,2.37-1.25,3.48-1.64l-1.34,3.9-.84.62-.33-.23.64-2.37Z"/>
          <polygon class="aj" points="6.84 2.65 8.45 2.92 7.82 5.29 6.84 2.65"/>
          <polygon class="x" points="4.13 7.11 6.3 6.04 6.69 6.37 4.13 7.11"/>
          <polygon class="al" points="4.13 7.11 6.69 6.37 7 6.62 5.98 7.19 8.5 6.89 8.33 6.95 7.36 7.25 7.14 7.57 4.13 7.11"/>
          <polygon class="w" points="4.13 7.11 7.14 7.57 10.34 11.26 5.2 10.38 4.13 7.11"/>
          <path class="x" d="m2.34,9.83h.17c-.05,0-.11,0-.17,0Z"/>
          <path class="z" d="m2.79,9.89v-.06s.02,0,.05,0c.03,0,.06,0,.11,0,.38,0,1.37.02,1.64.01-.35.02-1.76.08-1.81.16v-.11Z"/>
          <path class="z" d="m2.84,9.83h.11s-.09,0-.11,0Z"/>
          <path class="aa" d="m2.78,10h0c.06-.09,1.47-.15,1.81-.16.01,0,.02,0,.03,0,0,0,.02,0,.02,0h.02s.53.54.53.54l-2.7,2.48v-.11s.28-2.74.28-2.74Z"/>
          <path class="z" d="m2.95,9.83h1.68s-.02.01-.03.01c-.28,0-1.26,0-1.64-.01Z"/>
          <polygon class="ak" points="6.3 6.04 7.82 5.29 8.14 5.52 7 6.62 6.86 6.32 6.69 6.37 6.3 6.04"/>
          <polygon class="ab" points=".44 14.75 2.5 12.86 2.34 14.52 .44 14.75"/>
          <path class="k" d="m.44,14.75l1.9-.22-.24,3.67c-.5-.67-.91-1.41-1.17-2.04-.1-.25-.3-.74-.48-1.4Z"/>
          <polygon class="l" points="5.98 7.19 7 6.62 8.14 5.52 9.43 6.47 9.12 7.32 7.14 7.57 7.36 7.25 8.33 6.95 8.5 6.89 5.98 7.19"/>
          <polygon class="n" points="8.99 4.9 10.32 1 11.74 2.71 8.99 4.9"/>
          <path class="aa" d="m11.74,2.71l-1.42-1.71c.41-.14.81-.27,1.2-.38l.22,2.09Z"/>
          <polygon class="w" points="6.69 6.37 6.86 6.32 7 6.62 6.69 6.37"/>
          <polygon class="i" points="2.34 14.52 2.5 12.86 5.2 10.38 3.12 14.08 2.34 14.52"/>
          <polygon class="ai" points="8.14 5.52 8.99 4.9 9.43 6.47 8.14 5.52"/>
          <polygon class="s" points="11.74 2.71 11.52 .63 18.91 .29 15.28 3.62 11.74 2.71"/>
          <path class="ad" d="m18.91.29l-7.39.34c3.54-.98,6.31-.57,7.39-.34Z"/>
          <polygon class="ag" points="2.09 18.19 2.34 14.52 3.12 14.08 7.27 14.69 7.89 18.37 6.77 18.68 5.36 19.09 3.42 19.64 2.09 18.19"/>
          <polygon class="ae" points="3.12 14.08 5.2 10.38 10.34 11.26 7.27 14.69 3.12 14.08"/>
          <polygon class="y" points="8.99 4.9 11.74 2.71 15.28 3.62 13.25 4.68 9.43 6.47 8.99 4.9"/>
          <polygon class="al" points="7.14 7.57 9.12 7.32 11.89 9.94 10.34 11.26 7.14 7.57"/>
          <polygon class="ab" points="9.12 7.32 9.43 6.47 13.25 4.68 12.7 6.78 9.12 7.32"/>
          <polygon class="ak" points="9.12 7.32 12.7 6.78 12.04 9.34 11.89 9.94 9.12 7.32"/>
          <path class="m" d="m2.09,18.19l1.33,1.45c-.47-.4-.93-.91-1.33-1.45Z"/>
          <path class="i" d="m12.7,6.78l.54-2.1,2.03-1.06.72,1.9,1.12-.49-.33,2.43-.47.2-1.42.59.12-.53s-2.73,1.27-2.95,1.6l.68-2.53h-.03Z"/>
          <path class="ao" d="m3.42,19.64l1.94-.55.58,2.11c-.92-.43-1.87-1.01-2.52-1.56Z"/>
          <path class="ak" d="m12.04,9.34l.66-2.56h.03s-.68,2.53-.68,2.53h0s0,0,0,0c0,0,0,.01,0,.02Z"/>
          <path class="y" d="m15.28,3.62l3.63-3.33c.31.07.48.12.48.12,0,0,.13.32.3.89l-1.48.78-2.93,1.55Z"/>
          <polygon class="ak" points="15.28 3.62 18.21 2.07 17.11 5.03 16 5.52 15.28 3.62"/>
          <path class="x" d="m12.06,9.31h0c.23-.33,2.95-1.6,2.95-1.6l-.12.53h0s0,0,0,0l-.82,3.64h0s-.21.92-.21.92l-1.81-3.46v-.03s0,0,0,0Z"/>
          <path class="m" d="m12.04,9.34s0-.01,0-.02v.03s0,0,0,0Z"/>
          <polygon class="m" points="11.89 9.94 12.04 9.34 12.05 9.35 11.89 9.94"/>
          <polygon class="o" points="5.36 19.09 6.77 18.68 7.6 20.63 6.93 20.17 7.52 21.77 5.94 21.2 5.94 21.2 5.36 19.09"/>
          <polygon class="ai" points="10.86 12.29 11.72 11.61 13.74 13.27 11.95 14.73 10.86 12.29"/>
          <polygon class="ac" points="17.11 5.03 18.21 2.07 19.69 1.29 19.15 2.44 16.78 7.45 17.11 5.03"/>
          <polygon class="p" points="14.89 8.24 14.89 8.24 16.31 7.65 15.98 9.73 15.75 9.85 14.81 11.6 14.89 8.25 14.89 8.24"/>
          <path class="z" d="m19.15,2.44l.54-1.15c.37,1.24.93,3.69.75,6.7l-1.99.28.71-5.83Z"/>
          <polygon class="am" points="14.89 8.25 14.81 11.6 14.67 11.86 14.07 11.89 14.07 11.89 14.89 8.25"/>
          <path class="m" d="m5.94,21.2l1.57.57c-.46-.1-1.01-.3-1.57-.57Z"/>
          <polygon class="y" points="16.78 7.45 19.15 2.44 18.44 8.27 17.79 6.89 17.07 7.32 17.39 7.93 16.89 7.9 16.78 7.45"/>
          <polygon class="ah" points="15.98 9.73 16.31 7.65 16.78 7.45 16.89 7.9 17.39 7.93 17.07 7.32 17.79 6.89 18.44 8.27 17.09 8.46 16.86 9.27 15.98 9.73"/>
          <polygon class="ai" points="11.95 14.73 13.74 13.27 13.75 13.28 11.95 14.73 11.95 14.73"/>
          <polygon class="t" points="13.86 12.8 14.07 11.89 14.67 11.86 14.73 12.46 14 13.06 13.86 12.8"/>
          <polygon class="r" points="14.81 11.6 15.75 9.85 15.98 9.73 16.86 9.27 16.32 11.17 14.79 12.41 14.81 11.6"/>
          <polygon class="y" points="13.76 13.25 13.86 12.8 14 13.06 13.76 13.25"/>
          <polygon class="r" points="14.67 11.86 14.81 11.6 14.79 12.41 14.79 12.41 14.73 12.46 14.67 11.86"/>
          <polygon class="ai" points="13.74 13.27 13.76 13.25 13.75 13.28 13.74 13.27"/>
          <polygon class="y" points="13.75 13.28 13.76 13.25 14 13.06 14 13.07 13.75 13.28"/>
          <polygon class="ai" points="13.75 13.28 14 13.07 14.27 13.59 13.75 13.28"/>
          <polygon class="h" points="16.86 9.27 17.09 8.46 18.44 8.27 20.44 7.99 17.93 13.91 16.32 11.17 16.86 9.27"/>
          <polygon class="y" points="14 13.06 14.73 12.46 14.73 12.47 14 13.07 14 13.06"/>
          <polygon class="ai" points="14 13.07 14.73 12.47 14.78 12.99 14.27 13.59 14 13.07"/>
          <polygon class="r" points="14.73 12.47 14.73 12.46 14.79 12.41 14.79 12.42 14.73 12.47"/>
          <polygon class="r" points="14.78 12.99 14.73 12.47 14.79 12.42 14.78 12.99"/>
          <polygon class="y" points="14.79 12.41 14.79 12.41 16.32 11.17 14.79 12.42 14.79 12.41"/>
          <polygon class="ai" points="14.78 12.99 14.79 12.42 16.32 11.17 14.78 12.99"/>
          <path class="aj" d="m17.93,13.91l2.5-5.92c-.13,2.13-.64,4.55-1.86,7.01l-.64-1.09Z"/>
          <polygon class="q" points="17.24 15.54 17.93 13.91 18.58 15 18.58 15 18.58 15 17.24 15.54"/>
        </g>
        <g>
          <polygon class="u" points="7.89 18.37 7.27 14.69 10.34 11.26 11.5 15.09 11.91 16.42 8.42 18.73 7.89 18.37"/>
          <polygon class="g" points="11.5 15.09 10.34 11.26 11.89 9.94 12.05 9.35 13.86 12.8 13.76 13.25 13.74 13.27 11.72 11.61 10.86 12.29 11.95 14.73 11.5 15.09"/>
          <path class="ao" d="m6.77,18.68l1.12-.32.52.36.13.22-.34.19.38.26,2.11-1.22,1.91.19-.86,3.37c-1.95.54-3.59.15-4.22.01l-.59-1.6.67.46-.82-1.95Z"/>
          <polygon class="m" points="11.5 15.09 11.95 14.73 11.95 14.73 11.5 15.09"/>
          <polygon class="r" points="11.5 15.09 11.95 14.73 13.75 13.28 13.75 13.28 14.02 16.83 11.91 16.42 11.5 15.09"/>
          <polygon class="t" points="8.58 19.41 8.2 19.14 8.54 18.95 10.56 17.81 10.69 18.19 8.58 19.41"/>
          <polygon class="z" points="8.42 18.73 11.91 16.42 12.25 17.52 10.69 18.19 10.56 17.81 8.54 18.95 8.42 18.73"/>
          <polygon class="am" points="14.27 13.59 14.02 16.83 13.75 13.28 14.27 13.59"/>
          <polygon class="h" points="10.69 18.19 12.25 17.52 14.02 16.83 13.67 17.96 12.6 18.38 10.69 18.19"/>
          <polygon class="l" points="11.91 16.42 14.02 16.83 12.25 17.52 11.91 16.42"/>
          <polygon class="an" points="14.02 16.83 14.27 13.59 14.78 12.99 16.32 11.17 17.93 13.91 17.24 15.54 14.02 16.83"/>
          <polygon class="af" points="13.67 17.96 14.02 16.83 17.24 15.54 15.64 19.32 15.64 19.32 15.64 19.32 13.67 17.96"/>
          <path class="o" d="m15.64,19.32c-1.3,1.38-2.66,2.09-3.9,2.43l.86-3.37,1.07-.42,1.97,1.36Z"/>
          <path class="s" d="m15.64,19.32l1.6-3.78,1.33-.53c-.61,1.24-1.4,2.49-2.42,3.72-.17.21-.34.41-.52.59Z"/>
        </g>
      </g>
      <polygon class="v" points="5.57 17.24 14.02 16.83 16.32 11.17 15.96 4.57 10.37 5.89 4.85 9.29 5.57 17.24"/>
    </g>
  </g>
</svg>