<svg xmlns="http://www.w3.org/2000/svg" width="26.38" height="20.5" viewBox="0 0 26.38 20.5">
  <g>
    <path d="M26.18,13.38l-1.73-1.74A7.89,7.89,0,0,0,17.5,0a7.83,7.83,0,0,0-7.27,4.83,7.78,7.78,0,0,0-1.35-.12,7.89,7.89,0,0,0-7,11.64L.19,18.09a.66.66,0,0,0,0,.9l.24.26a4.26,4.26,0,0,0,5.31.58,7.71,7.71,0,0,0,3.17.67,7.83,7.83,0,0,0,7.27-4.83,7.93,7.93,0,0,0,4.51-.55,4.3,4.3,0,0,0,5.34-.6c.08-.09.16-.17.23-.26A.66.66,0,0,0,26.18,13.38ZM3.23,16.93a.66.66,0,0,0,.09-.83A6.56,6.56,0,0,1,8.88,6a6.73,6.73,0,0,1,1.6.19,6.61,6.61,0,0,1,3.17,1.86c.12.13.24.26.35.4s.22.28.32.43a6.53,6.53,0,0,1,1.13,3.69,6.73,6.73,0,0,1-.34,2.09h0a6.56,6.56,0,0,1-9.17,3.78.63.63,0,0,0-.3-.07.65.65,0,0,0-.4.14,3,3,0,0,1-3.64,0ZM15.41,8.17a7.69,7.69,0,0,0-.8-1c-.12-.13-.25-.26-.38-.38l-.13-.11a3.11,3.11,0,0,0-.28-.23l-.16-.13-.26-.19L13.22,6,13,5.85l-.2-.12-.29-.15-.18-.09L12,5.34l-.15-.07-.28-.1a6.57,6.57,0,1,1,11.54,6.22.65.65,0,0,0,.09.82l1.63,1.63a3,3,0,0,1-3.64,0h0a.68.68,0,0,0-.41-.14.59.59,0,0,0-.29.07,6.67,6.67,0,0,1-3.88.63v0c0-.13.05-.26.08-.39l0-.2c0-.14,0-.27.06-.47V13.2c0-.2,0-.4,0-.59A7.88,7.88,0,0,0,15.41,8.17Z" style="fill: #6e6e64"/>
    <path d="M8.88,11.63a1.26,1.26,0,1,0,1.25,1.26A1.26,1.26,0,0,0,8.88,11.63Zm0,1.68a.43.43,0,1,1,0-.85.43.43,0,1,1,0,.85ZM5.67,11.63a1.26,1.26,0,1,0,1.25,1.26A1.26,1.26,0,0,0,5.67,11.63Zm0,1.68a.43.43,0,1,1,.43-.42A.42.42,0,0,1,5.67,13.31Zm6.41-1.68a1.26,1.26,0,1,0,1.26,1.26A1.26,1.26,0,0,0,12.08,11.63Zm0,1.68a.43.43,0,0,1,0-.85.43.43,0,1,1,0,.85Z" style="fill: #6e6e64"/>
  </g>
</svg>
