<svg data-name="レイヤー 2" xmlns="http://www.w3.org/2000/svg" width="300" height="96.43" viewBox="0 0 300 96.43"><g data-name="design"><path d="M0 51.39h8.01v40.68h23.92v2.82H0v-43.5zm43.7-.99l-9.65 11.29h-1.77l3.35-11.29h8.07zm29.86 0l20.47 44.49h-8.27l-6.63-14.5H59.87l-6.79 14.5h-3.54l20.8-44.49h3.22zM61.22 77.57h16.57l-8.33-17.68-8.23 17.68zm37.44-26.18h8.89l16.09 32.03s16.28-30.63 16.98-32.03h8.11v43.5h-8.04V59.23l-18.28 35.66h-1.38L101.9 57.72v37.17h-3.25v-43.5zm60.53 0h8.01v28.25c0 8.67 4.58 11.71 6.33 12.42 1.75.71 3.71 1.07 5.87 1.07 1.27 0 2.48-.19 3.64-.57 1.16-.38 2.24-.9 3.23-1.56.99-.66 1.9-1.42 2.71-2.3.81-.87 1.5-1.81 2.08-2.82.58-1 1.03-2.04 1.35-3.12.31-1.07.47-2.12.47-3.15V51.39h3.22v27.76c0 2.17-.38 4.25-1.13 6.27-.76 2.01-1.91 3.8-3.46 5.35-1.55 1.55-3.53 2.8-5.94 3.74-2.41.94-5.25 1.41-8.53 1.41-2.89 0-5.44-.43-7.66-1.3-2.22-.86-4.09-2.04-5.59-3.53a14.816 14.816 0 01-3.43-5.23c-.78-2-1.16-4.14-1.16-6.42V51.39zm48.69 0h8.01v40.68h19.91v2.82h-27.92v-43.5zm64.7 0v2.82h-20.93v15.55H265v2.82h-13.35v19.49h20.93v2.82h-28.94v-43.5h28.94zM138.85 21.76h-12.57L120 10.88 126.28 0h12.57l6.28 10.88-6.28 10.88zm-11.38-2.05h10.19l5.1-8.83-5.1-8.83h-10.19l-5.1 8.83 5.1 8.83z"/><path d="M135.49 15.94h-5.84l-2.92-5.06 2.92-5.06h5.84l2.92 5.06-2.92 5.06zm-4.66-2.05h3.47l1.74-3.01-1.74-3.01h-3.47l-1.74 3.01 1.74 3.01zm37.54 10.69l-12.45-1.68-4.78-11.62 7.68-9.95 12.45 1.68 4.77 11.62-7.68 9.95zm-11-3.56l10.1 1.36 6.23-8.07-3.87-9.43-10.1-1.36-6.23 8.07 3.87 9.43z"/><path d="M165.81 18.36l-5.79-.78-2.22-5.41 3.57-4.63 5.79.78 2.22 5.41-3.57 4.63zm-4.34-2.66l3.44.46 2.12-2.75-1.32-3.21-3.44-.46-2.12 2.75 1.32 3.21zm35.72 15.36l-12.09-3.42-3.09-12.18 9.01-8.76 12.09 3.42 3.08 12.18-9.01 8.76zm-10.39-5.07l9.81 2.77 7.31-7.11-2.5-9.88L191.61 9l-7.31 7.11 2.5 9.88z"/><path d="M195.54 24.54l-5.62-1.59-1.43-5.66 4.19-4.07 5.62 1.59 1.43 5.66-4.19 4.08zm-3.92-3.24l3.34.94 2.49-2.42-.85-3.36-3.34-.94-2.49 2.42.85 3.37zm30.24 22.44l-10.59-6.77.56-12.55 11.15-5.79 10.59 6.77-.56 12.55-11.15 5.79zm-8.49-7.86l8.59 5.49 9.05-4.7.46-10.18-8.59-5.49-9.05 4.7-.46 10.18z"/><path d="M222.16 37.03l-4.92-3.15.26-5.84 5.19-2.69 4.93 3.15-.26 5.84-5.19 2.69zm-2.82-4.24l2.92 1.87 3.08-1.6.16-3.47-2.93-1.87-3.08 1.6-.16 3.47z"/><circle cx="148.13" cy="11.22" r="3.14"/><circle cx="179.01" cy="15.1" r="3.14"/><circle cx="208.99" cy="23.38" r="3.14"/><path d="M96.78 24.58l-7.68-9.95 4.77-11.62 12.45-1.68 7.68 9.95-4.78 11.62-12.45 1.68zm-5.33-10.26l6.23 8.07 10.1-1.36 3.87-9.43-6.23-8.07-10.1 1.36-3.87 9.43z"/><path d="M99.33 18.36l-3.57-4.63 2.22-5.41 5.79-.78 3.57 4.63-2.22 5.41-5.79.78zm-1.22-4.94l2.12 2.75 3.44-.46 1.32-3.21-2.12-2.75-3.44.46-1.32 3.21zM67.95 31.06l-9-8.76 3.08-12.18L74.12 6.7l9.01 8.76-3.09 12.18-12.09 3.42zm-6.72-9.41l7.31 7.11 9.81-2.77 2.5-9.88L73.54 9l-9.81 2.77-2.5 9.88z"/><path d="M69.6 24.54l-4.19-4.08 1.43-5.66 5.62-1.59 4.19 4.07-1.43 5.66-5.62 1.59zm-1.91-4.72l2.49 2.42 3.34-.94.85-3.37-2.49-2.42-3.34.94-.85 3.36zm-24.4 23.92l-11.15-5.79-.56-12.55 10.59-6.77 11.15 5.79.56 12.55-10.59 6.77zm-9.15-7.06l9.05 4.7 8.59-5.49-.46-10.18-9.05-4.7-8.59 5.49.46 10.18z"/><path d="M42.99 37.03l-5.19-2.69-.26-5.84 4.93-3.15 5.19 2.69.26 5.84L43 37.03zm-3.19-3.97l3.08 1.6 2.92-1.87-.16-3.47-3.08-1.6-2.93 1.87.16 3.47z"/><circle cx="117.01" cy="11.22" r="3.14"/><circle cx="86.13" cy="15.1" r="3.14"/><circle cx="56.15" cy="23.38" r="3.14"/><path d="M290.26 96.43c-5.36 0-9.72-4.38-9.72-9.74S284.9 77 290.26 77s9.74 4.36 9.74 9.69-4.38 9.74-9.74 9.74zm0-18.29c-4.72 0-8.57 3.82-8.57 8.54s3.84 8.59 8.57 8.59 8.59-3.84 8.59-8.59-3.87-8.54-8.59-8.54zm5.12 14.15c-.22-.02-.54-.05-.83-.05-.22 0-.44 0-.59.05-.07.02-.15.02-.2.02-.1 0-.15-.02-.22-.15-1.03-1.39-2.4-3.38-3.55-4.97-.69 0-1.39-.05-2.08-.1v1.84c0 .91.03 2.13.05 3.03 0 .32-.1.32-.15.32-.07 0-.15 0-.24-.02-.1-.03-.34-.05-.56-.05s-.42.02-.51.05c-.07.02-.15.02-.2.02s-.2 0-.2-.32c.02-1 .07-2.18.07-3.06v-5.21c0-.56-.05-1.54-.07-2.3 0-.22.05-.29.22-.29h.1c.12 0 .83.02 1.18.02.73 0 2.52-.02 3.57-.02 2.3 0 3.72 1.22 3.72 2.91 0 2.18-1.79 2.86-3.13 3.06 1.15 1.47 2.72 3.52 3.84 4.7.12.12.17.24.17.32 0 .15-.15.2-.32.2h-.07zm-7.49-6.19c.71.05 1.35.07 1.79.07 2.64 0 3.43-.91 3.43-2.25 0-1.22-.83-1.79-2.57-1.79-.78 0-2.15.02-2.64.05v3.92z"/></g></svg>