<svg data-name="レイヤー 2" xmlns="http://www.w3.org/2000/svg" width="337.15" height="281.93" viewBox="0 0 337.15 281.93"><path d="M329.61 187.68c-.19 0-.24-.15-.25-.22-.11-.58-.17-1.18-.23-1.77-.03-.24-.05-.49-.08-.73a.31.31 0 00-.29-.27h-.04c-1.04 0-1.67.7-2.22 1.32-.5.56-.94 1.04-1.6 1.04h-.15c-.22-.29-.14-.46 0-.68.26-.42.64-.78 1.03-1.15.61-.58 1.24-1.19 1.59-2.14.05-.13 0-.28-.12-.36-.56-.35-1.1-.4-1.58-.44-.38-.04-.7-.07-.95-.24.09-.36.35-.47.81-.63.36-.12.76-.27 1.02-.64.06-.08.07-.19.03-.29l-.61-1.45.25-.37h.09c.36 0 .62.25.93.55.34.33.73.71 1.33.74h.01c.09 0 .17-.04.23-.11.5-.59.48-1.28.47-1.89-.01-.46-.02-.9.18-1.27.15-.29.3-.33.41-.33.26.32.26.74.25 1.21 0 .57 0 1.22.51 1.73.06.06.13.09.21.09.76-.01 1.22-.56 1.46-.85.23-.28.43-.57.54-.73.37-.13.63-.19.8-.19.1 0 .18.02.25.07.05.51-.25.88-.6 1.31-.37.45-.79.97-.74 1.69 0 .06.03.12.06.17.28.36.7.42 1.04.47.39.06.61.1.74.38-.15.45-.49.5-1.09.56-.5.05-1.13.11-1.48.68-.03.05-.05.12-.04.18v.19c0 .19 0 .41.1.61.24.41.56.75.88 1.07.43.44.83.85.96 1.41-.01.34-.12.47-.29.55-.39-.08-.68-.39-.99-.71-.42-.44-.9-.93-1.69-.93-.08 0-.17.04-.22.1-.35.39-.4.87-.45 1.29-.04.4-.08.75-.34.99-.04.01-.08.02-.12.02zM9.53 68.95c-.66-.74-.81-1.5-.95-2.23-.04-.23-.09-.46-.15-.69-.09-.33-.12-.67-.15-1.04-.07-.8-.15-1.62-.8-2.32a.425.425 0 00-.17-.1c-.16-.04-.33-.06-.49-.06-.68 0-1.22.36-1.69.68l-.08.05c-.33.22-.66.45-.99.67-.84.57-1.7 1.15-2.57 1.69-.22.14-.58.22-1.05.23-.07 0-.22-.08-.36-.16l-.06-.03c.61-.88 1.52-1.45 2.48-2.04 1.09-.68 2.21-1.37 2.87-2.58.07-.13.05-.29-.04-.4-.64-.74-1.45-1.12-2.23-1.49-.73-.35-1.42-.67-1.84-1.27-.03-.35.1-.41.6-.59l4.42 1.92s.09.03.14.03c.09 0 .19-.04.25-.11.97-1.01.91-2.15.85-3.15-.02-.42-.05-.82 0-1.2v-.06c.09-.69.17-1.09.64-1.34.68.62.67 1.44.66 2.39 0 .88-.02 1.79.53 2.6.07.1.17.15.29.15 1.15 0 2.06-.53 2.94-1.05.65-.38 1.27-.75 1.94-.87.31.21.34.38.27.61-.31.59-.89.88-1.56 1.21-.74.36-1.58.77-2.05 1.7-.05.1-.05.23 0 .33.51.93 1.47 1.21 2.32 1.46.83.24 1.56.46 1.92 1.17-.15.2-.35.3-.6.3-.11 0-.23-.02-.36-.05-.43-.11-.87-.26-1.29-.39-.51-.17-1.04-.34-1.58-.47-.22-.05-.46-.11-.72-.11-.54 0-1.02.25-1.46.76-.05.06-.08.13-.09.21-.03.64.09 1.29.23 1.98.22 1.16.45 2.35 0 3.65zm22.69 11.33c-.67 0-1.48-.27-2.63-.73-.03-.05-.06-.09-.1-.14-.1-.14-.19-.26-.22-.38-.3-1.14-.29-2.3.02-3.65 1.52-1 2.41-1.38 3.15-1.38s1.45.41 2.57 1.5c.29 1.12.3 2.23.03 3.31-1.23 1.02-1.94 1.48-2.82 1.48zm.07-5.24h-.08c-1.08.24-1.78.79-2.13 1.69 0 .02-.02.05-.02.07-.17 1 .15 1.73.96 2.18.02 0 .04.02.05.02.25.08.48.13.72.13.57 0 1.15-.23 1.87-.74.05-.03.09-.08.12-.14.36-.75.42-1.38.2-1.92-.23-.55-.75-.97-1.58-1.27-.04-.01-.08-.02-.12-.02zm13.72-48.47c-.05-.1-.1-.19-.15-.27-.1-.17-.18-.31-.2-.42-.12-.71-.13-1.26.18-1.79.39-.36.85-.54 1.38-.54.32 0 .68.06 1.11.19.66.62.67 1.24.45 2.08-.57.75-1.04 1.06-1.78 1.19l-.99-.44zm274.57 227.1c-.46 0-1.05-.07-1.95-.59-.57-.83-1.17-1.68-1.75-2.5-1.67-2.35-3.39-4.78-4.85-7.52.9-3.3 2.52-6.32 4.24-9.51.31-.58.62-1.16.93-1.75.22-.09.44-.19.65-.29.53-.24 1.03-.47 1.53-.51 1.1-.09 2.22-.16 3.3-.22 2.23-.12 4.54-.25 6.83-.66 2.57 2.27 4.32 5.08 6.02 7.8.52.83 1.06 1.69 1.6 2.51-.02.22-.03.42-.04.62-.02.44-.04.82-.16 1.14a73.056 73.056 0 01-4.7 9.69c-.81.67-1.71 1.01-2.89 1.09-1.7.12-3.42.26-5.08.4l-3.32.27c-.12 0-.24.02-.37.02zm2.44-6.3c-.08 0-.17.04-.22.1-1.14 1.25-2.13 2.42-2.56 4.13-.04.16.05.32.21.36.79.23 1.62.33 2.6.33.78 0 1.55-.07 2.3-.13.72-.06 1.47-.13 2.2-.13.24 0 .46 0 .67.02h.25c.43 0 .98-.1 1.43-.9a.3.3 0 000-.29c-.49-.92-1.27-2.29-2.45-3.42a.323.323 0 00-.21-.08h-4.23zm-5.37-4.62c-.35 0-.67.05-.98.09-.22.03-.43.06-.64.07-.33.02-.64.1-1.07.21-.22.06-.47.12-.77.19a.303.303 0 00-.22.4c.69 1.88 1.74 3.31 2.75 4.69.54.74 1.06 1.44 1.52 2.21.04.07.11.12.19.14h.07c.06 0 .12-.02.17-.05 1.36-.9 1.93-2.11 2.48-3.28.06-.13.12-.25.18-.38.05-.1.04-.22-.03-.31-.37-.53-.66-1.09-.94-1.63-.4-.78-.78-1.52-1.38-2.08a.236.236 0 00-.09-.06c-.39-.16-.8-.23-1.24-.23zm15.37-.86c-.77 0-1.54.12-2.25.25a.3.3 0 00-.21.15l-2.12 3.9c-.05.09-.05.21 0 .3.1.16.19.32.29.48.64 1.08 1.31 2.2 2.54 3.09a.3.3 0 00.18.06c.08 0 .17-.04.23-.1 1.34-1.53 2.1-3.29 2.83-4.99.32-.74.65-1.51 1.03-2.25.04-.07.04-.16.01-.24a.286.286 0 00-.17-.17c-.74-.31-1.52-.46-2.37-.46zm-7.58-4.37c-1.06 0-2.05.22-3 .44l-.17.04c-.07.02-.13.05-.17.11-.96 1.23-1.61 2.41-2.09 3.81-.02.07-.02.14 0 .21.61 1.56 1.33 2.82 2.29 3.94.04.05.1.08.16.1.49.12.99.18 1.53.18.8 0 1.57-.13 2.31-.25.22-.04.44-.07.66-.11.07-.01.13-.05.18-.1 1.08-1.22 1.72-2.56 2.29-3.84.03-.08.03-.16 0-.24-.71-1.67-1.5-2.99-2.4-4.04a.27.27 0 00-.17-.1c-.47-.09-.93-.14-1.42-.14zm-7.29-4.46c-.1 0-.19.05-.25.13-1.3 1.87-2.14 3.67-2.95 5.42-.4.87-.82 1.77-1.28 2.64-.04.08-.05.18 0 .27a.3.3 0 00.21.17c.8.17 1.5.25 2.13.25 1.08 0 2.05-.24 2.99-.73.06-.03.1-.08.13-.13l1.63-3.32c.04-.09.04-.19 0-.28l-2.33-4.26a.313.313 0 00-.25-.16h-.02zm12.33.13a.3.3 0 00-.18.06c-1.01.77-1.48 1.84-1.98 2.98-.09.2-.18.41-.27.61-.04.1-.03.21.02.29.27.39.49.81.72 1.26.44.85.9 1.73 1.72 2.42.05.04.12.07.18.07.31.01.63.04.94.06.42.03.85.07 1.28.07.87 0 1.58-.15 2.21-.48.14-.07.2-.24.14-.38-1.11-2.72-2.48-4.77-4.57-6.88a.305.305 0 00-.21-.09zm-5.09-1.51c-1.89 0-3.61.28-5.26.85-.15.05-.23.2-.2.35.37 1.69.94 2.74 1.97 3.62.05.05.12.07.19.07.23 0 .47.02.71.03.45.02.91.04 1.38.04 1.03 0 1.86-.1 2.63-.3.08-.02.14-.07.18-.14.15-.26.3-.52.44-.77.36-.62.7-1.21 1.02-1.82l.06-.11c.19-.36.52-.97-.05-1.53a.246.246 0 00-.17-.08c-1.03-.13-1.98-.2-2.9-.2zM12.37 28C8.16 26.49 3.53 23.97.78 21.69c-1-7.78-1.03-10.21-.14-13.35.97-.61 1.94-1.26 2.88-1.9 2.52-1.7 5.12-3.46 8.08-4.61l3.56 1.65s.08.03.13.03c.03 0 .07 0 .1-.02 1.16-.4 2.19-1.05 3.19-1.68 1.13-.72 2.3-1.46 3.65-1.8 2.06.94 4.06 1.91 5.87 3.34.47 2.08.42 4.19.17 6.89l-4.35 2.87c-.06.04-.11.1-.13.18-.35 1.32-.31 2.69-.27 4.01.04 1.32.07 2.69-.27 4.04-.63.43-1.25.86-1.88 1.3-2.83 1.97-5.75 4.01-9.01 5.37zm-.72-24.88s-.07 0-.1.02C8.53 4.2 4.5 6.68 1.53 9.3c-.05.05-.09.12-.1.19-.46 3.58-.29 8.68.41 11.87.02.07.05.13.11.18 2.42 1.84 5.15 3.09 8.04 4.42.69.31 1.38.63 2.07.96.04.02.08.03.13.03.04 0 .08 0 .11-.02 2.84-1.15 5.32-2.87 7.73-4.54.73-.51 1.49-1.03 2.23-1.52.07-.05.12-.12.13-.2.35-2.07.58-4.25-.04-6.24a.258.258 0 00-.08-.13c-.96-.95-2.08-1.51-3.15-2.06-1.12-.57-2.18-1.1-2.91-2.01-.17-.71-.17-1.44-.16-2.15.01-1.03.02-2.1-.53-3.11a.254.254 0 00-.13-.12c-.3-.16-.61-.33-.9-.5-.86-.49-1.76-1-2.79-1.21h-.06zm6.1 3.12a.3.3 0 00-.29.21c-.49 1.53-.49 1.59-.03 3.39l.02.06c.02.07.06.13.11.17 1.22.91 2.48 1.57 3.76 1.96.03 0 .06.01.09.01.12 0 .24-.08.29-.2l.03-.08c.47-1.32.47-1.41.16-3.14-.01-.08-.06-.14-.12-.19-.19-.14-.37-.27-.54-.41-1.07-.8-2.07-1.56-3.41-1.78h-.05zm4.33-5.17s-.09.01-.14.03l-.08.04c-1.62.82-3.02 1.53-4.22 2.86-.11.12-.1.31.02.43.81.73 1.7 1.26 2.57 1.77 1.08.63 2.09 1.23 2.83 2.16.2.27.23.62.26 1.02.05.59.1 1.27.77 1.77a.3.3 0 00.18.06h.07c1.17-.28 2-.8 2.7-1.68a.31.31 0 00.06-.13c.3-1.62.28-3.45-.07-5.43a.27.27 0 00-.1-.17c-.97-.86-2.06-1.38-3.22-1.94-.49-.24-.99-.48-1.49-.75a.326.326 0 00-.14-.04zm264.83 242.39c-1.07 0-1.89-.44-2.58-1.39-.31-1.03-.3-2.03.01-3.14.68-.98 1.46-1.44 2.47-1.44.35 0 .72.05 1.13.16 1.17.65 1.8 1.62 1.94 2.94.07.65-.04 1.04-.92 2.47-.84.27-1.47.39-2.05.39zm-.28-4.99a.3.3 0 00-.18.06c-.12.09-.25.17-.37.24-.27.17-.52.32-.67.58-.19.31-.28.67-.36.98-.03.11-.06.22-.09.32s-.01.2.05.28c.87 1.06 1.22 1.5 1.84 1.5.38 0 .79-.19 1.46-.5.07-.03.13-.1.16-.18.28-.82.28-1.48 0-2.02-.29-.56-.86-.97-1.76-1.25-.03 0-.06-.01-.09-.01zm-43.55 32.64c-.19 0-.37-.03-.56-.1-7.1-2.61-14.56-5.75-20.99-10.97-.16-.13-.31-.3-.52-.53-.1-.11-.22-.24-.35-.39.01-.24.01-.47 0-.7 0-.53 0-.98.15-1.35.41-1 .82-2.03 1.22-3.02 1.02-2.55 2.07-5.19 3.33-7.73 6.86-2.88 13.37-4.81 19.91-5.9 2.03.96 3.91 2.3 5.72 3.58 1.18.84 2.4 1.7 3.66 2.47.77.47 1.27 1.05 1.53 1.76.26 1.12-.17 2.14-.62 3.22l-.18.45c-1.23 3.02-2.76 6.55-4.87 9.82-1.4 2.16-2.84 4.28-4.24 6.33-.58.85-1.15 1.68-1.7 2.5-.59.39-1.07.57-1.51.57zm1-18.53h-.03c-1.58.17-3.08.72-4.54 1.25-1.45.53-2.94 1.07-4.49 1.24-.98.11-1.7.47-2.14 1.06-.04.06-.06.14-.06.21v.09c0 .12 0 .28.11.42 2.54 3.19 5.25 6.59 8 9.99.21.25.45.46.82.77.21.18.46.39.77.67.06.05.13.08.2.08.03 0 .06 0 .09-.01.1-.03.18-.11.21-.21.85-3.07 1.06-6.03 1.26-8.9.14-1.95.27-3.79.59-5.63.04-.25-.13-.44-.32-.65-.08-.09-.16-.18-.23-.27a.298.298 0 00-.24-.12zm-13.93 3.93s-.06 0-.09.01l-1.16.37c-1.64.53-3.34 1.07-5.02 1.63-.23.08-.34.31-.42.5-.03.06-.05.11-.08.16-.07.12-.05.28.06.38 3.04 2.77 10.44 6.98 14.67 8.35.14.05.28.07.42.07.35 0 .66-.15.89-.43.08-.1.09-.24.03-.34-2.64-4.46-6.31-8.74-9.13-10.65a.337.337 0 00-.17-.05zm24.03-6.88h-.05c-2.85.44-5.15 1.25-7.46 2.12a.28.28 0 00-.18.2c-1.18 4.02-1.35 8.09-1.52 12.03 0 .06 0 .13-.01.19-.03.55-.07 1.23.59 1.7.05.04.11.06.18.06.08 0 .17-.03.23-.1 3.27-3.64 6.77-10.15 8.51-15.82.03-.1 0-.21-.06-.29a.29.29 0 00-.23-.1zm-28.22-.58h-.04c-.08.01-.16.06-.21.13-1.85 2.76-3.12 5.97-3.1 7.81 0 .09.04.17.11.22.06.05.13.07.2.07h.04c3.59-.49 5.08-1 6.92-2.35.07-.05.11-.12.12-.21a.278.278 0 00-.07-.23c-.53-.65-.93-1.37-1.36-2.14-.64-1.15-1.3-2.34-2.42-3.24a.316.316 0 00-.19-.07zm10.46-3.76c-.08 0-.17 0-.27.02-.11 0-.23.02-.37.02-.11 0-.22.06-.27.16-1.41 2.74-2.64 5.24-3.39 7.98-.06.24.07.44.22.66.06.09.13.19.18.3.05.1.16.16.27.16h.06c3.19-.68 6.58-1.67 10.97-3.22a.27.27 0 00.17-.16c.03-.07.04-.16 0-.23-.08-.21-.13-.38-.17-.52-.08-.29-.14-.49-.33-.62-2.16-1.46-4.41-2.95-6.7-4.44a.705.705 0 00-.39-.1zm-2.97-.78h-.07l-.44.11c-2.17.53-4.23 1.03-6.08 2.57-.12.1-.14.27-.06.39l.67 1.06c.73 1.16 1.41 2.25 2.13 3.34.13.19.34.29.52.37.06.03.13.06.18.09a.299.299 0 00.38-.07c1.84-2.21 2.96-4.97 3.07-7.57a.34.34 0 00-.11-.25.316.316 0 00-.19-.07zm13.05-1.52a.296.296 0 00-.3.26c-.32 2.07-.51 4.36.3 7.05.02.08.08.15.15.18.04.02.09.03.14.03.03 0 .07 0 .1-.02.75-.27 1.48-.47 2.26-.68 1.6-.44 3.26-.89 5.16-1.96.1-.06.16-.16.15-.28s-.07-.21-.18-.26c-1.29-.6-2.34-1.33-3.36-2.03-1.38-.95-2.68-1.86-4.35-2.28h-.07zm-1.97-1.32h-.05c-.46.07-.91.13-1.34.19-2.08.28-3.87.52-5.52 1.53-.12.07-.17.22-.13.36.02.06.04.13.05.2.04.2.1.43.27.59 1.74 1.51 3.69 2.63 5.88 3.84.08.05.18.07.29.07.11 0 .23-.02.36-.05.1-.02.21-.04.33-.05.14-.01.25-.12.27-.26.25-1.91.14-3.84-.11-6.14 0-.08-.05-.16-.12-.21a.3.3 0 00-.18-.06zm28.97 40.26c-.66-.74-.81-1.5-.95-2.23-.04-.23-.09-.46-.15-.69-.09-.33-.12-.67-.15-1.04-.07-.8-.15-1.62-.8-2.32a.425.425 0 00-.17-.1c-.16-.04-.33-.06-.49-.06-.68 0-1.22.36-1.69.68l-.08.05c-.33.22-.66.45-.99.67-.84.57-1.7 1.15-2.57 1.69-.22.14-.58.22-1.05.23-.07 0-.22-.08-.36-.16l-.06-.03c.61-.88 1.52-1.45 2.48-2.04 1.09-.68 2.21-1.37 2.87-2.58.07-.13.05-.29-.04-.4-.64-.74-1.45-1.12-2.23-1.49-.73-.35-1.42-.67-1.84-1.27-.03-.35.1-.41.6-.59l4.42 1.92s.09.03.14.03c.09 0 .19-.04.25-.11.97-1.01.91-2.15.85-3.15-.02-.42-.05-.82 0-1.2v-.06c.09-.69.17-1.09.64-1.34.68.62.67 1.44.66 2.39 0 .88-.02 1.79.53 2.6.07.1.17.15.29.15 1.15 0 2.06-.53 2.94-1.05.65-.38 1.27-.75 1.94-.87.31.21.34.38.27.61-.31.59-.89.88-1.56 1.21-.74.36-1.58.77-2.05 1.7-.05.1-.05.23 0 .33.51.93 1.47 1.21 2.32 1.46.83.24 1.56.46 1.92 1.17-.15.2-.35.3-.6.3-.11 0-.23-.02-.36-.05-.43-.11-.87-.26-1.29-.39-.51-.17-1.04-.34-1.58-.47-.22-.05-.46-.11-.72-.11-.54 0-1.02.25-1.46.76-.05.06-.08.13-.09.21-.03.64.09 1.29.23 1.98.22 1.16.45 2.35 0 3.65z" fill="#ced8f1" data-name="design"/></svg>