<svg data-name="レイヤー 1" xmlns="http://www.w3.org/2000/svg" width="100.59" height="102.59" viewBox="0 0 100.59 102.59"><path d="M26.1 11.88c3.11 0 5.73 1.3 7.85 3.9 2.12 2.6 3.19 6.71 3.19 12.32 0 4.81-.79 9.72-2.37 14.72-1.58 5.01-3.8 9.34-6.67 13.01-2.28 2.89-4.68 4.98-7.18 6.27-1.46.73-3.15 1.09-5.07 1.09-3.16 0-5.8-1.3-7.93-3.9s-3.19-6.72-3.19-12.35S5.8 35.79 7.94 30.18c2.5-6.56 5.7-11.54 9.58-14.94 2.55-2.23 5.41-3.35 8.56-3.35zm.04 1.9c-1.41 0-2.84.55-4.28 1.66s-2.94 3.41-4.48 6.91c-1.54 3.5-3.02 8.01-4.43 13.52-1.82 7.22-2.73 13.36-2.73 18.44 0 2.53.55 4.42 1.64 5.67 1.09 1.25 2.42 1.88 3.97 1.88s2.75-.49 3.79-1.46c2.79-2.62 5.19-7.11 7.18-13.45 3.23-10.37 4.85-18.8 4.85-25.29 0-2.7-.55-4.68-1.64-5.96-1.09-1.28-2.38-1.91-3.86-1.91zm42.63-1.9L57.04 52.73c-.68 2.41-1.02 4.14-1.02 5.21 0 .9.31 1.58.93 2.06.62.47 2.07.8 4.36.97l-.36 1.35H42.18l.51-1.35c1.99-.05 3.3-.21 3.94-.47 1.02-.44 1.79-1.02 2.3-1.75.8-1.12 1.62-3.12 2.44-6.01l8.46-29.34c.51-1.77.79-2.79.84-3.06.07-.49.11-.96.11-1.42 0-.85-.23-1.52-.69-2-.46-.49-1.09-.73-1.89-.73-.63 0-1.62.15-2.95.44l-.47-1.31 12.28-3.43h1.75z" fill="#6e6d64"/><path d="M33.54 68.71L.3 102.29m100-102L77.98 22.84" fill="none" stroke="#6e6d64" stroke-miterlimit="10" stroke-width=".83"/></svg>