<svg data-name="レイヤー 2" xmlns="http://www.w3.org/2000/svg" width="320.48" height="70.23" viewBox="0 0 320.48 70.23"><path d="M6.45 6.4C5.23 10.35 3.3 15.01 1.3 18.23c-.39-.08-1.01-.42-1.3-.75 2-2.86 3.95-7.33 5.07-10.92-1.48.13-2.99.18-4.34.18C.47 6.4.34 5.8.37 5.34c.68.13 1.48.16 1.9.16.81 0 1.93-.03 3.15-.16.18-.62.31-1.14.44-1.79.15-.83.26-1.61.29-2.24.52.08 1.12.23 1.46.49-.18.99-.44 2.16-.78 3.38 1.61-.23 3.28-.62 4.6-1.25.18.26.29.81.29 1.17-1.43.62-3.3 1.04-5.25 1.3zm8.63 10.66c1.9.52 3.69 1.4 5.17 2.57 0 .47-.29 1.12-.62 1.35-1.27-1.22-2.83-2.11-4.47-2.65.05.62.08 1.09.08 1.33 0 1.79-1.06 3.41-3.85 3.41-2.24 0-4.76-1.09-4.76-3.41 0-2.13 2.47-3.07 4.86-3.07.78 0 1.56.08 2.34.21-.13-2.37-.34-5.43-.21-6.76.44-.16 1.01-.16 1.38-.05-.13 1.48-.16 2.18-.13 3.35 0 .7.1 2.29.21 3.72zm-1.17.94c-.83-.18-1.64-.26-2.47-.26-2.18 0-3.51.73-3.51 1.92s1.17 2.13 3.33 2.13 2.68-1.27 2.68-2.55c0-.31-.03-.75-.03-1.25zm7.46-10.5c-.1.42-.39.88-.68 1.17-1.2-1.43-3.98-3.02-5.59-3.64.1-.39.34-.83.54-1.07 1.98.81 4.65 2.39 5.72 3.54zm17.76 1.73c.68-2.6 2.5-6.11 5.67-6.11 2.52 0 5.44 2.03 5.44 8.27s-2.81 10.32-7.85 12.04c-.44-.23-.83-.73-1.07-1.17 4.63-1.14 7.54-4.79 7.54-10.79 0-4.97-1.9-7.15-4.19-7.15-2.71 0-4.34 3.25-5.02 6.6-.39 1.74-.39 3.17-.34 4.42-.36.08-1.01.05-1.4-.08-.1-1.3-.13-3.87-.1-5.1.05-2.24.39-5.41.49-6.89.03-.62.08-1.48.08-2.03.52 0 1.17.03 1.59.16-.42 2.34-.86 5.64-.86 7.83h.03zM67.6 6.27c1.17 0 2.52-.13 3.88-.31.1-.47.18-.83.23-1.12.26-1.3.54-2.68.54-3.74.49.08 1.17.21 1.59.42-.18.73-.54 2.37-.99 4.21 2.08-.36 4.03-.86 5.07-1.3.08.36.05 1.09 0 1.46-1.22.36-3.22.81-5.41 1.17-.29 1.12-.57 2.29-.86 3.35-.88 3.33-2.68 9.08-3.88 12.33-.49-.08-1.12-.26-1.46-.52 1.25-2.89 3.35-9.49 4.08-12.09.29-1.07.55-2.03.75-2.89-1.72.23-3.46.39-4.97.39-.15-.26-.31-1.01-.34-1.43.47.05.99.08 1.72.08h.03zM86.79 20.7c.03.39-.08 1.17-.29 1.51-.6.18-2.26.39-4.21.39-4 0-6.68-1.46-6.63-4.08.03-1.07.52-2.16.94-2.89.42.05.94.29 1.22.52-.36.55-.81 1.38-.83 2.24-.03 1.25.96 2.91 5.41 2.91 1.98 0 3.54-.29 4.39-.6zm-4-13.16c.99 0 3.02.1 4.29.26 0 .39-.05.99-.21 1.35-1.09-.21-2.57-.36-4.13-.36-1.17 0-2.52.08-3.74.26-.05-.31-.08-.96 0-1.33 1.3-.13 2.73-.18 3.77-.18h.03zm19.05 4.39c.49 4.78 2 8.19 3.69 8.19 1.12 0 1.79-2.31 2.34-5.93.44.16.99.44 1.27.73-.94 5.23-2.05 6.71-3.54 6.71-2.11 0-4.34-2.57-5.12-9.54-.31-3.04-.42-5.36-.6-7.31.39-.03 1.2.03 1.59.16-.05 1.12.16 5.02.36 6.99zm19.55 4.47c-.26.26-.83.52-1.35.62-.47-3.33-2.16-7.33-4.89-10.24.29-.29.78-.6 1.12-.75 2.88 3.04 4.76 7.77 5.12 10.37zM144.61.36c-.05.16-.23.26-.49.26-.31.88-.78 2.11-1.22 3.15h9.72v20.2h-1.3v-1.43h-14.98v1.61h-1.25V3.77h6.5c.47-1.14 1.01-2.7 1.3-3.77l1.72.36zm6.71 4.65h-14.98v4.68h14.98V5.01zm0 5.9h-14.98v4.58h14.98v-4.58zm-14.98 10.43h14.98v-4.63h-14.98v4.63zM174.2 1.27c-.08.16-.26.26-.57.23-1.79 4.08-4.81 7.85-8.09 10.17-.26-.23-.7-.65-1.01-.88 3.25-2.18 6.27-5.93 8.01-10.09l1.66.57zm9.8 8.97l.29-.03.73.08c0 .13-.03.31-.03.47-.47 8.48-.88 11.49-1.79 12.46-.57.62-1.17.75-2.7.75-.91 0-2.19-.05-3.43-.13-.05-.42-.18-.91-.44-1.27 1.9.16 3.69.18 4.29.18s.91-.05 1.14-.31c.78-.73 1.22-3.54 1.61-10.97h-7.85c-.7 5.07-2.13 10.27-9.12 12.71-.16-.29-.52-.78-.78-1.01 6.42-2.16 7.96-6.86 8.58-11.7h-5.98v-1.22h15.5zM181.24.65c1.77 3.69 5.2 7.8 8.09 9.72-.34.26-.81.75-1.04 1.09-2.88-2.16-6.32-6.45-8.21-10.32l1.17-.49zm29.49 4.11c0 1.95-.44 5.98-1.07 8.4-1.14 4.6-2.76 7.8-5.43 7.8-2.37 0-4.68-3.25-4.68-7.05 0-5.77 4.71-10.32 11.23-10.32 5.93 0 10.06 3.8 10.06 9.28s-3.28 8.97-8.32 9.8c-.31-.31-.65-.94-.75-1.38.83-.05 1.48-.18 2.05-.34 2.6-.7 5.64-2.91 5.64-8.11 0-4.65-3.33-8.09-8.68-8.09h-.05zm-1.38.08c-5.46.65-8.48 4.99-8.48 8.89 0 3.56 1.92 5.75 3.41 5.75 1.56 0 2.99-2.08 4.11-6.6.57-2.37 1.07-6.24.96-8.03zM234 6.27c1.17 0 2.52-.13 3.88-.31.1-.47.18-.83.23-1.12.26-1.3.54-2.68.54-3.74.49.08 1.17.21 1.59.42-.18.73-.54 2.37-.99 4.21 2.08-.36 4.03-.86 5.07-1.3.08.36.05 1.09 0 1.46-1.22.36-3.22.81-5.41 1.17-.29 1.12-.57 2.29-.86 3.35-.88 3.33-2.68 9.08-3.88 12.33-.49-.08-1.12-.26-1.46-.52 1.25-2.89 3.35-9.49 4.08-12.09.29-1.07.55-2.03.75-2.89-1.72.23-3.46.39-4.97.39-.15-.26-.31-1.01-.34-1.43.47.05.99.08 1.72.08h.03zm19.19 14.43c.03.39-.08 1.17-.29 1.51-.6.18-2.26.39-4.21.39-4 0-6.68-1.46-6.63-4.08.03-1.07.52-2.16.94-2.89.42.05.94.29 1.22.52-.36.55-.81 1.38-.83 2.24-.03 1.25.96 2.91 5.41 2.91 1.98 0 3.54-.29 4.39-.6zm-4-13.16c.99 0 3.02.1 4.29.26 0 .39-.05.99-.21 1.35-1.09-.21-2.57-.36-4.13-.36-1.17 0-2.52.08-3.74.26-.05-.31-.08-.96 0-1.33 1.3-.13 2.73-.18 3.77-.18h.03zm21.76.81c1.98-1.43 4.29-2.31 6.66-2.52.13-.7.23-1.4.31-2.13.05-.44.13-1.33.05-1.92.52 0 1.14.13 1.51.36-.1 1.17-.31 2.39-.57 3.64 4.29.08 8.17 2.57 8.17 7.62 0 6.86-5.44 8.61-8.43 8.94-.34-.23-.78-.91-.88-1.3 4.55-.1 7.93-2.6 7.93-7.67 0-3.82-2.89-6.45-6.94-6.45h-.08c-.73 3.22-1.79 6.37-2.81 8.32-.31.62-.65 1.27-1.04 1.9.44.55.91 1.09 1.46 1.64-.18.34-.65.75-.99.91-.36-.39-.78-.83-1.22-1.38-1.09 1.59-2.42 2.78-3.95 2.78-2.29 0-3.67-2.5-3.67-4.55 0-2.47 1.22-5.15 3.3-7.18-.26-.83-.52-1.64-.73-2.39-.29-1.04-.47-1.53-.68-2.11.34-.31.88-.57 1.35-.62.21 1.12.6 2.65 1.09 4.24l.16-.13zm2.34 8.92c-.42-.6-.83-1.27-1.22-2-.62-1.27-1.27-2.91-1.87-4.58-1.64 1.79-2.5 4-2.5 5.67 0 1.46.88 3.33 2.47 3.33 1.12 0 2.19-1.04 3.12-2.42zM277.4 7c-2.29.23-4.13 1.12-5.75 2.37-.16.13-.31.23-.47.36.62 1.9 1.35 3.74 1.95 4.84.26.47.57.99.91 1.51.31-.52.57-1.07.83-1.59.86-1.79 1.87-4.45 2.52-7.49zm25.4-4.09c-.75 3.54-1.17 7.67-1.14 11.54 0 1.98.18 3.8.54 4.89.03.13.11.18.16 0 .37-1.07 1.04-3.33 1.64-5.1.39.13.83.39 1.09.68-.52 1.17-2.26 6.16-2.5 7.51-.36.03-.78 0-1.14-.1-.65-1.72-1.09-4.26-1.12-7.25-.05-3.8.36-7.75.65-9.7.13-.86.31-2.18.36-2.91.52.08 1.07.21 1.46.44zm6.73 12.35c-.29.55-.62 1.33-.62 2.13 0 1.22 1.01 2.68 5.49 2.68 2.47 0 4.68-.42 5.88-.88.16.34.23 1.04.21 1.43-.91.29-3.33.78-5.98.78-4.52 0-6.89-1.35-6.89-3.8 0-1.12.42-2.16.73-2.83.47.1.94.31 1.2.49zm9.83-11.05c.1.36.1 1.01.08 1.38-2.34.39-7.67.36-9.96.1-.1-.31-.18-.96-.16-1.4 2.57.55 8.22.47 10.04-.08zM2.37 47.82h16.56v21.66h-1.3v-1.56H3.64v1.72H2.37V47.82zm15.26 1.27H3.64v8.06h13.99v-8.06zM3.64 66.67h13.99v-8.24H3.64v8.24zm44.44-.15c-.16.34-.62.86-.96 1.12-.88-1.14-2-2.39-3.51-3.72-1.56-1.3-3.25-2.5-4.55-3.17.26-.36.62-.68.94-.91.83.47 2.63 1.66 3.9 2.68 2.6-2.39 4.84-5.67 5.56-7.67-1.2.03-5.82.05-8.29.1-1.35 2.11-3.61 4.81-5.69 6.32-.39-.18-.96-.62-1.22-.96 2.19-1.25 4.47-3.98 5.67-5.82 1.14-1.79 1.95-3.51 2.37-5.28.47.13 1.12.47 1.4.68-.42 1.17-1.09 2.57-1.77 3.8 2.23 0 6.58-.03 7.7-.08.31-.03.57-.03.91-.1.29.16.62.49.78.7-1.48 3.25-3.12 5.93-6.37 9.18 1.12.96 2.44 2.26 3.15 3.15zm21.16-10.87c-.03.16-.16.23-.39.29-.1 5.93-.7 10.66-3.09 13.34-.18-.26-.57-.62-.88-.83 2.24-2.52 2.78-7.05 2.78-13.1l1.59.31zm3.69 9.02c.91-.36 1.9-.75 2.91-1.12l.21 1.01c-1.79.75-3.64 1.51-4.81 1.98 0 .21-.1.34-.26.39l-.65-1.33c.42-.13.91-.31 1.43-.52v-9.91h-6.63v-1.22h10.5v1.22h-2.71v9.49zm1.87-17.16v1.22h-8.63v-1.22h8.63zm5.93 19.14c-.08.1-.23.16-.49.18-1.17 1.2-3.59 2.6-5.72 3.41-.18-.26-.62-.7-.88-.91 2.16-.78 4.6-2.11 5.72-3.33l1.38.65zm-3.98-15.11h4.06c.23-.88.52-2 .7-2.94h-5.88v-1.17h13.49v1.17h-6.27c-.18.83-.49 1.98-.78 2.94h5.98v13.68H76.74V51.54zm10.06 4.19v-3.09h-8.87v3.09h8.87zm0 4.19v-3.15h-8.87v3.15h8.87zm0 4.21v-3.15h-8.87v3.15h8.87zm1.64 6.06c-1.01-.99-3.09-2.44-4.79-3.43l.99-.68c1.69.91 3.77 2.34 4.84 3.33l-1.04.78zm16.56-11.5l.29-.03.73.1c-.03.13-.03.31-.05.44-.36 6.99-.68 9.39-1.4 10.22-.6.68-1.17.68-2.44.68-.68 0-1.56-.03-2.45-.1-.05-.36-.18-.88-.39-1.25 1.51.13 2.88.13 3.48.13.34 0 .52-.05.73-.26.55-.57.88-2.81 1.17-8.76h-4.73l-.16 1.12-1.2-.21c.34-1.92.7-5.12.91-7.46h5.15v-4.99h-6.24v-1.2h7.46v8.19h-1.22v-.81h-4.06c-.13 1.38-.31 2.86-.47 4.19h4.89zm10.01 1.12c.44 1.51 1.04 2.91 1.79 4.16 1.46-.86 3.22-2.13 4.27-3.04l1.25.86c-.08.1-.26.16-.47.13-1.14.83-3.02 2-4.52 2.83 1.33 1.95 3.09 3.46 5.25 4.29-.31.26-.65.73-.86 1.09-3.9-1.77-6.53-5.54-7.85-10.32h-3.09v7.9c1.85-.29 3.93-.62 5.98-.96l.08.99c-3.25.65-6.61 1.27-8.74 1.64a.46.46 0 01-.31.36l-.57-1.48 2.34-.34v-8.11h-2.76v-1.17h2.73V47.12h11.7v1.17h-10.48v2.7h9.44v1.07h-9.44v2.73h9.44v1.07h-9.44v2.78h11.62v1.17h-7.36zm36.95 2.57c0 3.8-3.35 6.68-8.11 6.68-4.03 0-4.89-2.18-4.89-3.22 0-1.4 1.14-2.65 3.02-2.65 2.86 0 4.55 2.18 4.84 4.16 2.34-.83 3.82-2.6 3.82-4.97 0-2.16-1.53-4.42-5.51-4.42-4.71 0-7.59 2.91-9.57 5.62-.34-.21-.86-.62-1.04-1.01 1.61-1.95 5.17-5.8 6.92-7.64 1.74-1.82 3.79-3.9 4.52-4.76-1.46.13-5.59.68-7.85.86-.18-.39-.31-.99-.37-1.43.55.05 1.25.08 1.66.03 1.95-.13 6.89-.55 8.09-.83.21.21.52.73.62 1.07-1.07.99-3.69 3.67-5.3 5.3-1.53 1.59-2.42 2.57-3.12 3.38 1.92-1.27 4.06-1.66 5.62-1.66 4.27 0 6.66 2.26 6.66 5.51zm-6.4 5.3c-.21-1.74-1.51-3.35-3.56-3.35-.96 0-1.79.62-1.79 1.48 0 1.22 1.51 2.05 3.38 2.05.7 0 1.35-.05 1.97-.18zm26.06-16.89c.7 0 1.43-.03 2.16-.05.18-1.74.31-3.17.31-3.8.52 0 1.07.1 1.43.29-.13.65-.31 1.9-.49 3.41 2.55-.21 5.04-.62 7.2-1.22.15.36.21.91.18 1.22-1.82.47-4.71.99-7.52 1.25-.13 1.27-.26 2.65-.34 3.98 1.59-.57 3.28-.81 4.58-.81.21 0 .39 0 .6.03.21-.7.34-1.4.39-2.08.47.05 1.04.29 1.33.49-.08.49-.23 1.07-.44 1.72 3.64.65 5.56 3.22 5.56 6.47 0 3.98-2.76 7-8.16 7.67-.31-.26-.6-.88-.7-1.3 4.37-.16 7.62-2.44 7.62-6.42 0-2.73-1.69-4.86-4.68-5.36-.91 2.31-2.6 5.28-5.54 8.35.18.55.42 1.12.7 1.69-.21.29-.68.57-1.06.68-.23-.42-.42-.88-.6-1.4-1.3 1.2-2.52 1.92-3.95 1.92-1.87 0-3.07-1.72-3.07-3.77 0-1.09.39-2.26 1.04-3.17 1.17-1.61 3.04-3.15 5.15-4.19.08-1.46.23-2.99.37-4.42-.7.05-1.35.08-2 .08-.52 0-1.72-.03-2.34-.08-.11-.31-.23-1.01-.21-1.38.6.13 1.64.18 2.47.21h.03zm2.13 13.47c-.34-1.43-.55-3.12-.55-4.97 0-.49 0-1.01.03-1.56-1.4.78-3.2 2.11-4.19 3.69-.47.73-.65 1.53-.65 2.26 0 1.22.62 2.52 1.85 2.52 1.04 0 2.05-.52 3.51-1.95zm5.49-8.09c-1.82 0-3.43.36-4.76.94-.05.88-.08 1.74-.08 2.47 0 1.09.08 2.34.34 3.64 1.09-1.22 3.38-4.08 4.58-7.05h-.08zm26.88-3.77c-1.22 3.95-3.15 8.61-5.15 11.83-.39-.08-1.01-.42-1.3-.75 2-2.86 3.95-7.33 5.07-10.92-1.48.13-2.99.18-4.34.18-.26-.34-.39-.94-.36-1.4.68.13 1.48.16 1.9.16.81 0 1.93-.03 3.15-.16.18-.62.31-1.14.44-1.79.15-.83.26-1.61.29-2.24.52.08 1.12.23 1.46.49-.18.99-.44 2.16-.78 3.38 1.61-.23 3.28-.62 4.6-1.25.18.26.29.81.29 1.17-1.43.62-3.3 1.04-5.25 1.3zm8.63 10.66c1.9.52 3.69 1.4 5.17 2.57 0 .47-.29 1.12-.62 1.35-1.27-1.22-2.83-2.11-4.47-2.65.05.62.08 1.09.08 1.33 0 1.79-1.06 3.41-3.85 3.41-2.24 0-4.76-1.09-4.76-3.41 0-2.13 2.47-3.07 4.86-3.07.78 0 1.56.08 2.34.21-.13-2.37-.34-5.43-.21-6.76.44-.16 1.01-.16 1.38-.05-.13 1.48-.16 2.18-.13 3.35 0 .7.1 2.29.21 3.72zm-1.17.94c-.83-.18-1.64-.26-2.47-.26-2.18 0-3.51.73-3.51 1.92s1.17 2.13 3.33 2.13 2.68-1.27 2.68-2.55c0-.31-.03-.75-.03-1.25zm7.46-10.5c-.1.42-.39.88-.68 1.17-1.2-1.43-3.98-3.02-5.59-3.64.1-.39.34-.83.54-1.07 1.98.81 4.65 2.39 5.72 3.54zM234 52.27c1.17 0 2.52-.13 3.88-.31.1-.47.18-.83.23-1.12.26-1.3.54-2.68.54-3.74.49.08 1.17.21 1.59.42-.18.73-.54 2.37-.99 4.21 2.08-.36 4.03-.86 5.07-1.3.08.36.05 1.09 0 1.46-1.22.36-3.22.81-5.41 1.17-.29 1.12-.57 2.29-.86 3.35-.88 3.33-2.68 9.08-3.88 12.33-.49-.08-1.12-.26-1.46-.52 1.25-2.89 3.35-9.49 4.08-12.09.29-1.07.55-2.03.75-2.89-1.72.23-3.46.39-4.97.39-.15-.26-.31-1.01-.34-1.43.47.05.99.08 1.72.08h.03zm19.19 14.43c.03.39-.08 1.17-.29 1.51-.6.18-2.26.39-4.21.39-4 0-6.68-1.46-6.63-4.08.03-1.07.52-2.16.94-2.89.42.05.94.29 1.22.52-.36.55-.81 1.38-.83 2.24-.03 1.25.96 2.91 5.41 2.91 1.98 0 3.54-.29 4.39-.6zm-4-13.16c.99 0 3.02.1 4.29.26 0 .39-.05.99-.21 1.35-1.09-.21-2.57-.36-4.13-.36-1.17 0-2.52.08-3.74.26-.05-.31-.08-.96 0-1.33 1.3-.13 2.73-.18 3.77-.18h.03zm17.73 5.62c2.26-2.08 3.69-3.95 5.18-5.56.54-.55 1.2-.96 2.08-.96.7 0 1.38.23 2.18.94 1.77 1.56 2.94 2.81 4.78 4.5 2.19 1.95 4.97 4.45 7.28 6.08-.13.42-.68 1.01-1.07 1.2-1.98-1.61-4.37-3.77-6.79-6.01-1.87-1.74-3.38-3.2-4.96-4.71-.57-.52-1.01-.62-1.46-.62-.39 0-.83.21-1.25.65-1.2 1.35-4.16 4.91-6.6 6.99-.39-.18-.94-.68-1.17-1.07.78-.57 1.33-.99 1.79-1.43zm31.64 6.78c0-1.92 1.59-3.51 3.54-3.51s3.54 1.59 3.54 3.54-1.61 3.54-3.54 3.54-3.54-1.59-3.54-3.54v-.03zm.86.05c0 1.43 1.2 2.63 2.68 2.63s2.65-1.2 2.65-2.65-1.2-2.65-2.65-2.65-2.68 1.17-2.68 2.65V66z" data-name="design"/></svg>