<svg data-name="レイヤー 2" xmlns="http://www.w3.org/2000/svg" width="680.85" height="460.71" viewBox="0 0 680.85 460.71"><path d="M13.88 13.33c-2.2 3.17-5.26 4.86-8.45 5.98-.37-.18-.81-.66-1.01-1.08 3.52-.86 6.29-2.66 8.41-5.41 1.54-2.02 2.44-5.02 2.75-7.24-1.25.02-11.09.13-13.07.18-.09-.31-.2-.95-.2-1.32.68.07 1.45.11 2.27.11s9.55-.04 10.69-.09c.26-.02.51-.02.86-.09.22.13.64.51.84.77-.44 2.2-1.14 5.37-3.08 8.19zm5.21-8.27c-.15.15-.46.35-.73.44-.44-.88-1.14-2-1.74-2.71.2-.15.48-.35.68-.42.55.59 1.43 1.94 1.78 2.68zm2.05-1.14c-.15.15-.44.35-.7.44-.46-.9-1.14-1.91-1.74-2.62.2-.15.48-.35.68-.42.55.57 1.41 1.85 1.76 2.6zm17.7 11.2c-2.53 2.75-5.57 4-7.55 4.49-.31-.18-.77-.7-.92-1.08 2.24-.33 5.41-1.76 7.53-4.07 1.43-1.52 2.38-3.21 2.99-5.41-1.14.02-11.93.18-13.75.24-.11-.31-.2-.86-.18-1.28.73.07 1.39.09 2.2.11.9.02 10.41-.09 11.62-.15.31-.02.53-.04.81-.09.2.09.59.33.77.53-.7 2.22-1.63 4.64-3.52 6.71zM30.96 2.97c1.3.04 6.67-.04 7.77-.09.73-.02 1.25-.07 1.74-.13.09.29.15.86.13 1.23-.59 0-8.03.07-9.37.09-.35 0-1.32.04-1.89.04a5.62 5.62 0 01-.18-1.23c.7.04 1.08.07 1.8.09zm25.51 3.59c-.07.35-.44.9-.68 1.12-1.25-1.08-3.65-2.49-5.66-3.37.11-.29.42-.81.59-1.03 1.69.68 4.51 2.22 5.74 3.28zm.84 8.8c3.04-1.76 6.21-4.8 7.86-8.32.33.2.75.68.9.97-1.8 3.23-4.67 6.25-8.12 8.32-2.4 1.43-4.69 2.22-6.67 2.79-.33-.33-.64-.84-.79-1.23 2.22-.35 4.8-1.32 6.82-2.53zM77.6 8.69c3.06.84 5.83 1.89 8.01 2.95-.02.37-.26.95-.48 1.19-2.27-1.23-5.28-2.38-7.55-2.97-.02 3.61-.04 7.26-.04 7.72 0 .64.02 1.65.07 2.22-.33.04-1.1.02-1.43-.07.07-.62.11-1.34.13-2.16.07-1.17.18-12.78.18-13.51-.02-.53-.02-1.21-.11-1.89.37-.02 1.03.04 1.32.13-.02.48-.07 3.3-.09 6.38zm6.67-2.29c-.46-.9-1.25-2.18-1.8-2.88.18-.18.51-.37.7-.42.53.59 1.5 2.09 1.85 2.86a1.7 1.7 0 01-.75.44zm3.23-1.58c-.15.15-.46.35-.75.44-.44-.9-1.23-2.09-1.8-2.82.2-.15.51-.37.7-.42.55.59 1.5 2.02 1.85 2.79zm24.81 6.64v9.22h-1.08v-.95h-10.19v.9h-1.06v-7.57a27.31 27.31 0 01-5.9 2.73c-.13-.29-.4-.73-.62-.95 2.86-.84 5.94-2.4 8.6-4.55-.9-1.06-2.42-2.4-3.78-3.32l.81-.64c1.34.9 2.9 2.2 3.83 3.23 1.94-1.69 3.59-3.74 4.66-6.01h-7.44a25.672 25.672 0 01-5.76 4.91c-.18-.26-.53-.62-.77-.79 3.61-2.09 6.23-5.08 7.57-7.44l1.5.26c-.04.15-.2.24-.46.24-.35.57-.77 1.19-1.25 1.8h7.28l.18-.07.79.42a.51.51 0 01-.24.18c-1.43 3.37-3.87 6.18-6.69 8.38h10.01zm-11.27 7.26h10.19v-6.27h-10.19v6.27zm21.28-2.06V0h7.31v.9h-6.38v15.75h-.92zm27.3-1.54c-2.53 2.75-5.57 4-7.55 4.49-.31-.18-.77-.7-.92-1.08 2.24-.33 5.41-1.76 7.53-4.07 1.43-1.52 2.38-3.21 2.99-5.41-1.14.02-11.93.18-13.75.24-.11-.31-.2-.86-.18-1.28.73.07 1.39.09 2.2.11.9.02 10.41-.09 11.62-.15.31-.02.53-.04.81-.09.2.09.59.33.77.53-.7 2.22-1.63 4.64-3.52 6.71zm-7.88-12.15c1.3.04 6.67-.04 7.77-.09.73-.02 1.25-.07 1.74-.13.09.29.15.86.13 1.23-.59 0-8.03.07-9.37.09-.35 0-1.32.04-1.89.04a5.62 5.62 0 01-.18-1.23c.7.04 1.08.07 1.8.09zm32.07 15.56c-.07.37-.37.84-.64 1.06-3.21-1.72-7.7-2.91-10.56-3.3.04-.33.26-.88.48-1.1 3.65.64 7.55 1.74 10.71 3.34zm-2.18-8.01c-.09.35-.33.79-.57 1.06-2.27-.9-5.68-1.83-8.23-2.27.07-.38.22-.81.42-1.08 2.79.53 6.67 1.58 8.38 2.29zm1.67-5.94c-.09.37-.29.79-.53 1.08-2.27-.84-5.85-1.74-8.29-2.09.07-.4.22-.81.42-1.08 2.79.46 6.67 1.45 8.41 2.09zm23.03 12.76c.42 0 .92-.02 1.36-.04.07.24.09.92.09 1.17-.37-.02-.84-.02-1.32-.02-.68-.02-9.97.04-11.09.07-.35.02-1.08.02-1.58.02-.09-.29-.15-.92-.15-1.17.55.04.92.04 1.54.07.7.02 4.58 0 7.59-.04.29-1.8.79-6.05.84-7.26-2.84 0-5.63.04-6.18.04-.31 0-1.01.02-1.52.04-.09-.31-.13-.97-.13-1.19.57.04.81.07 1.41.09.62.02 3.3-.02 6.07-.04.31 0 .68-.07.86-.11.24.09.57.29.75.44-.09 1.25-.64 5.87-.95 7.99l2.42-.04zm11.02.11c.07-1.21.11-8.43.11-12.17 0-.92-.07-1.69-.11-1.98.26-.02 1.08.07 1.41.18-.15 1.85-.18 13.16-.18 14.13 3.61-.97 9.35-3.63 12.76-8.45.31.22.59.73.68 1.1-2.51 3.3-6.71 6.42-12.96 8.43-.35.13-.62.2-.99.35-.26-.13-.66-.44-.84-.68.07-.29.09-.55.11-.9zm24.74-15.54c2.29 0 4.05 1.74 4.05 3.94s-1.76 4-4.05 4-4.03-1.76-4.03-4 1.83-3.94 4.03-3.94zm.02 7.22c1.78 0 3.12-1.45 3.12-3.26s-1.34-3.26-3.15-3.26-3.17 1.47-3.17 3.23c0 1.96 1.54 3.28 3.19 3.28zm-1.5-1.14v-4.1c.4-.07.86-.13 1.43-.13 1.21 0 1.74.48 1.74 1.19 0 .51-.37.81-.81.95v.07c.37.13.57.46.68 1.01.13.62.22.86.33 1.01h-.84c-.13-.15-.22-.51-.33-1.06-.15-.66-.53-.66-1.41-.66v1.72h-.79zm.79-2.31c.75 0 1.54 0 1.54-.64 0-.37-.26-.66-.97-.66-.29 0-.46.02-.57.04v1.25zm18.12-1.7v16.63h-7.28v-.9h6.38V3.98h.9zm18.74.29c0 1.65-.37 5.06-.9 7.11-.97 3.89-2.33 6.6-4.6 6.6-2 0-3.96-2.75-3.96-5.96 0-4.88 3.98-8.74 9.51-8.74 5.02 0 8.51 3.21 8.51 7.86s-2.77 7.59-7.04 8.29c-.26-.26-.55-.79-.64-1.17.7-.04 1.25-.15 1.74-.29 2.2-.59 4.77-2.46 4.77-6.87 0-3.94-2.82-6.84-7.35-6.84h-.04zm-1.17.07c-4.62.55-7.17 4.22-7.17 7.53 0 3.01 1.63 4.86 2.88 4.86 1.32 0 2.53-1.76 3.48-5.59.48-2 .9-5.28.81-6.8zm15.85.68v-.95h8.01v.95h-8.01zm7.24 2.09v.92h-6.21v-.92h6.21zm-6.21 3.94v-.92h6.21v.92h-6.21zm6.27 2.09v6.36h-5.3v1.12h-.97v-7.48h6.27zm-.13-11.99v.92h-6.01v-.92h6.01zm-.86 12.94h-4.31v4.47h4.31v-4.47zm12.01-4.38h2.29v.99h-12.48v-.99h3.12c.22-1.06.48-2.35.7-3.72h-2.6v-.97h2.77l.44-2.79h-3.65v-.99h10.87v.99h-6.14c-.13.84-.29 1.8-.46 2.79h5.13v4.69zm-8.38 10.96v-7.92h9.11v7.79h-1.06v-.95h-7.02v1.08h-1.03zm8.05-6.91h-7.02v4.82h7.02v-4.82zm-.73-7.77h-4.22c-.24 1.34-.48 2.66-.7 3.72h4.93V5.99zm8.94.57c1.39.59 3.04 1.58 3.85 2.33l-.62.88c-.81-.77-2.44-1.8-3.85-2.44l.62-.77zm-.04 13.09c1.03-1.74 2.53-4.75 3.56-7.24l.86.62c-.99 2.35-2.35 5.19-3.3 6.87.07.09.09.2.09.29 0 .07-.02.15-.07.22l-1.14-.75zm1.19-19.1c1.34.68 2.99 1.74 3.76 2.55-.46.57-.55.7-.66.86-.77-.84-2.38-1.94-3.74-2.64l.64-.77zm17.16 12.12h-4.31v6.67c0 .64-.13.95-.64 1.12s-1.43.18-2.99.15c-.04-.26-.2-.66-.33-.95.62.02 1.19.02 1.63.02q1.3 0 1.3-.35v-6.67h-4v-7.5h3.54c.24-.86.48-1.98.64-2.82h-5.81v5.1c0 3.85-.35 9.24-2.99 13-.18-.18-.64-.46-.88-.55 2.57-3.67 2.82-8.76 2.82-12.45v-6.1h13.38v1.01h-5.76l.7.2c-.07.15-.2.22-.44.22-.13.66-.4 1.61-.66 2.4h4.82v7.5zm-7.2 1.87c-.04.13-.2.2-.42.2-.84 1.63-2.13 3.45-3.34 4.58-.18-.15-.55-.44-.77-.59 1.17-1.08 2.44-2.86 3.26-4.62l1.28.44zm-1.17-8.43v2.33h7.35V6.11h-7.35zm0 3.24v2.38h7.35V9.35h-7.35zm9.02 9.83c-.53-1.28-1.85-3.26-3.08-4.67l.88-.46c1.25 1.43 2.6 3.34 3.17 4.62l-.97.51zm11.62-5.98c-.62 1.32-2.09 5.13-2.4 6.34-.26.02-.64.02-.95-.04-.35-1.25-.64-3.83-.64-6.62 0-3.37.4-6.62.66-8.47.11-.73.22-1.85.26-2.44.4.04.99.18 1.28.37-.59 2.97-1.08 6.49-1.1 9.97 0 1.96.11 3.63.24 4.49.02.15.13.2.18.02.31-.81.99-2.75 1.58-4.22.33.13.64.33.88.62zm9.77-5.57c0 2.99.15 4.93.24 6.87 1.83.53 3.3 1.41 4.2 2.16-.04.35-.22.88-.46 1.17a10.124 10.124 0 00-3.72-2.22v.48c0 1.28-.44 3.19-3.37 3.19s-4.16-1.32-4.16-2.73c0-1.3.84-2.57 4-2.57.84 0 1.65.09 2.4.24-.07-1.87-.2-4.49-.2-6.56v-.68c-2.05.15-4.07.15-5.35.09-.13-.29-.24-.81-.24-1.19 1.58.22 3.67.22 5.59.07.02-1.67.04-3.28.04-3.92.4 0 .95.07 1.23.18-.13 1.12-.18 2.4-.2 3.65 1.56-.15 2.93-.42 3.57-.68.09.31.04.86-.02 1.12-.99.29-2.24.48-3.56.59v.75zm-.81 7.63c-.92-.22-1.8-.33-2.53-.33-1.87 0-2.88.53-2.88 1.52 0 1.08 1.12 1.76 2.75 1.76 2.2 0 2.66-.92 2.66-2.53v-.42zm14.06 1.4V0h7.31v.9h-6.38v15.75h-.92zm22.79 2.15h-8.58V2.11h1.36v15.56h7.22v1.14zm14.27-2.84c0 .95.02 1.96.15 2.84h-1.25l-.15-1.65h-.07c-.57.95-1.87 1.91-3.67 1.91-2.33 0-3.48-1.67-3.48-3.3 0-2.79 2.44-4.4 7.11-4.36 0-1.17 0-3.7-2.93-3.7-1.01 0-2.09.29-2.93.88l-.4-.97c1.03-.68 2.33-1.01 3.5-1.01 3.37 0 4.11 2.46 4.11 4.71v4.64zm-1.34-3.48c-2.49 0-5.7.31-5.7 3.08 0 1.65 1.08 2.4 2.27 2.4 2.55 0 3.43-2.13 3.43-3.01V12.5zm30.99 6.32h-1.43l-1.98-5.72h-6.32l-1.96 5.72h-1.39l5.83-16.7h1.41l5.83 16.7zm-3.76-6.82L423.8 6.6c-.37-1.17-.64-2.13-.88-3.1h-.07c-.22.99-.51 1.96-.86 3.01l-1.91 5.48h5.61zm26.52 6.82h-1.34v-6.93c0-2.53-.97-4.12-2.95-4.12-1.72 0-3.15 1.65-3.15 3.46v7.59h-1.34v-7.44c0-2.07-.95-3.61-2.79-3.61-1.69 0-3.3 1.67-3.3 3.72v7.33H436v-9c0-1.14-.04-1.98-.09-2.9h1.23l.09 2.05h.04c.73-1.3 1.85-2.33 3.78-2.33 1.61 0 2.82 1.06 3.32 2.53h.04c.62-1.23 1.76-2.53 3.96-2.53 1.25 0 3.83.75 3.83 5.1v7.08zm16.81-2.99c0 1.12.04 2.09.11 2.99h-1.25l-.09-2.02h-.07c-.57 1.03-1.85 2.29-3.94 2.29-1.61 0-3.96-.84-3.96-5.17v-7h1.36v6.71c0 2.51.75 4.29 2.97 4.29 1.56 0 3.5-1.28 3.5-3.59V6.88h1.36v8.93zm9.2 2.99h-1.36V1.23h1.36v17.58zm16.3-.5c-.53.29-1.74.75-3.7.75-3.43 0-5.52-2.49-5.52-5.99 0-3.89 2.2-6.45 5.28-6.45 3.79 0 4.58 3.56 4.6 5.41 0 .33-.02.53-.04.79h-8.49c0 3.7 2.02 5.13 4.36 5.13 1.63 0 2.51-.33 3.19-.66l.33 1.01zm-.73-6.54c.02-1.69-.68-4.05-3.34-4.05-2.46 0-3.54 2.27-3.74 4.05h7.08zm8.8-7.04l1.34-.48v2.66h3.26v1.08h-3.26v7.5c0 1.52.46 2.44 1.69 2.44.59 0 .99-.09 1.3-.2l.13 1.06c-.37.15-.92.26-1.65.26-2.46 0-2.82-1.94-2.82-3.74V7.98h-1.94V6.9h1.94V4.72zm12.39 0l1.34-.48v2.66h3.26v1.08h-3.26v7.5c0 1.52.46 2.44 1.69 2.44.59 0 .99-.09 1.3-.2l.13 1.06c-.37.15-.92.26-1.65.26-2.46 0-2.82-1.94-2.82-3.74V7.98h-1.94V6.9h1.94V4.72zm19.15 13.58c-.53.29-1.74.75-3.7.75-3.43 0-5.52-2.49-5.52-5.99 0-3.89 2.2-6.45 5.28-6.45 3.79 0 4.58 3.56 4.6 5.41 0 .33-.02.53-.04.79h-8.49c0 3.7 2.02 5.13 4.36 5.13 1.63 0 2.51-.33 3.19-.66l.33 1.01zm-.73-6.54c.02-1.69-.68-4.05-3.34-4.05-2.46 0-3.54 2.27-3.74 4.05h7.08zm14.87-7.79v16.63h-7.28v-.9h6.38V3.98h.9zM14.85 53.09c-2.2 3.17-5.52 5.1-8.71 6.23-.37-.18-.81-.64-1.01-1.06 3.54-.86 6.56-2.9 8.67-5.68 1.61-2.09 2.6-5.04 2.95-7.35-1.25.02-11.73.13-13.69.18-.11-.33-.22-.92-.22-1.3.68.07 1.45.11 2.27.11s10.25-.04 11.4-.09c.26-.02.51-.02.86-.09.2.09.62.4.77.59-.48 2.42-1.25 5.52-3.28 8.45zm23.23 2.03c-2.53 2.75-5.57 4-7.55 4.49-.31-.18-.77-.7-.92-1.08 2.24-.33 5.41-1.76 7.52-4.07 1.43-1.52 2.38-3.21 2.99-5.41-1.14.02-11.93.18-13.75.24-.11-.31-.2-.86-.18-1.28.73.07 1.39.09 2.2.11.9.02 10.41-.09 11.62-.15.31-.02.53-.04.81-.09.2.09.59.33.77.53-.7 2.22-1.63 4.64-3.52 6.71zM30.2 42.97c1.3.04 6.67-.04 7.77-.09.73-.02 1.25-.07 1.74-.13.09.29.15.86.13 1.23-.59 0-8.03.07-9.37.09-.35 0-1.32.04-1.89.04a5.62 5.62 0 01-.18-1.23c.7.04 1.08.07 1.8.09zm25.51 3.59c-.07.35-.44.9-.68 1.12-1.25-1.08-3.65-2.49-5.65-3.37.11-.29.42-.81.59-1.03 1.69.68 4.51 2.22 5.74 3.28zm.84 8.8c3.04-1.76 6.21-4.8 7.86-8.32.33.2.75.68.9.97-1.8 3.23-4.66 6.25-8.12 8.32-2.4 1.43-4.69 2.22-6.67 2.79-.33-.33-.64-.84-.79-1.23 2.22-.35 4.8-1.32 6.82-2.53zm31.62 2.73c-.15.31-.55.7-.9.9-1.21-1.76-3.61-4.49-6.36-6.71-2.68 2.88-6.03 5.19-9.11 6.58-.29-.2-.77-.75-.97-1.1 3.98-1.39 7.66-4.4 9.66-6.69 1.74-2 3.23-4.25 3.92-6.16-1.28.04-9.83.2-11.49.29-.11-.31-.2-.84-.22-1.25.62.07 1.28.09 2 .09s8.74-.11 9.77-.18c.31-.02.53-.07.79-.11.24.13.55.42.68.62-.66 1.74-2.31 4.73-4.33 7.13 2.09 1.61 5.13 4.62 6.56 6.6zm6.29-13.07v-.95h8.01v.95h-8.01zm7.24 2.09v.92h-6.21v-.92h6.21zm-6.21 3.94v-.92h6.21v.92h-6.21zm6.27 2.09v6.36h-5.3v1.12h-.97v-7.48h6.27zm-.13-11.99v.92h-6.01v-.92h6.01zm-.86 12.94h-4.31v4.47h4.31v-4.47zm12.01-4.38h2.29v.99h-12.48v-.99h3.12c.22-1.06.48-2.35.7-3.72h-2.6v-.97h2.77l.44-2.79h-3.65v-.99h10.87v.99h-6.14c-.13.84-.29 1.8-.46 2.79h5.13v4.69zm-8.38 10.96v-7.92h9.11v7.79h-1.06v-.95h-7.02v1.08h-1.03zm8.05-6.91h-7.02v4.82h7.02v-4.82zm-.73-7.77h-4.22c-.24 1.34-.48 2.66-.7 3.72h4.93v-3.72zm10.77-1.3c1.5-.15 12.89-1.8 15.29-1.8.15.26.24.77.24 1.14-.42-.04-2.18-.09-3.63.4-3.87 1.32-5.52 4.95-5.52 7.63 0 5.1 4.14 6.16 7.11 6.16-.02.44-.24.95-.48 1.21-3.19-.04-7.77-1.74-7.77-7.06 0-4.11 2.6-6.91 4.95-8.03-1.98.15-9.46 1.41-11.77 1.72-.26-.26-.48-.84-.55-1.21.9-.02 1.74-.11 2.13-.15zm14.35 4.93c-.15.18-.48.35-.75.42-.42-.92-1.03-2.07-1.56-2.79.18-.15.53-.33.73-.4.48.62 1.28 2.02 1.58 2.77zm2.49-1.01c-.18.15-.48.33-.77.42-.4-.92-1.03-1.98-1.56-2.73.2-.13.51-.33.73-.37.51.62 1.28 1.91 1.61 2.68zm23.08 5.96c0 2.73-1.76 4.58-4.31 4.58-1.08 0-2.09-.13-3.1-.46-.15-.35-.18-.9-.11-1.25.9.4 2.09.62 3.06.62 1.76 0 3.37-1.01 3.37-3.48s-2.22-3.48-3.94-3.48c-2.05 0-4.14.59-5.72 1.3.02 1.72.07 3.52.09 4.69.02 1.87-.68 2.4-1.54 2.4-1.54 0-4.05-1.41-4.05-3.01 0-1.94 2.75-3.78 4.47-4.62 0-.92-.02-1.8-.02-2.49 0-.75.02-1.52.02-2.25-1.23.2-2.97.42-4.2.48-.2-.31-.31-.79-.33-1.12 1.8-.07 3.32-.22 4.55-.4.07-2.02.13-3.74.02-4.51.42-.02 1.06.04 1.32.15-.09 1.03-.2 2.57-.26 4.2 1.52-.26 3.63-.73 4.33-.97.09.29.07.77.02 1.1-.64.15-2.79.62-4.4.88-.02 1.03-.04 2.05-.04 2.95v1.5c1.78-.73 3.94-1.23 5.85-1.23 2.73 0 4.93 1.67 4.93 4.42zm-11.77-1.67c-1.43.77-3.41 2.13-3.41 3.48 0 1.17 1.78 1.94 2.57 1.94.53 0 .86-.15.88-1.25.02-.97-.02-2.57-.04-4.16zm13.95-5.68c-.09.37-.37.84-.55 1.03-.9-.84-3.41-2.31-5.06-2.93.11-.33.33-.66.53-.92 1.65.7 4.18 2.11 5.08 2.82zm25.87 2.04v1.06h-6.05v8.74c0 .86-.26 1.23-.9 1.41-.62.18-1.34.18-4.07.18-.07-.29-.24-.75-.42-1.06.88.02 1.69.04 2.35.04 1.8 0 1.94 0 1.94-.57v-8.74h-12.72v-1.06h12.72v-3.78l1.47.09c-.02.13-.11.24-.37.26v3.43h6.05zm-18.04-5.15v3.34h-1.08v-4.38h8.58v-2.82l1.5.11c-.02.15-.13.24-.4.26v2.44h8.67v4.38h-1.1V44.1h-16.17zm5 13.09c-.68-1.34-2.29-3.39-3.76-4.84l.81-.55c1.52 1.43 3.15 3.43 3.85 4.77l-.9.62zm22.88-9.15c.57-2.2 2.11-5.17 4.8-5.17 2.13 0 4.6 1.72 4.6 7s-2.38 8.74-6.64 10.19c-.37-.2-.7-.62-.9-.99 3.92-.97 6.38-4.05 6.38-9.13 0-4.2-1.61-6.05-3.54-6.05-2.29 0-3.67 2.75-4.25 5.59-.33 1.47-.33 2.68-.29 3.74-.31.07-.86.04-1.19-.07-.09-1.1-.11-3.28-.09-4.31.04-1.89.33-4.58.42-5.83.02-.53.07-1.25.07-1.72.44 0 .99.02 1.34.13-.35 1.98-.73 4.78-.73 6.62h.02zm27.81-3.78c0 1.65-.37 5.06-.9 7.11-.97 3.89-2.33 6.6-4.6 6.6-2 0-3.96-2.75-3.96-5.96 0-4.88 3.98-8.74 9.5-8.74 5.02 0 8.52 3.21 8.52 7.86s-2.77 7.59-7.04 8.29c-.26-.26-.55-.79-.64-1.17.7-.04 1.25-.15 1.74-.29 2.2-.59 4.78-2.46 4.78-6.87 0-3.94-2.82-6.84-7.35-6.84h-.04zm-1.17.07c-4.62.55-7.17 4.22-7.17 7.53 0 3.01 1.63 4.86 2.88 4.86 1.32 0 2.53-1.76 3.48-5.59.48-2 .9-5.28.81-6.8zm20.31 11.81c-.62 1.58-1.63 3.1-3.43 3.94l-.81-.62c1.69-.77 2.79-2.18 3.34-3.65l.9.33zm15.71-9.79v.92h-19.89v-.92h6.12c-.2-.79-.68-1.83-1.17-2.64l.95-.31c.55.84 1.06 1.98 1.28 2.73l-.59.22h6.27l-.26-.11c.46-.79 1.06-2.09 1.39-2.95h-12.65v-.95h8.05v-2.09l1.45.11c-.02.13-.13.24-.4.26v1.72h8.16v.95h-4.49l1.19.44c-.07.13-.2.18-.42.18-.31.68-.84 1.69-1.32 2.44h6.34zm-3.34 2.18v5.98h-13.18v-5.98h13.18zm-1.06 2.53V49.4h-11.09v1.67h11.09zm0 2.57v-1.72h-11.09v1.72h11.09zm-8.71 5.26c0 .51.2.57 1.32.57h4.16c.97 0 1.12-.26 1.21-2.51.24.18.66.33.95.4-.11 2.51-.48 3.06-2.05 3.06h-4.27c-1.87 0-2.38-.24-2.38-1.52V56l1.43.11c-.02.13-.13.24-.37.26v2.53zm1.21-4.38c1.47.48 3.26 1.39 4.18 2.11-.44.46-.55.62-.66.77-.88-.75-2.64-1.65-4.14-2.2l.62-.68zm11.16 5.5c-.84-1.14-2.68-2.68-4.31-3.72l.79-.57c1.63.97 3.5 2.51 4.36 3.65l-.84.64zm13.46-6.18h-5.1v2.46h-1.03V42.7h6.14v11.13zm-1.06-10.1h-4.05v9.07h4.05v-9.07zm14.28 7.15h-5.28c1.3 3.01 3.54 5.98 5.76 7.37-.26.22-.59.57-.77.86-2.22-1.56-4.4-4.66-5.72-7.81v9.35h-1.08v-9.02c-1.67 3.3-4.38 6.21-7.19 7.7-.15-.26-.48-.64-.73-.84 2.88-1.39 5.68-4.38 7.24-7.61h-4.91v-1.03h5.59v-4.38h-4.93v-1.03h4.93v-3.94l1.45.11c-.02.13-.11.24-.38.26v3.56h5.19v1.03h-5.19v4.38h6.01v1.03zm8.4-6.2c1.5-.15 12.89-1.8 15.29-1.8.15.26.24.77.24 1.14-.42-.04-2.18-.09-3.63.4-3.87 1.32-5.52 4.95-5.52 7.63 0 5.1 4.14 6.16 7.11 6.16-.02.44-.24.95-.48 1.21-3.19-.04-7.77-1.74-7.77-7.06 0-4.11 2.6-6.91 4.95-8.03-1.98.15-9.46 1.41-11.77 1.72-.26-.26-.48-.84-.55-1.21.9-.02 1.74-.11 2.13-.15zm14.35 4.93c-.15.18-.48.35-.75.42-.42-.92-1.03-2.07-1.56-2.79.18-.15.53-.33.73-.4.48.62 1.28 2.02 1.58 2.77zm2.49-1.01c-.18.15-.48.33-.77.42-.4-.92-1.03-1.98-1.56-2.73.2-.13.51-.33.73-.37.51.62 1.28 1.91 1.61 2.68zm15.97-5.51c-.02-.75-.04-1.28-.13-1.83.37-.02.95 0 1.25.11-.02.46-.04 1.65-.04 2.99 3.23-.09 6.31-.15 7.26-.13.09.31.11.84.07 1.12-1.39-.11-4.25-.09-7.33 0 0 1.21 0 2.44.02 3.37.59.84.86 2.07.86 3.56 0 3.26-1.63 6.47-5.08 7.79-.29-.13-.77-.57-.92-.88 2.2-.55 4.29-2.35 4.82-5.33-.55.75-1.34 1.17-2.35 1.17-1.8 0-3.26-1.58-3.26-3.81s1.47-3.72 3.3-3.72c.64 0 1.17.11 1.61.33 0-.64-.02-1.54-.02-2.46-4 .11-8.14.29-9.7.35-.13-.29-.26-.86-.24-1.25.7.07 2.11.09 2.99.07 1.28 0 4.07-.09 6.93-.15l-.02-1.3zm.7 7.5c-.33-1.45-1.12-2.09-2.31-2.09s-2.24 1.12-2.24 2.84c0 1.45.99 2.66 2.29 2.66 1.69 0 2.4-1.45 2.27-3.41zm15.22 6.52c0-1.63 1.34-2.97 2.99-2.97s2.99 1.34 2.99 2.99-1.36 2.99-2.99 2.99-2.99-1.34-2.99-2.99v-.02zm.73.04c0 1.21 1.01 2.22 2.27 2.22s2.25-1.01 2.25-2.24-1.01-2.25-2.25-2.25-2.27.99-2.27 2.25v.02zm-330.5 67.75c-.84 0-10.58.04-12.54.09-.07-.29-.13-.92-.13-1.23.46.04 1.25.11 1.76.11 1.12.02 10.96.02 12.08-.09-.07.86-.11 13.75.02 15.53-.33.04-.9.04-1.23 0v-1.23c-2.57-.02-9.68 0-10.67 0s-1.76.04-2.22.07c-.09-.33-.13-.92-.13-1.28 1.39.11 10.3.13 13.03.11l.02-5.81c-2.35-.02-8.71 0-9.66 0s-1.69.04-2.24.07c-.04-.29-.13-.9-.13-1.25.35.02 1.36.09 2.42.09 3.01.07 7.79.04 9.62.02l.02-5.19zm12.29 5.32c4.91.02 13.53-.07 14.72-.09.09.31.13.99.09 1.3-2.68-.15-15.18 0-17.54-.02-.07-.33-.13-.95-.11-1.32.37.04 1.5.13 2.84.13zm35.87-5.83s.46 0 1.23-.04c-.04 1.01-.04 1.54-.04 1.54-.04 2.99-.04 8.98 0 11.51 0 .44.02.84.02 1.1-.33.02-.88.02-1.19 0 0 0 .02-.29.02-1.1v-.66c-2.18-.04-9.15-.07-11.53-.02v1.78c-.35.02-.88.02-1.23 0 .02-.35.04-.75.07-1.32.07-3.04.02-8.98-.02-11.66 0 0 0-.55-.02-1.17 1.03.04 1.56.02 1.56.02v.02c1.01.02 8.08.09 11.13.02v-.02zm.04 11.24l.02-10.14c-.84 0-9.57-.04-11.57 0l.02 10.14h11.53zm13.31-3.49c-.13.15-.75.44-1.01.53-.42-.95-1.45-2.9-1.87-3.48.2-.15.75-.42.99-.53.35.57 1.43 2.49 1.89 3.48zm10.17-3.89c-.42 2.2-1.41 4.75-2.82 6.73-1.89 2.66-4.55 4.07-6.27 4.73-.29-.18-.7-.62-.9-.95 2.07-.55 4.58-2.07 6.27-4.44 1.41-1.98 2.27-4.29 2.57-6.62.33.09.9.35 1.14.55zm-5.99 2.29c-.15.13-.73.4-1.03.46-.35-.99-1.08-2.64-1.58-3.48.2-.13.77-.37 1.03-.44.4.68 1.21 2.51 1.58 3.45zm17.97-5.2c.46.09.92.26 1.28.48-.44 1.87-1.12 4.33-2.09 6.4-1.17 2.49-2.29 4.42-3.65 5.76-.33-.11-.9-.35-1.23-.68 1.85-1.61 2.93-3.63 3.83-5.54.81-1.72 1.61-4.18 1.87-6.42zm6.8.51c.26-.2.75-.42 1.12-.46.88 1.32 1.89 2.99 2.9 5.35 1.25 2.82 1.91 4.67 2.35 6.4-.22.26-.77.51-1.23.57-.31-1.47-1.08-4.16-2.2-6.56-.95-2.09-2.07-4.22-2.95-5.3zm3.52-.7c0-1.21.97-2.18 2.2-2.18s2.2.97 2.2 2.2-.97 2.22-2.2 2.22-2.2-.99-2.2-2.22v-.02zm.73.04c0 .79.66 1.45 1.47 1.45s1.47-.66 1.47-1.47-.66-1.47-1.47-1.47-1.47.68-1.47 1.47v.02zm12.16-.51c1.5-.15 12.89-1.8 15.29-1.8.15.26.24.77.24 1.14-.42-.04-2.18-.09-3.63.4-3.87 1.32-5.52 4.95-5.52 7.63 0 5.1 4.14 6.16 7.11 6.16-.02.44-.24.95-.48 1.21-3.19-.04-7.77-1.74-7.77-7.06 0-4.11 2.6-6.91 4.95-8.03-1.98.15-9.46 1.41-11.77 1.72-.26-.26-.48-.84-.55-1.21.9-.02 1.74-.11 2.13-.15zm14.35 4.93c-.15.18-.48.35-.75.42-.42-.92-1.03-2.07-1.56-2.79.18-.15.53-.33.73-.4.48.62 1.28 2.02 1.58 2.77zm2.49-1.01c-.18.15-.48.33-.77.42-.4-.92-1.03-1.98-1.56-2.73.2-.13.51-.33.73-.37.51.62 1.28 1.91 1.61 2.68zm11.07 4.59c-.62 1.32-2.09 5.13-2.4 6.34-.26.02-.64.02-.95-.04-.35-1.25-.64-3.83-.64-6.62 0-3.37.4-6.62.66-8.47.11-.73.22-1.85.26-2.44.4.04.99.18 1.28.37-.59 2.97-1.08 6.49-1.1 9.97 0 1.96.11 3.63.24 4.49.02.15.13.2.18.02.31-.81.99-2.75 1.58-4.22.33.13.64.33.88.62zm9.77-5.57c0 2.99.15 4.93.24 6.87 1.83.53 3.3 1.41 4.2 2.16-.04.35-.22.88-.46 1.17a10.124 10.124 0 00-3.72-2.22v.48c0 1.28-.44 3.19-3.37 3.19s-4.16-1.32-4.16-2.73c0-1.3.84-2.57 4-2.57.84 0 1.65.09 2.4.24-.07-1.87-.2-4.49-.2-6.56v-.68c-2.05.15-4.07.15-5.35.09-.13-.29-.24-.81-.24-1.19 1.58.22 3.67.22 5.59.07.02-1.67.04-3.28.04-3.92.4 0 .95.07 1.23.18-.13 1.12-.18 2.4-.2 3.65 1.56-.15 2.93-.42 3.57-.68.09.31.04.86-.02 1.12-.99.29-2.24.48-3.56.59v.75zm-.81 7.63c-.92-.22-1.8-.33-2.53-.33-1.87 0-2.88.53-2.88 1.52 0 1.08 1.12 1.76 2.75 1.76 2.2 0 2.66-.92 2.66-2.53v-.42zm31.11-9.72h-9.42v5.3h6.82v9.75h-1.08v-1.19h-12.37v1.28H174v-9.83h6.58v-5.3h-9.29v-1.06h9.29v-4.22l1.5.11c-.02.13-.13.24-.4.26v3.85h9.42v1.06zm-3.67 12.83v-6.49h-12.37v6.49h12.37zm19.55-16.19c-1.52 1.96-4.67 4.97-6.14 6.38-.59.55-1.17 1.12-1.17 1.63 0 .84 1.43 2.07 3.37 3.89 2.16 2.02 3.81 4.16 4.55 5.3-.2.33-.57.68-1.03.88-1.03-1.8-2.66-3.7-4.36-5.39-2.35-2.31-3.85-3.52-3.85-4.64 0-.64.55-1.3 1.41-2.11 1.45-1.43 5.15-4.84 6.32-6.93.37.24.75.64.9.99zm22.7 7.59c0 2.46-.73 6.36-2.27 8.18-.62.75-1.23.95-1.89.95-1.06 0-2.49-.55-3.76-1.34-.04-.37.02-.95.13-1.23 1.21.84 2.62 1.39 3.41 1.39.68 0 1.12-.2 1.74-1.21.97-1.58 1.52-4.47 1.52-6.6s-1.06-2.84-2.46-2.84c-.68 0-1.69.2-2.9.44-1.21 3.45-3.21 8.6-4.95 11.68-.35-.09-.86-.35-1.12-.62 2.02-3.15 4-8.34 4.86-10.83-1.45.29-3.06.57-4.58.68-.18-.31-.33-.84-.35-1.23.59.07 1.32.02 2.35-.09.77-.07 1.85-.26 2.95-.48.46-1.36.99-3.08 1.25-4.71.44.09.97.31 1.28.57-.26.73-.62 1.8-.95 2.82-.11.33-.22.7-.37 1.1 1.12-.2 2.13-.35 2.73-.35 1.67 0 3.39.88 3.39 3.72zm6.6 1.32c-.18.29-.57.59-.97.75-.7-1.94-3.01-5.13-4.49-6.45.26-.24.68-.48.95-.55 1.61 1.5 3.81 4.64 4.51 6.25zm9.06 2.2c2.13-2.27 4.93-3.72 7.88-3.72s4.77 1.74 4.77 4.2c0 4.53-5.02 6.25-9.13 6.09-.24-.31-.42-.84-.44-1.21 5.04.42 8.43-1.74 8.43-4.95 0-1.8-1.36-3.12-3.61-3.12-3.12 0-5.52 1.5-7.39 3.63-.29.33-.48.68-.66.99-.37-.15-.81-.44-1.08-.68.15-1.23.44-8.82.44-9.7.37 0 .95.13 1.19.24-.15 1.39-.33 6.89-.4 8.23zm.86-11.95c1.78.7 4.93 1.5 6.4 1.8-.04.33-.2.77-.37 1.03-1.36-.29-5.46-1.47-6.4-1.83.07-.33.22-.79.37-1.01zm18.32 1.04h9.42v.88l-7.11 15.56h-1.36l7.08-15.27v-.04h-8.03v-1.12zm18.42 15.16c0 1.39.53 1.8 3.01 1.8h9.64c2.2 0 2.55-.68 2.82-3.59.29.2.75.37 1.08.44-.33 3.21-.86 4.16-3.96 4.16h-9.4c-3.26 0-4.25-.51-4.25-2.84v-10.65c-.62.57-1.3 1.12-2 1.65-.18-.26-.55-.59-.84-.77 3.17-2.2 5.52-5.21 6.78-7.5l1.52.24c-.07.15-.18.24-.46.26-.2.33-.42.68-.66 1.03h6.31l.2-.07.84.55c-.07.07-.15.13-.29.15-.53 1.03-1.34 2.29-2.16 3.32h6.67v7.88h-1.1v-1.06h-13.75v4.97zm0-10.78v4.8h6.14v-4.8h-6.14zm6.91-1.01c.7-.81 1.45-1.96 1.98-2.97h-6.29c-.7.97-1.54 1.98-2.51 2.97h6.82zm6.84 5.81v-4.8h-6.56v4.8h6.56zm18.51-7.29c0 1.65-.37 5.06-.9 7.11-.97 3.89-2.33 6.6-4.6 6.6-2 0-3.96-2.75-3.96-5.96 0-4.88 3.98-8.74 9.5-8.74 5.02 0 8.52 3.21 8.52 7.86s-2.77 7.59-7.04 8.29c-.26-.26-.55-.79-.64-1.17.7-.04 1.25-.15 1.74-.29 2.2-.59 4.78-2.46 4.78-6.87 0-3.94-2.82-6.84-7.35-6.84h-.04zm-1.17.07c-4.62.55-7.17 4.22-7.17 7.53 0 3.01 1.63 4.86 2.88 4.86 1.32 0 2.53-1.76 3.48-5.59.48-2 .9-5.28.81-6.8zm32.28 10.51c0 3.12-2.71 4.97-6.16 4.97-2.57 0-5.02-1.12-5.02-4.36 0-.86.11-1.89.29-3.04-1.36-.15-2.73-.4-3.94-.77-.04-.33 0-.86.11-1.17.97.4 2.42.68 3.98.88.22-1.41.51-2.99.73-4.69-1.54-.18-2.88-.42-3.67-.68-.04-.29-.02-.77.11-1.1.97.37 2.33.62 3.7.75.09-.81.18-1.63.24-2.49.04-.53.04-1.5-.07-2.02.42 0 1.03.09 1.3.26-.04 1.45-.2 2.9-.37 4.33 1.76.11 3.37.09 4.07-.02.04.35-.07.88-.18 1.1-1.28.09-2.68.04-4.03-.04-.24 1.67-.51 3.28-.73 4.71 1.74.13 3.48.11 4.77-.09.04.33-.02.86-.15 1.1-1.19.13-2.93.18-4.77.02-.15 1.12-.26 2.09-.26 2.88 0 1.54.84 3.32 3.87 3.32s5.04-1.69 5.04-3.94c0-1.52-.57-2.71-1.61-3.85.26-.18.81-.35 1.14-.42a6.484 6.484 0 011.61 4.33zm17.7-10.58c0 1.65-.37 5.06-.9 7.11-.97 3.89-2.33 6.6-4.6 6.6-2 0-3.96-2.75-3.96-5.96 0-4.88 3.98-8.74 9.51-8.74 5.02 0 8.51 3.21 8.51 7.86s-2.77 7.59-7.04 8.29c-.26-.26-.55-.79-.64-1.17.7-.04 1.25-.15 1.74-.29 2.2-.59 4.77-2.46 4.77-6.87 0-3.94-2.82-6.84-7.35-6.84h-.04zm-1.17.07c-4.62.55-7.17 4.22-7.17 7.53 0 3.01 1.63 4.86 2.88 4.86 1.32 0 2.53-1.76 3.48-5.59.48-2 .9-5.28.81-6.8zm26.53 6.7c1.94-.99 3.87-1.96 5.37-2.86.46-.31.9-.64 1.28-.97.22.26.42.79.44 1.17-.77.62-4.99 2.71-7.08 3.74 0 1.08.02 2.6 0 3.67-.29.07-.77.07-1.12-.04.07-.53.11-1.91.11-3.1-2 1.01-3.78 1.98-3.78 3.79 0 2 2.57 2.33 4.62 2.33s3.74-.48 4.8-.88c.09.37.07.95-.04 1.28-.79.26-2.84.68-4.82.68-2.2 0-5.68-.53-5.68-3.32 0-2.55 2.33-3.63 4.91-4.95l-.02-.55c-.04-.99-.75-1.69-2.09-1.69-2 0-3.54 1.72-5.1 3.52-.31-.2-.68-.64-.84-.95 2.79-2.68 4.25-5.19 5.06-6.82-1.23.11-2.53.15-3.79.15-.15-.26-.26-.79-.29-1.21.59.11 1.23.11 1.54.11.81 0 1.89-.02 3.04-.11.44-1.06.77-2.31.86-3.06.33.04.97.26 1.25.46-.13.42-.55 1.63-.9 2.49 1.56-.15 3.12-.42 4.27-.84.13.29.2.73.2 1.03-1.45.37-3.17.68-4.97.86-.53.97-1.63 2.84-2.71 4.31h.02c1.01-.66 1.89-.88 2.73-.88 1.54 0 2.75.9 2.75 2.62v.02zm28.89-.1c.99-.99 1.89-2.05 2.68-3.17l1.23.7c-.07.09-.18.13-.33.13-.07 0-.13 0-.2-.02-.99 1.39-2.13 2.64-3.39 3.78v6.47c0 .99-.24 1.41-.99 1.61-.75.2-2.2.2-4.58.2-.07-.33-.26-.81-.44-1.17 1.1.04 2.13.07 2.93.07 1.89 0 2 0 2-.68v-5.41l-.18.02c-3.89 3.12-8.78 5.39-14.08 6.95-.15-.26-.4-.68-.64-.9 4.69-1.32 9.11-3.28 12.76-5.88-4.51.37-8.98.73-11.95.92-.04.18-.15.26-.31.31l-.42-1.34 3.61-.22v-10.74h4.51c.42-.75.86-1.67 1.1-2.35l1.47.42c-.04.13-.2.2-.42.2a27.3 27.3 0 01-.95 1.74h6.56v8.36zm-1.08-7.37h-10.14v2.51h10.14v-2.51zm0 5.94V127h-10.14v2.51h10.14zm-10.14.9v2.84c2.82-.18 6.12-.4 9.33-.64.29-.22.55-.44.81-.66v-1.54h-10.14zm24.35-7.7c-.64 2.99-.99 6.49-.97 9.77 0 1.67.15 3.21.46 4.14.02.11.09.15.13 0 .31-.9.88-2.82 1.39-4.31.33.11.7.33.92.57-.44.99-1.91 5.21-2.11 6.36-.31.02-.66 0-.97-.09-.55-1.45-.92-3.61-.95-6.14-.04-3.21.31-6.56.55-8.21.11-.73.26-1.85.31-2.46.44.07.9.18 1.23.37zm5.7 10.45c-.24.46-.53 1.12-.53 1.8 0 1.03.86 2.27 4.64 2.27 2.09 0 3.96-.35 4.97-.75.13.29.2.88.18 1.21-.77.24-2.82.66-5.06.66-3.83 0-5.83-1.14-5.83-3.21 0-.95.35-1.83.62-2.4.4.09.79.26 1.01.42zm8.32-9.35c.09.31.09.86.07 1.17-1.98.33-6.49.31-8.43.09-.09-.26-.15-.81-.13-1.19 2.18.46 6.95.4 8.49-.07zm27.83 5.74h-13.42c-.24.62-.51 1.21-.81 1.78h11.38v9.24h-1.08v-.68h-10.01v.75h-1.06v-7.9c-1.21 1.96-2.73 3.67-4.38 4.88-.15-.2-.51-.55-.75-.73 2.27-1.61 4.33-4.29 5.57-7.35h-5.3v-.95h9.35v-1.76h-6.75v-.92h6.75v-1.69h-7.96v-.95h4.66c-.37-.75-1.12-1.83-1.85-2.55l.9-.44c.79.77 1.61 1.85 1.98 2.6l-.75.4h6.78c-.2-.11-.48-.24-.57-.26.64-.75 1.5-1.96 1.96-2.79l1.28.55c-.04.13-.18.18-.4.18-.48.66-1.23 1.65-1.89 2.33h4.99v.95h-8.05v1.69h6.95v.92h-6.95v1.76h9.44v.95zm-3.94 2.71H459.3v1.65h10.01v-1.65zm0 4.16v-1.67H459.3v1.67h10.01zm-10.01 2.55h10.01v-1.72H459.3v1.72zm25.1-5.9c-.42.95-1.19 2.99-1.63 4.29-.22.62-.37 1.1-.51 1.5-.29.02-.73-.11-.99-.22-.55-1.5-.92-3.52-.95-6.05-.07-3.17.31-6.58.55-8.23.11-.7.29-1.83.31-2.42.42.04 1.01.18 1.28.35-.64 3.06-1.12 6.87-1.06 10.17.02 1.61.22 3.24.53 4.09.04.11.07.07.11 0 .35-.9.97-2.82 1.47-4.2.29.13.68.44.88.73zm9.07-5.61c-1.72.09-3.65.13-5.63.02-.15-.24-.26-.84-.24-1.19 1.61.2 3.81.24 5.88.13-.02-1.74-.04-3.81-.2-4.71.46 0 .99.02 1.34.18-.07.84-.04 2.82-.02 4.45 1.41-.11 2.68-.31 3.61-.59.11.29.15.84.09 1.12-.9.2-2.18.37-3.7.51v.11c0 6.78.15 10.01-4.77 12.56-.35-.13-.88-.62-1.08-.95.51-.15 1.19-.46 1.65-.79 3.1-2.02 3.1-4.75 3.08-10.78v-.07zm13.78-2.77c1.5-.15 12.92-1.8 15.29-1.8.15.26.26.77.26 1.14-.44-.04-2.18-.09-3.65.4-3.85 1.32-5.5 4.95-5.5 7.63 0 5.1 4.14 6.16 7.11 6.16-.04.44-.24.95-.48 1.21-3.21-.04-7.79-1.74-7.79-7.06 0-4.11 2.6-6.91 4.95-8.03-1.96.15-9.46 1.41-11.77 1.72-.26-.26-.48-.84-.53-1.21.9-.02 1.72-.11 2.11-.15zm24.15 5.65c.42 4.05 1.69 6.93 3.12 6.93.95 0 1.52-1.96 1.98-5.02.37.13.84.37 1.08.62-.79 4.42-1.74 5.68-2.99 5.68-1.78 0-3.67-2.18-4.33-8.08-.26-2.57-.35-4.53-.51-6.18.33-.02 1.01.02 1.34.13-.04.95.13 4.25.31 5.92zm16.55 3.79c-.22.22-.7.44-1.14.53-.4-2.82-1.83-6.21-4.14-8.67.24-.24.66-.51.95-.64 2.44 2.57 4.03 6.58 4.33 8.78zm22.47-.03c0 3.21-2.84 5.66-6.87 5.66-3.41 0-4.14-1.85-4.14-2.73 0-1.19.97-2.24 2.55-2.24 2.42 0 3.85 1.85 4.09 3.52 1.98-.7 3.23-2.2 3.23-4.2 0-1.83-1.3-3.74-4.67-3.74-3.98 0-6.42 2.46-8.1 4.75-.29-.18-.73-.53-.88-.86 1.36-1.65 4.38-4.91 5.85-6.47 1.47-1.54 3.21-3.3 3.83-4.03-1.23.11-4.73.57-6.64.73-.15-.33-.26-.84-.31-1.21.46.04 1.06.07 1.41.02 1.65-.11 5.83-.46 6.84-.7.18.18.44.62.53.9-.9.84-3.12 3.1-4.49 4.49-1.3 1.34-2.05 2.18-2.64 2.86 1.63-1.08 3.43-1.41 4.75-1.41 3.61 0 5.63 1.91 5.63 4.66zm-5.41 4.49c-.18-1.47-1.28-2.84-3.01-2.84-.81 0-1.52.53-1.52 1.25 0 1.03 1.28 1.74 2.86 1.74.59 0 1.14-.04 1.67-.15zm26.99-1.25c.09.4.07 1.03-.04 1.32-.9.31-3.06.77-5.48.77-3.26 0-6.45-1.28-6.45-4.71.02-2.49 1.8-4.07 3.7-5.39-1.17-1.5-2.57-3.92-3.5-6.14.29-.29.68-.57 1.03-.7.75 2.24 2.33 5.02 3.39 6.23 2.05-1.32 4.82-2.99 5.92-3.81.42-.31.97-.75 1.21-1.01.31.29.59.68.75 1.06-.64.53-4.6 2.93-6.65 4.22-.04.37-.07.79-.07 1.12-.2.09-.55.22-.88.24-.15-.11-.33-.24-.51-.42-1.25.81-3.26 2.27-3.26 4.49-.02 2.02 1.45 3.7 5.32 3.7 2.31 0 4.4-.48 5.5-.97zM20.2 162v1.06H3.61v5.43c0 3.54-.31 8.58-2.51 12.08-.2-.22-.64-.48-.92-.62 2.13-3.37 2.35-8.03 2.35-11.46V162H20.2zM7.92 177.62c0 1.08.37 1.36 2.2 1.36h6.78c1.69 0 1.96-.66 2.13-3.74.29.2.73.37 1.06.46-.26 3.34-.7 4.29-3.19 4.29h-6.73c-2.51 0-3.3-.42-3.3-2.4v-11.02H16.9v6.62c0 .64-.15.99-.7 1.17-.55.18-1.58.2-3.32.2-.07-.31-.24-.7-.4-1.01.86.02 1.61.04 2.13.04 1.08 0 1.23 0 1.23-.42v-5.59H7.92v10.03zm24.36-16.41l.73.46c-.02.07-.11.15-.18.15-.59 1.65-1.5 3.85-2.31 5.68 1.78 1.87 2.44 3.45 2.44 4.91 0 2.86-1.74 2.86-2.79 2.86-.29 0-.55 0-.81-.02 0-.26-.13-.68-.31-.97.37.04.73.07 1.06.07.88 0 1.85 0 1.85-1.98-.02-1.32-.66-2.86-2.51-4.73.79-1.78 1.56-3.81 2.11-5.37h-3.67v18.37h-1.01v-19.38h5.24l.18-.04zm7.97-.84c-.02.13-.15.22-.31.26 1.5 2.29 4.22 4.86 6.6 6.27-.22.22-.48.59-.64.88-2.4-1.54-5.13-4.11-6.62-6.4-1.3 2.22-3.81 4.84-6.45 6.54-.13-.24-.4-.59-.62-.81 2.66-1.65 5.28-4.38 6.54-6.8l1.5.07zm-3.59 13.51c-.04.15-.22.2-.42.18-.73 1.85-1.98 3.83-3.21 5.04-.18-.18-.51-.48-.73-.64 1.19-1.12 2.38-3.04 3.08-4.97l1.28.4zm8.89-1.83h-5.72v7.17c0 1.3-.62 1.41-3.5 1.41-.04-.29-.24-.75-.4-1.03.59.02 1.14.02 1.56.02 1.17 0 1.3 0 1.3-.4v-7.17h-5.3v-.97h5.3v-3.26h-3.67v-.97h8.54v.97h-3.83v3.26h5.72v.97zm-.48 6.89c-.64-1.3-2.02-3.45-3.26-5.06l.84-.4c1.25 1.56 2.66 3.67 3.3 4.97l-.88.48zm12.31-5.87c-.42.95-1.19 2.99-1.63 4.29-.22.62-.37 1.1-.51 1.5-.29.02-.73-.11-.99-.22-.55-1.5-.92-3.52-.95-6.05-.07-3.17.31-6.58.55-8.23.11-.7.29-1.83.31-2.42.42.04 1.01.18 1.28.35-.64 3.06-1.12 6.87-1.06 10.17.02 1.61.22 3.24.53 4.09.04.11.07.07.11 0 .35-.9.97-2.82 1.47-4.2.29.13.68.44.88.73zm9.07-5.61c-1.72.09-3.65.13-5.63.02-.15-.24-.26-.84-.24-1.19 1.61.2 3.81.24 5.88.13-.02-1.74-.04-3.81-.2-4.71.46 0 .99.02 1.34.18-.07.84-.04 2.82-.02 4.45 1.41-.11 2.68-.31 3.61-.59.11.29.15.84.09 1.12-.9.2-2.18.37-3.7.51v.11c0 6.78.15 10.01-4.78 12.56-.35-.13-.88-.62-1.08-.95.51-.15 1.19-.46 1.65-.79 3.1-2.02 3.1-4.75 3.08-10.78v-.07zm28.98 1.28c0 2.18-1.45 4.09-4.67 4.09-1.91 0-3.01-.48-3.72-.84-.07-.31-.04-.88.07-1.17.75.4 1.74.92 3.65.92 2.68 0 3.56-1.63 3.56-3.04 0-1.5-1.19-2.55-3.28-2.55s-5.37 1.17-8.25 2.4c.31.64.62 1.32.92 1.98 1.41 3.1 2.9 6.82 3.67 9-.22.2-.75.37-1.17.4-.59-2.05-2.05-5.72-3.48-8.93-.33-.73-.64-1.39-.92-2.02-1.76.79-3.32 1.54-4.38 2-.24-.22-.57-.7-.73-1.12.48-.15 1.17-.4 1.61-.55.77-.29 1.83-.75 3.01-1.28-.55-1.14-1.03-2.05-1.36-2.62-.24-.42-.64-1.03-.88-1.36.26-.22.7-.46 1.03-.55.62 1.01 1.41 2.46 2.2 4.12 2.86-1.21 6.29-2.51 8.76-2.51s4.33 1.3 4.33 3.63zm-8.6-3.98c-.35-.73-1.25-2.13-2.05-2.95.22-.22.64-.48.95-.57.64.79 1.52 1.98 2.05 2.95-.15.22-.62.48-.95.57zm32.15 9.81c0 2.73-1.76 4.58-4.31 4.58-1.08 0-2.09-.13-3.1-.46-.15-.35-.18-.9-.11-1.25.9.4 2.09.62 3.06.62 1.76 0 3.37-1.01 3.37-3.48s-2.22-3.48-3.94-3.48c-2.05 0-4.14.59-5.72 1.3.02 1.72.07 3.52.09 4.69.02 1.87-.68 2.4-1.54 2.4-1.54 0-4.05-1.41-4.05-3.01 0-1.94 2.75-3.78 4.47-4.62 0-.92-.02-1.8-.02-2.49 0-.75.02-1.52.02-2.25-1.23.2-2.97.42-4.2.48-.2-.31-.31-.79-.33-1.12 1.8-.07 3.32-.22 4.55-.4.07-2.02.13-3.74.02-4.51.42-.02 1.06.04 1.32.15-.09 1.03-.2 2.57-.26 4.2 1.52-.26 3.63-.73 4.33-.97.09.29.07.77.02 1.1-.64.15-2.79.62-4.4.88-.02 1.03-.04 2.05-.04 2.95v1.5c1.78-.73 3.94-1.23 5.85-1.23 2.73 0 4.93 1.67 4.93 4.42zm-11.77-1.67c-1.43.77-3.41 2.13-3.41 3.48 0 1.17 1.78 1.94 2.57 1.94.53 0 .86-.15.88-1.25.02-.97-.02-2.57-.04-4.16zm13.95-5.68c-.09.37-.37.84-.55 1.03-.9-.84-3.41-2.31-5.06-2.93.11-.33.33-.66.53-.92 1.65.7 4.18 2.11 5.08 2.82zm25.86 2.04v1.06h-6.05v8.74c0 .86-.26 1.23-.9 1.41-.62.18-1.34.18-4.07.18-.07-.29-.24-.75-.42-1.06.88.02 1.69.04 2.35.04 1.8 0 1.94 0 1.94-.57v-8.74h-12.72v-1.06h12.72v-3.78l1.47.09c-.02.13-.11.24-.37.26v3.43h6.05zm-18.04-5.15v3.34h-1.08v-4.38h8.58v-2.82l1.5.11c-.02.15-.13.24-.4.26v2.44h8.67v4.38h-1.1v-3.34h-16.17zm4.99 13.09c-.68-1.34-2.29-3.39-3.76-4.84l.81-.55c1.52 1.43 3.15 3.43 3.85 4.77l-.9.62zm22.89-9.15c.57-2.2 2.11-5.17 4.8-5.17 2.13 0 4.6 1.72 4.6 7s-2.38 8.74-6.64 10.19c-.37-.2-.7-.62-.9-.99 3.92-.97 6.38-4.05 6.38-9.13 0-4.2-1.61-6.05-3.54-6.05-2.29 0-3.67 2.75-4.25 5.59-.33 1.47-.33 2.68-.29 3.74-.31.07-.86.04-1.19-.07-.09-1.1-.11-3.28-.09-4.31.04-1.89.33-4.58.42-5.83.02-.53.07-1.25.07-1.72.44 0 .99.02 1.34.13-.35 1.98-.73 4.78-.73 6.62h.02zm27.81-3.78c0 1.65-.37 5.06-.9 7.11-.97 3.89-2.33 6.6-4.6 6.6-2 0-3.96-2.75-3.96-5.96 0-4.88 3.98-8.74 9.51-8.74 5.02 0 8.51 3.21 8.51 7.86s-2.77 7.59-7.04 8.29c-.26-.26-.55-.79-.64-1.17.7-.04 1.25-.15 1.74-.29 2.2-.59 4.77-2.46 4.77-6.87 0-3.94-2.82-6.84-7.35-6.84h-.04zm-1.17.07c-4.62.55-7.17 4.22-7.17 7.53 0 3.01 1.63 4.86 2.88 4.86 1.32 0 2.53-1.76 3.48-5.59.48-2 .9-5.28.81-6.8zm20.9 1.56c-.09.13-.2.18-.44.18-.86 1.65-2.16 3.43-3.41 4.55a9.18 9.18 0 00-.79-.66c1.21-1.03 2.51-2.79 3.3-4.51l1.34.44zm6.73-2.42v1.01H200v-1.01h5.1v-3.19l1.45.11c-.02.13-.13.22-.4.24v2.84h4.97zm-8.01 6.56c.88.88 1.83 1.87 2.71 2.88.57-1.12 1.06-2.33 1.45-3.61l1.36.4c-.04.13-.2.22-.44.2-.44 1.36-.99 2.66-1.65 3.87 1.08 1.28 2.02 2.53 2.6 3.5-.59.48-.73.64-.84.77-.53-.92-1.34-2.09-2.31-3.3-1.39 2.27-3.15 4.16-5.21 5.5-.15-.22-.51-.59-.73-.77 2.09-1.3 3.87-3.21 5.24-5.59-.95-1.12-1.96-2.24-2.93-3.21l.75-.64zm4.78-4.53c1.19 1.3 2.4 3.1 2.88 4.29l-.9.55c-.46-1.21-1.67-3.04-2.84-4.38l.86-.46zm11.53.11l.59.04c-.02.11-.02.24-.02.37-.26 9.79-.51 12.87-1.21 13.8-.48.62-1.01.7-2.05.7-.64 0-1.47-.04-2.29-.11-.02-.31-.13-.75-.33-1.03 1.28.09 2.44.11 2.88.11.4 0 .62-.04.84-.31.55-.68.84-3.78 1.08-12.52h-4.2c-.31 5.68-1.36 10.98-5.48 14.04-.18-.24-.55-.57-.86-.75 3.89-2.75 4.95-7.79 5.26-13.29h-3.21v-1.06h3.26c.07-1.69.07-3.41.07-5.1l1.58.09c-.02.18-.2.29-.51.33 0 1.56-.02 3.12-.07 4.69h4.67zm26.39 7.63h-7.99c2.13 2.38 5.63 4.64 8.6 5.72-.24.22-.59.62-.77.9-3.1-1.25-6.84-3.85-9.04-6.56v7.33h-1.08v-7.22c-2.16 2.73-5.81 5.19-8.96 6.42-.15-.26-.51-.68-.75-.9 3.04-1.06 6.49-3.28 8.56-5.7h-7.99v-1.03h9.13v-2.22h-6.98v-8.6h15.2v8.6h-7.15v2.22h9.2v1.03zm-16.19-10.87v2.82h5.92v-2.82h-5.92zm0 6.62h5.92v-2.86h-5.92V169zm13.07-3.81v-2.82h-6.07v2.82h6.07zm0 3.81v-2.86h-6.07V169h6.07zm22.84.77c0 2.46-.73 6.36-2.27 8.18-.62.75-1.23.95-1.89.95-1.06 0-2.49-.55-3.76-1.34-.04-.37.02-.95.13-1.23 1.21.84 2.62 1.39 3.41 1.39.68 0 1.12-.2 1.74-1.21.97-1.58 1.52-4.47 1.52-6.6s-1.06-2.84-2.46-2.84c-.68 0-1.69.2-2.9.44-1.21 3.45-3.21 8.6-4.95 11.68-.35-.09-.86-.35-1.12-.62 2.02-3.15 4-8.34 4.86-10.83-1.45.29-3.06.57-4.58.68-.18-.31-.33-.84-.35-1.23.59.07 1.32.02 2.35-.09.77-.07 1.85-.26 2.95-.48.46-1.36.99-3.08 1.25-4.71.44.09.97.31 1.28.57-.26.73-.62 1.8-.95 2.82-.11.33-.22.7-.37 1.1 1.12-.2 2.13-.35 2.73-.35 1.67 0 3.39.88 3.39 3.72zm6.31 1.89c-.15.29-.57.62-.95.77-.7-1.98-2.75-4.82-4.16-6.09.2-.24.57-.48.86-.64 1.56 1.47 3.54 4.36 4.25 5.96zm-4.14-8.6c.18-.2.46-.42.66-.51.59.53 1.61 1.69 2.07 2.44-.13.18-.42.4-.7.53-.55-.86-1.34-1.83-2.02-2.46zm4.75.51c-.13.2-.42.42-.68.55-.55-.84-1.34-1.76-2.02-2.38.18-.2.46-.44.66-.51.62.51 1.61 1.61 2.05 2.33zm9.81.72c.59 0 1.21-.02 1.83-.04.15-1.47.26-2.68.26-3.21.44 0 .9.09 1.21.24-.11.55-.26 1.61-.42 2.88 2.16-.18 4.27-.53 6.09-1.03.13.31.18.77.15 1.03-1.54.4-3.98.84-6.36 1.06a86.4 86.4 0 00-.29 3.37c1.34-.48 2.77-.68 3.87-.68.18 0 .33 0 .51.02.18-.59.29-1.19.33-1.76.4.04.88.24 1.12.42-.07.42-.2.9-.37 1.45 3.08.55 4.71 2.73 4.71 5.48 0 3.37-2.33 5.92-6.91 6.49-.26-.22-.51-.75-.59-1.1 3.7-.13 6.45-2.07 6.45-5.43 0-2.31-1.43-4.11-3.96-4.53-.77 1.96-2.2 4.47-4.69 7.06.15.46.35.95.59 1.43-.18.24-.57.48-.9.57-.2-.35-.35-.75-.51-1.19-1.1 1.01-2.13 1.63-3.34 1.63-1.58 0-2.6-1.45-2.6-3.19 0-.92.33-1.91.88-2.68.99-1.36 2.58-2.66 4.36-3.54.07-1.23.2-2.53.31-3.74-.59.04-1.14.07-1.69.07-.44 0-1.45-.02-1.98-.07-.09-.26-.2-.86-.18-1.17.51.11 1.39.15 2.09.18h.02zm1.8 11.4c-.29-1.21-.46-2.64-.46-4.2 0-.42 0-.86.02-1.32-1.19.66-2.71 1.78-3.54 3.12-.4.62-.55 1.3-.55 1.91 0 1.03.53 2.13 1.56 2.13.88 0 1.74-.44 2.97-1.65zm4.64-6.84c-1.54 0-2.9.31-4.03.79-.04.75-.07 1.47-.07 2.09 0 .92.07 1.98.29 3.08.92-1.03 2.86-3.45 3.87-5.96h-.07zm29.25 5.25c0 3.21-2.84 5.66-6.86 5.66-3.41 0-4.14-1.85-4.14-2.73 0-1.19.97-2.24 2.55-2.24 2.42 0 3.85 1.85 4.09 3.52 1.98-.7 3.23-2.2 3.23-4.2 0-1.83-1.3-3.74-4.66-3.74-3.98 0-6.42 2.46-8.1 4.75-.29-.18-.73-.53-.88-.86 1.36-1.65 4.38-4.91 5.85-6.47 1.47-1.54 3.21-3.3 3.83-4.03-1.23.11-4.73.57-6.65.73-.15-.33-.26-.84-.31-1.21.46.04 1.06.07 1.41.02 1.65-.11 5.83-.46 6.84-.7.18.18.44.62.53.9-.9.84-3.12 3.1-4.49 4.49-1.3 1.34-2.05 2.18-2.64 2.86 1.63-1.08 3.43-1.41 4.75-1.41 3.61 0 5.63 1.91 5.63 4.66zm-5.41 4.49c-.18-1.47-1.28-2.84-3.01-2.84-.81 0-1.52.53-1.52 1.25 0 1.03 1.28 1.74 2.86 1.74.59 0 1.14-.04 1.67-.15zm26.98-1.25c.09.4.07 1.03-.04 1.32-.9.31-3.06.77-5.48.77-3.26 0-6.45-1.28-6.45-4.71.02-2.49 1.8-4.07 3.7-5.39-1.17-1.5-2.57-3.92-3.5-6.14.29-.29.68-.57 1.03-.7.75 2.24 2.33 5.02 3.39 6.23 2.05-1.32 4.82-2.99 5.92-3.81.42-.31.97-.75 1.21-1.01.31.29.59.68.75 1.06-.64.53-4.6 2.93-6.64 4.22-.04.37-.07.79-.07 1.12-.2.09-.55.22-.88.24-.15-.11-.33-.24-.51-.42-1.25.81-3.26 2.27-3.26 4.49-.02 2.02 1.45 3.7 5.32 3.7 2.31 0 4.4-.48 5.5-.97zm17.28-13.07c0 1.65-.37 5.06-.9 7.11-.97 3.89-2.33 6.6-4.6 6.6-2 0-3.96-2.75-3.96-5.96 0-4.88 3.98-8.74 9.51-8.74 5.02 0 8.51 3.21 8.51 7.86s-2.77 7.59-7.04 8.29c-.26-.26-.55-.79-.64-1.17.7-.04 1.25-.15 1.74-.29 2.2-.59 4.77-2.46 4.77-6.87 0-3.94-2.82-6.84-7.35-6.84h-.04zm-1.17.07c-4.62.55-7.17 4.22-7.17 7.53 0 3.01 1.63 4.86 2.88 4.86 1.32 0 2.53-1.76 3.48-5.59.48-2 .9-5.28.81-6.8zm15.55.26h19.89v.99h-19.89v-.99zm3.23 16.02v-6.91h13.33v6.84h-1.1v-.99h-11.18v1.06h-1.06zm13.07-12.96v.95h-12.87v-.95h12.87zm-12.87 3.94v-.95h12.87v.95h-12.87zm12.61-9.99v.97h-12.32v-.97h12.32zm-.57 13.07h-11.18v3.92h11.18v-3.92zm12.9-4.34c.42 4.05 1.69 6.93 3.12 6.93.95 0 1.52-1.96 1.98-5.02.37.13.84.37 1.08.62-.79 4.42-1.74 5.68-2.99 5.68-1.78 0-3.67-2.18-4.33-8.08-.26-2.57-.35-4.53-.51-6.18.33-.02 1.01.02 1.34.13-.04.95.13 4.25.31 5.92zm16.55 3.79c-.22.22-.7.44-1.14.53-.4-2.82-1.83-6.21-4.14-8.67.24-.24.66-.51.95-.64 2.44 2.57 4.03 6.58 4.33 8.78zm9.34-6.65a26.49 26.49 0 01-2.93 4.09c-.13-.26-.42-.7-.62-.95 2.18-2.35 4.33-6.23 5.65-10.17l1.36.46c-.09.13-.22.2-.46.2-.57 1.58-1.28 3.15-2.05 4.64l.46.13c-.02.13-.13.22-.37.24v14.57h-1.06v-13.22zm13.33 5.7c1.76 2.13 3.59 5.06 4.27 6.97l-.99.51c-.2-.59-.53-1.3-.92-2.07-4.51.42-9.35.79-12.43 1.01-.02.15-.13.26-.26.29l-.53-1.34 2.68-.18c.97-2.24 2.09-5.79 2.75-8.41h-5.17v-1.03h14.68v1.03h-8.14l.22.07c-.07.15-.24.24-.48.24-.66 2.33-1.74 5.7-2.75 8.03l8.96-.57c-.79-1.41-1.78-2.88-2.77-4.14l.9-.42zm2.82-11.02v1.06h-11.68v-1.06h11.68zm14.79 11.06c.55-.22 1.08-.42 1.67-.42.88 0 1.69.53 1.96 1.76.13.62.44 2.42.64 3.04.29.88.9 1.12 2.24 1.12 1.25 0 3.46-.2 4.22-.44.04.35 0 .9-.07 1.23-.95.18-3.32.29-4.18.29-1.67 0-2.75-.2-3.21-1.72-.18-.59-.51-2.46-.66-3.08-.18-.68-.51-1.21-1.39-1.21-1.96 0-3.98 2.27-6.91 5.85-.29-.13-.75-.51-.92-.77 1.96-2.33 4.25-4.64 5.57-6.01 1.39-1.5 4.49-4.45 5.28-5.35-1.36.2-5.74.68-8.89.86-.13-.31-.24-.79-.24-1.14 2.46 0 8.82-.53 10.54-.95.22.22.44.62.55.92-.62.53-1.23 1.1-1.98 1.8-.81.79-2.95 2.9-4.22 4.2zm5.65-10.89c0 .31-.07.84-.15 1.06-1.56 0-6.27-.46-8.25-.86-.02-.29 0-.79.07-1.06 2.42.55 6.8.9 8.34.86zm24.8 7.44c0 2.46-.73 6.36-2.27 8.18-.62.75-1.23.95-1.89.95-1.06 0-2.49-.55-3.76-1.34-.04-.37.02-.95.13-1.23 1.21.84 2.62 1.39 3.41 1.39.68 0 1.12-.2 1.74-1.21.97-1.58 1.52-4.47 1.52-6.6s-1.06-2.84-2.46-2.84c-.68 0-1.69.2-2.9.44-1.21 3.45-3.21 8.6-4.95 11.68-.35-.09-.86-.35-1.12-.62 2.02-3.15 4-8.34 4.86-10.83-1.45.29-3.06.57-4.58.68-.18-.31-.33-.84-.35-1.23.59.07 1.32.02 2.35-.09.77-.07 1.85-.26 2.95-.48.46-1.36.99-3.08 1.25-4.71.44.09.97.31 1.28.57-.26.73-.62 1.8-.95 2.82-.11.33-.22.7-.37 1.1 1.12-.2 2.13-.35 2.73-.35 1.67 0 3.39.88 3.39 3.72zm6.32 1.89c-.15.29-.57.62-.95.77-.7-1.98-2.75-4.82-4.16-6.09.2-.24.57-.48.86-.64 1.56 1.47 3.54 4.36 4.25 5.96zm-4.14-8.6c.18-.2.46-.42.66-.51.59.53 1.61 1.69 2.07 2.44-.13.18-.42.4-.71.53-.55-.86-1.34-1.83-2.02-2.46zm4.75.51c-.13.2-.42.42-.68.55-.55-.84-1.34-1.76-2.02-2.38.18-.2.46-.44.66-.51.62.51 1.61 1.61 2.05 2.33zm9.8.72c.59 0 1.21-.02 1.83-.04.15-1.47.26-2.68.26-3.21.44 0 .9.09 1.21.24-.11.55-.26 1.61-.42 2.88 2.16-.18 4.27-.53 6.1-1.03.13.31.18.77.15 1.03-1.54.4-3.98.84-6.36 1.06a86.4 86.4 0 00-.29 3.37c1.34-.48 2.77-.68 3.87-.68.18 0 .33 0 .51.02.18-.59.29-1.19.33-1.76.4.04.88.24 1.12.42-.07.42-.2.9-.37 1.45 3.08.55 4.71 2.73 4.71 5.48 0 3.37-2.33 5.92-6.91 6.49-.26-.22-.51-.75-.59-1.1 3.7-.13 6.45-2.07 6.45-5.43 0-2.31-1.43-4.11-3.96-4.53-.77 1.96-2.2 4.47-4.69 7.06.15.46.35.95.59 1.43-.18.24-.57.48-.9.57-.2-.35-.35-.75-.51-1.19-1.1 1.01-2.13 1.63-3.34 1.63-1.58 0-2.6-1.45-2.6-3.19 0-.92.33-1.91.88-2.68.99-1.36 2.57-2.66 4.36-3.54.07-1.23.2-2.53.31-3.74-.59.04-1.14.07-1.69.07-.44 0-1.45-.02-1.98-.07-.09-.26-.2-.86-.18-1.17.51.11 1.39.15 2.09.18h.02zm1.8 11.4c-.29-1.21-.46-2.64-.46-4.2 0-.42 0-.86.02-1.32-1.19.66-2.71 1.78-3.54 3.12-.4.62-.55 1.3-.55 1.91 0 1.03.53 2.13 1.56 2.13.88 0 1.74-.44 2.97-1.65zm4.64-6.84c-1.54 0-2.9.31-4.03.79-.04.75-.07 1.47-.07 2.09 0 .92.07 1.98.29 3.08.92-1.03 2.86-3.45 3.87-5.96H510zm16.87-.8c.57-2.2 2.11-5.17 4.8-5.17 2.13 0 4.6 1.72 4.6 7s-2.38 8.74-6.64 10.19c-.37-.2-.7-.62-.9-.99 3.92-.97 6.38-4.05 6.38-9.13 0-4.2-1.61-6.05-3.54-6.05-2.29 0-3.67 2.75-4.25 5.59-.33 1.47-.33 2.68-.29 3.74-.31.07-.86.04-1.19-.07-.09-1.1-.11-3.28-.09-4.31.04-1.89.33-4.58.42-5.83.02-.53.07-1.25.07-1.72.44 0 .99.02 1.34.13-.35 1.98-.73 4.78-.73 6.62h.02zm25.48 12.43c-1.25-1.8-3.26-3.76-5.02-5.02.2-.29.59-.66.88-.81 1.74 1.28 3.63 3.08 5.11 5.02-.18.26-.66.64-.97.81zM.86 202.38h9.42v.88l-7.11 15.56H1.81l7.08-15.27v-.04H.86v-1.12zm18.43 15.16c0 1.39.53 1.8 3.01 1.8h9.64c2.2 0 2.55-.68 2.82-3.59.29.2.75.37 1.08.44-.33 3.21-.86 4.16-3.96 4.16h-9.4c-3.26 0-4.25-.51-4.25-2.84v-10.65c-.62.57-1.3 1.12-2 1.65-.18-.26-.55-.59-.84-.77 3.17-2.2 5.52-5.21 6.78-7.5l1.52.24c-.07.15-.18.24-.46.26-.2.33-.42.68-.66 1.03h6.32l.2-.07.84.55c-.07.07-.15.13-.29.15-.53 1.03-1.34 2.29-2.16 3.32h6.67v7.88h-1.1v-1.06H19.3v4.97zm0-10.78v4.8h6.14v-4.8h-6.14zm6.91-1.01c.7-.81 1.45-1.96 1.98-2.97h-6.29c-.7.97-1.54 1.98-2.51 2.97h6.82zm6.84 5.81v-4.8h-6.56v4.8h6.56zm18.5-7.29c0 1.65-.37 5.06-.9 7.11-.97 3.89-2.33 6.6-4.6 6.6-2 0-3.96-2.75-3.96-5.96 0-4.88 3.98-8.74 9.5-8.74 5.02 0 8.52 3.21 8.52 7.86s-2.77 7.59-7.04 8.29c-.26-.26-.55-.79-.64-1.17.7-.04 1.25-.15 1.74-.29 2.2-.59 4.78-2.46 4.78-6.87 0-3.94-2.82-6.84-7.35-6.84h-.04zm-1.17.07c-4.62.55-7.17 4.22-7.17 7.53 0 3.01 1.63 4.86 2.88 4.86 1.32 0 2.53-1.76 3.48-5.59.48-2 .9-5.28.81-6.8zm36.07-1.19H75.13c-.66 2.05-1.61 4.22-2.82 6.27h12.81v11.2H84v-1.47H72.29v1.5h-1.08v-9.53c-1.17 1.67-2.55 3.23-4.11 4.49-.15-.22-.53-.62-.75-.81 3.65-2.84 6.23-7.35 7.59-11.64h-6.75v-1.06h19.25v1.06zM84 218.09v-7.63H72.29v7.63H84zm18.27-7.05c1.94-.99 3.87-1.96 5.37-2.86.46-.31.9-.64 1.28-.97.22.26.42.79.44 1.17-.77.62-5 2.71-7.08 3.74 0 1.08.02 2.6 0 3.67-.29.07-.77.07-1.12-.04.07-.53.11-1.91.11-3.1-2 1.01-3.78 1.98-3.78 3.79 0 2 2.57 2.33 4.62 2.33s3.74-.48 4.8-.88c.09.37.07.95-.04 1.28-.79.26-2.84.68-4.82.68-2.2 0-5.68-.53-5.68-3.32 0-2.55 2.33-3.63 4.91-4.95l-.02-.55c-.04-.99-.75-1.69-2.09-1.69-2 0-3.54 1.72-5.1 3.52-.31-.2-.68-.64-.84-.95 2.79-2.68 4.25-5.19 5.06-6.82-1.23.11-2.53.15-3.78.15-.15-.26-.26-.79-.29-1.21.59.11 1.23.11 1.54.11.81 0 1.89-.02 3.04-.11.44-1.06.77-2.31.86-3.06.33.04.97.26 1.25.46-.13.42-.55 1.63-.9 2.49 1.56-.15 3.12-.42 4.27-.84.13.29.2.73.2 1.03-1.45.37-3.17.68-4.97.86-.53.97-1.63 2.84-2.71 4.31h.02c1.01-.66 1.89-.88 2.73-.88 1.54 0 2.75.9 2.75 2.62v.02zm17.29-6.75c.59 0 1.21-.02 1.83-.04.15-1.47.26-2.68.26-3.21.44 0 .9.09 1.21.24-.11.55-.26 1.61-.42 2.88 2.16-.18 4.27-.53 6.09-1.03.13.31.18.77.15 1.03-1.54.4-3.98.84-6.36 1.06a86.4 86.4 0 00-.29 3.37c1.34-.48 2.77-.68 3.87-.68.18 0 .33 0 .51.02.18-.59.29-1.19.33-1.76.4.04.88.24 1.12.42-.07.42-.2.9-.37 1.45 3.08.55 4.71 2.73 4.71 5.48 0 3.37-2.33 5.92-6.91 6.49-.26-.22-.51-.75-.59-1.1 3.7-.13 6.45-2.07 6.45-5.43 0-2.31-1.43-4.11-3.96-4.53-.77 1.96-2.2 4.47-4.69 7.06.15.46.35.95.59 1.43-.18.24-.57.48-.9.57-.2-.35-.35-.75-.51-1.19-1.1 1.01-2.13 1.63-3.34 1.63-1.58 0-2.6-1.45-2.6-3.19 0-.92.33-1.91.88-2.68.99-1.36 2.57-2.66 4.36-3.54.07-1.23.2-2.53.31-3.74-.59.04-1.14.07-1.69.07-.44 0-1.45-.02-1.98-.07-.09-.26-.2-.86-.18-1.17.51.11 1.39.15 2.09.18h.02zm1.8 11.4c-.29-1.21-.46-2.64-.46-4.2 0-.42 0-.86.02-1.32-1.19.66-2.71 1.78-3.54 3.12-.4.62-.55 1.3-.55 1.91 0 1.03.53 2.13 1.56 2.13.88 0 1.74-.44 2.97-1.65zm4.64-6.84c-1.54 0-2.9.31-4.03.79-.04.75-.07 1.47-.07 2.09 0 .92.07 1.98.29 3.08.92-1.03 2.86-3.45 3.87-5.96h-.07zm17.55-6.96c-.09.97-.77 9.97-.77 13.11 0 2.64 1.45 3.67 3.94 3.67 2.88 0 5.74-1.65 7.39-4.09.24.22.57.84.64 1.14-1.41 1.8-4.4 4.09-8.12 4.09-2.99 0-4.97-1.3-4.97-4.66 0-2.97.42-8.49.48-10.63.07-1.47.07-2.13.02-2.84.42 0 1.08.09 1.39.2zm21.26 11.4c2.13-2.27 4.93-3.72 7.88-3.72s4.77 1.74 4.77 4.2c0 4.53-5.02 6.25-9.13 6.09-.24-.31-.42-.84-.44-1.21 5.04.42 8.43-1.74 8.43-4.95 0-1.8-1.36-3.12-3.61-3.12-3.12 0-5.52 1.5-7.39 3.63-.29.33-.48.68-.66.99-.37-.15-.81-.44-1.08-.68.15-1.23.44-8.82.44-9.7.37 0 .95.13 1.19.24-.15 1.39-.33 6.89-.4 8.23zm.86-11.95c1.78.7 4.93 1.5 6.4 1.8-.04.33-.2.77-.37 1.03-1.36-.29-5.46-1.47-6.4-1.83.07-.33.22-.79.37-1.01zm22.46 9.46c1.83-.62 4.71-2.09 7.24-2.09 2.73 0 4.75 1.89 4.75 4.67 0 4.09-3.94 6.16-8.47 6.31-.2-.2-.42-.79-.51-1.14 4.2.11 7.85-1.74 7.85-5.17 0-1.91-1.28-3.67-3.61-3.67-2.9 0-6.29 2.16-8.6 2.73-.24-.2-.53-.81-.62-1.14.66-.11 1.23-.26 1.96-.48zm20.65-5.26c.99 0 2.13-.11 3.28-.26.09-.4.15-.7.2-.95.22-1.1.46-2.27.46-3.17.42.07.99.18 1.34.35-.15.62-.46 2-.84 3.57 1.76-.31 3.41-.73 4.29-1.1.07.31.04.92 0 1.23-1.03.31-2.73.68-4.58.99-.24.95-.48 1.94-.73 2.84-.75 2.82-2.27 7.68-3.28 10.43-.42-.07-.95-.22-1.23-.44 1.06-2.44 2.84-8.03 3.45-10.23.24-.9.46-1.72.64-2.44-1.45.2-2.93.33-4.2.33-.13-.22-.26-.86-.29-1.21.4.04.84.07 1.45.07h.02zm16.24 12.21c.02.33-.07.99-.24 1.28-.51.15-1.91.33-3.56.33-3.39 0-5.65-1.23-5.61-3.45.02-.9.44-1.83.79-2.44.35.04.79.24 1.03.44-.31.46-.68 1.17-.7 1.89-.02 1.06.81 2.46 4.58 2.46 1.67 0 2.99-.24 3.72-.51zm-3.39-11.13c.84 0 2.55.09 3.63.22 0 .33-.04.84-.18 1.14-.92-.18-2.18-.31-3.5-.31-.99 0-2.13.07-3.17.22-.04-.26-.07-.81 0-1.12 1.1-.11 2.31-.15 3.19-.15h.02zM2.55 245.15c-.09-.26-.2-.86-.2-1.28.9.07 2.16.09 2.95.09.97-.02 11.11-.09 12.43-.11.4-.02.64-.04.9-.09.26.13.59.46.77.66-1.01 1.85-3.08 4.82-6.16 6.62-.33-.11-.84-.51-1.01-.77 2.27-.97 4.91-3.85 5.59-5.39-1.17 0-12.17.15-13.53.2l-1.74.07zm8.38 2c.33 6.36-.57 9.86-6.12 12.41-.29-.15-.77-.64-.97-.99.53-.15 1.21-.44 1.67-.68 3.76-2.09 4.44-5.28 4.25-9.2-.02-.46-.07-1.06-.18-1.63.42 0 .95 0 1.34.09zm27.09 11.38c-.07.37-.37.84-.64 1.06-3.21-1.72-7.7-2.91-10.56-3.3.04-.33.26-.88.48-1.1 3.65.64 7.55 1.74 10.71 3.34zm-2.18-8.01c-.09.35-.33.79-.57 1.06-2.27-.9-5.68-1.83-8.23-2.27.07-.38.22-.81.42-1.08 2.79.53 6.67 1.58 8.38 2.29zm1.67-5.94c-.09.37-.29.79-.53 1.08-2.27-.84-5.85-1.74-8.29-2.09.07-.4.22-.81.42-1.08 2.79.46 6.67 1.45 8.41 2.09zm23.02 12.76c.42 0 .92-.02 1.36-.04.07.24.09.92.09 1.17-.37-.02-.84-.02-1.32-.02-.68-.02-9.97.04-11.09.07-.35.02-1.08.02-1.58.02-.09-.29-.15-.92-.15-1.17.55.04.92.04 1.54.07.7.02 4.58 0 7.59-.04.29-1.8.79-6.05.84-7.26-2.84 0-5.63.04-6.18.04-.31 0-1.01.02-1.52.04-.09-.31-.13-.97-.13-1.19.57.04.81.07 1.41.09.62.02 3.3-.02 6.07-.04.31 0 .68-.07.86-.11.24.09.57.29.75.44-.09 1.25-.64 5.87-.95 7.99l2.42-.04zm11.03.11c.07-1.21.11-8.43.11-12.17 0-.92-.07-1.69-.11-1.98.26-.02 1.08.07 1.41.18-.15 1.85-.18 13.16-.18 14.13 3.61-.97 9.35-3.63 12.76-8.45.31.22.59.73.68 1.1-2.51 3.3-6.71 6.42-12.96 8.43-.35.13-.62.2-.99.35-.26-.13-.66-.44-.84-.68.07-.29.09-.55.11-.9zm26.03-5.3c-.13.15-.75.44-1.01.53-.42-.95-1.45-2.9-1.87-3.48.2-.15.75-.42.99-.53.35.57 1.43 2.49 1.89 3.48zm10.17-3.89c-.42 2.2-1.41 4.75-2.82 6.73-1.89 2.66-4.55 4.07-6.27 4.73-.29-.18-.7-.62-.9-.95 2.07-.55 4.58-2.07 6.27-4.44 1.41-1.98 2.27-4.29 2.57-6.62.33.09.9.35 1.14.55zm-5.99 2.29c-.15.13-.73.4-1.03.46-.35-.99-1.08-2.64-1.58-3.48.2-.13.77-.37 1.03-.44.4.68 1.21 2.51 1.58 3.45zm18.69-.69c-.02 3.61-.04 7.26-.04 7.72 0 .64.02 1.65.04 2.22-.33.04-1.08.02-1.43-.07.07-.62.13-1.34.15-2.16.07-1.17.18-12.78.18-13.51-.02-.53-.02-1.21-.11-1.89.37-.02 1.01.04 1.32.13-.02.48-.07 3.3-.09 6.38 3.06.84 5.83 1.89 8.01 2.95-.04.37-.26.95-.48 1.19-2.27-1.23-5.28-2.38-7.55-2.97zm21.22.44c-.09.29-.33.77-.55.97-1.03-.64-3.59-1.91-4.97-2.46.09-.31.33-.77.51-1.01 1.25.46 4.12 1.89 5.02 2.51zm2.84 5.54c2.97-1.74 6.23-4.77 7.94-8.36.35.2.77.68.9.97-1.85 3.26-4.71 6.21-8.23 8.34-2.4 1.43-4.69 2.31-6.67 2.88-.29-.22-.66-.81-.84-1.21 2.22-.35 4.84-1.41 6.89-2.62zm-.13-10.47c-.11.31-.4.79-.62.97-1.08-.73-3.67-2.09-4.88-2.62.09-.31.35-.79.55-1.01 1.32.62 3.98 1.96 4.95 2.66zm7.5-.24c-.15.18-.46.37-.75.46-.44-.92-1.12-2.02-1.72-2.75.2-.15.48-.35.7-.44.55.62 1.41 1.96 1.76 2.73zm2.35-1.12c-.15.15-.46.35-.75.46-.44-.92-1.14-1.96-1.72-2.66.2-.18.48-.37.7-.44.55.59 1.41 1.87 1.76 2.64zm19.04 13.33c.42 0 .92-.02 1.36-.04.07.24.09.92.09 1.17-.37-.02-.84-.02-1.32-.02-.68-.02-9.97.04-11.09.07-.35.02-1.08.02-1.58.02-.09-.29-.15-.92-.15-1.17.55.04.92.04 1.54.07.7.02 4.58 0 7.59-.04.29-1.8.79-6.05.84-7.26-2.84 0-5.63.04-6.18.04-.31 0-1.01.02-1.52.04-.09-.31-.13-.97-.13-1.19.57.04.81.07 1.41.09.62.02 3.3-.02 6.07-.04.31 0 .68-.07.86-.11.24.09.57.29.75.44-.09 1.25-.64 5.87-.95 7.99l2.42-.04zm27.71-1.54c.07.31.11.86.09 1.23-.35 0-.9-.02-1.45-.02-.79-.02-13.22.09-14.68.11-.64 0-1.45 0-2.07.02-.09-.31-.15-.88-.15-1.25.68.04 1.12.07 1.89.09.62.02 3.45 0 6.47-.02v-10.12c-2.22.02-4.16.04-4.69.07-.37 0-1.32.02-1.89.04-.09-.35-.18-.9-.18-1.23.7.02 1.12.04 1.87.07 1.47.02 10.1-.11 11.27-.11.75-.02 1.3-.07 1.85-.11.09.29.13.79.11 1.19-.42-.02-3.87.02-7.15.07v10.12c3.24-.02 6.36-.07 6.93-.07l1.78-.07zm9.45-13.01c-.02 1.08-.11 7.88-.15 9.75-.33.04-.81.09-1.25 0 .09-.97.18-7.59.18-8.19 0-.42-.04-1.25-.11-1.67.35-.02 1.03.04 1.34.11zm8.12 1.58c-.02-.68-.04-1.3-.09-1.85.35-.02.95.02 1.3.13-.04.62-.07 1.32-.04 1.69v2.24c-.02 6.58-.75 8.25-2.24 10.14-1.28 1.65-3.46 2.86-4.82 3.32-.31-.2-.77-.66-.97-1.03 1.36-.31 3.52-1.25 4.93-3.06 1.74-2.2 1.94-4.8 1.94-9.42v-2.18zm13.16 5.86c4.91.02 13.53-.07 14.72-.09.09.31.13.99.09 1.3-2.68-.15-15.18 0-17.54-.02-.07-.33-.13-.95-.11-1.32.37.04 1.5.13 2.84.13zm35.01 7.11c.09.4.07 1.03-.04 1.32-.9.31-3.06.77-5.48.77-3.26 0-6.45-1.28-6.45-4.71.02-2.49 1.8-4.07 3.7-5.39-1.17-1.5-2.57-3.92-3.5-6.14.29-.29.68-.57 1.03-.7.75 2.24 2.33 5.02 3.39 6.23 2.05-1.32 4.82-2.99 5.92-3.81.42-.31.97-.75 1.21-1.01.31.29.59.68.75 1.06-.64.53-4.6 2.93-6.64 4.22-.04.37-.07.79-.07 1.12-.2.09-.55.22-.88.24-.15-.11-.33-.24-.51-.42-1.25.81-3.26 2.27-3.26 4.49-.02 2.02 1.45 3.7 5.33 3.7 2.31 0 4.4-.48 5.5-.97zm12.53-15.45c-.09.97-.77 9.97-.77 13.11 0 2.64 1.45 3.67 3.94 3.67 2.88 0 5.74-1.65 7.39-4.09.24.22.57.84.64 1.14-1.41 1.8-4.4 4.09-8.12 4.09-2.99 0-4.97-1.3-4.97-4.66 0-2.97.42-8.49.48-10.63.07-1.47.07-2.13.02-2.84.42 0 1.08.09 1.39.2zm17.1 2.8c1.5-.15 12.92-1.8 15.29-1.8.15.26.26.77.26 1.14-.44-.04-2.18-.09-3.65.4-3.85 1.32-5.5 4.95-5.5 7.63 0 5.1 4.14 6.16 7.11 6.16-.04.44-.24.95-.48 1.21-3.21-.04-7.79-1.74-7.79-7.06 0-4.11 2.6-6.91 4.95-8.03-1.96.15-9.46 1.41-11.77 1.72-.26-.26-.48-.84-.53-1.21.9-.02 1.72-.11 2.11-.15zm32.2-3.5c-.02.15-.18.24-.44.29l-.02.33c.18 2.62 1.36 13.82 10.08 17.74-.29.22-.62.59-.81.9-6.38-2.97-8.76-9.77-9.68-14.41h-.02c-.77 4.6-2.9 11.09-9.46 14.37-.2-.24-.53-.57-.84-.77 9.26-4.49 9.46-15.56 9.62-18.55l1.58.11zm34.95 2.57h-14.98c-.99 2.05-2.29 3.87-3.7 5.15-.22-.2-.64-.51-.9-.68 2.02-1.76 3.81-4.75 4.82-7.96l1.43.42c-.04.15-.24.22-.46.2-.22.64-.46 1.3-.73 1.91h14.52v.97zm-16.04 7.9c1.5.81 3.08 1.83 4.58 2.9 1.17-1.21 2.18-2.53 2.97-3.94l1.3.53c-.04.15-.31.18-.48.15-.81 1.39-1.8 2.66-2.95 3.85 1.76 1.3 3.3 2.64 4.31 3.78l-.84.79c-.97-1.12-2.51-2.49-4.25-3.81-2.02 1.96-4.44 3.59-6.93 4.78-.18-.22-.53-.59-.77-.79 2.46-1.12 4.86-2.68 6.87-4.6-1.5-1.08-3.08-2.13-4.6-2.97l.79-.68zm-1.61-2.57h14.43c.07 6.07.4 10.5 2.33 10.5.48 0 .62-1.32.66-3.28.22.2.59.44.84.55-.13 2.86-.4 3.76-1.56 3.78-2.79-.02-3.19-4.11-3.32-10.56h-13.38v-.99zm15.47-2.18h-12.96v-.97h12.96v.97zm21.97 2.86c0 2.46-.73 6.36-2.27 8.18-.62.75-1.23.95-1.89.95-1.06 0-2.49-.55-3.76-1.34-.04-.37.02-.95.13-1.23 1.21.84 2.62 1.39 3.41 1.39.68 0 1.12-.2 1.74-1.21.97-1.58 1.52-4.47 1.52-6.6s-1.06-2.84-2.46-2.84c-.68 0-1.69.2-2.9.44-1.21 3.45-3.21 8.6-4.95 11.68-.35-.09-.86-.35-1.12-.62 2.02-3.15 4-8.34 4.86-10.83-1.45.29-3.06.57-4.58.68-.18-.31-.33-.84-.35-1.23.59.07 1.32.02 2.35-.09.77-.07 1.85-.26 2.95-.48.46-1.36.99-3.08 1.25-4.71.44.09.97.31 1.28.57-.26.73-.62 1.8-.95 2.82-.11.33-.22.7-.37 1.1 1.12-.2 2.13-.35 2.73-.35 1.67 0 3.39.88 3.39 3.72zm6.32 1.89c-.15.29-.57.62-.95.77-.7-1.98-2.75-4.82-4.16-6.09.2-.24.57-.48.86-.64 1.56 1.47 3.54 4.36 4.25 5.96zm-4.14-8.6c.18-.2.46-.42.66-.51.59.53 1.61 1.69 2.07 2.44-.13.18-.42.4-.7.53-.55-.86-1.34-1.83-2.02-2.46zm4.75.51c-.13.2-.42.42-.68.55-.55-.84-1.34-1.76-2.02-2.38.18-.2.46-.44.66-.51.62.51 1.61 1.61 2.05 2.33zm9.8.72c.59 0 1.21-.02 1.83-.04.15-1.47.26-2.68.26-3.21.44 0 .9.09 1.21.24-.11.55-.26 1.61-.42 2.88 2.16-.18 4.27-.53 6.09-1.03.13.31.18.77.15 1.03-1.54.4-3.98.84-6.36 1.06a86.4 86.4 0 00-.29 3.37c1.34-.48 2.77-.68 3.87-.68.18 0 .33 0 .51.02.18-.59.29-1.19.33-1.76.4.04.88.24 1.12.42-.07.42-.2.9-.37 1.45 3.08.55 4.71 2.73 4.71 5.48 0 3.37-2.33 5.92-6.91 6.49-.26-.22-.51-.75-.59-1.1 3.7-.13 6.45-2.07 6.45-5.43 0-2.31-1.43-4.11-3.96-4.53-.77 1.96-2.2 4.47-4.69 7.06.15.46.35.95.59 1.43-.18.24-.57.48-.9.57-.2-.35-.35-.75-.51-1.19-1.1 1.01-2.13 1.63-3.34 1.63-1.58 0-2.6-1.45-2.6-3.19 0-.92.33-1.91.88-2.68.99-1.36 2.57-2.66 4.36-3.54.07-1.23.2-2.53.31-3.74-.59.04-1.14.07-1.69.07-.44 0-1.45-.02-1.98-.07-.09-.26-.2-.86-.18-1.17.51.11 1.39.15 2.09.18h.02zm1.8 11.4c-.29-1.21-.46-2.64-.46-4.2 0-.42 0-.86.02-1.32-1.19.66-2.71 1.78-3.54 3.12-.4.62-.55 1.3-.55 1.91 0 1.03.53 2.13 1.56 2.13.88 0 1.74-.44 2.97-1.65zm4.64-6.84c-1.54 0-2.9.31-4.03.79-.04.75-.07 1.47-.07 2.09 0 .92.07 1.98.29 3.08.92-1.03 2.86-3.45 3.87-5.96h-.07zm16.87-.8c.57-2.2 2.11-5.17 4.8-5.17 2.13 0 4.6 1.72 4.6 7s-2.38 8.74-6.65 10.19c-.37-.2-.7-.62-.9-.99 3.92-.97 6.38-4.05 6.38-9.13 0-4.2-1.61-6.05-3.54-6.05-2.29 0-3.67 2.75-4.25 5.59-.33 1.47-.33 2.68-.29 3.74-.31.07-.86.04-1.19-.07-.09-1.1-.11-3.28-.09-4.31.04-1.89.33-4.58.42-5.83.02-.53.07-1.25.07-1.72.44 0 .99.02 1.34.13-.35 1.98-.73 4.78-.73 6.62h.02zm32.76 9.33c-.07.4-.31.92-.57 1.21-1.19-1.23-2.84-2.22-4.86-2.75.02.37.02.7.02.92 0 1.39-.55 3.1-3.59 3.1s-4.38-1.14-4.38-2.79c0-1.47 1.45-2.64 4.67-2.64.73 0 1.45.07 2.13.15-.04-1.23-.11-2.68-.15-4-2.02.15-4.12.15-5.92.09-.18-.35-.26-.81-.26-1.23.9.13 2.29.2 3.43.2.88 0 1.8-.02 2.73-.09-.02-.68-.04-1.28-.04-1.72 0-.79 0-1.69.02-2.53-1.76.09-3.48.09-4.75.04-.18-.31-.29-.86-.26-1.19.55.07 1.78.15 2.93.15.51 0 1.25 0 2.11-.04.02-.59.02-1.1.04-1.43.02-.88 0-1.36-.02-1.83.37-.04.92 0 1.25.13-.07.66-.15 1.69-.2 3.06 1.39-.11 2.88-.29 3.96-.62.13.29.18.75.11 1.1-1.17.26-2.62.46-4.12.55 0 .7-.02 1.47-.02 2.31 0 .62 0 1.25.02 1.91 1.89-.18 3.7-.48 5-.97.13.31.18.77.15 1.1-1.43.46-3.23.75-5.11.92.04 1.54.13 3.06.2 4.27 2.4.53 4.36 1.58 5.48 2.6zm-6.56-1.78c-.73-.11-1.5-.18-2.29-.18-2.4 0-3.43.73-3.43 1.63s.73 1.76 3.19 1.76c1.39 0 2.55-.48 2.55-2.24 0-.26 0-.59-.02-.97zm23.87-12.5c-.02-.75-.04-1.28-.13-1.83.37-.02.95 0 1.25.11-.02.46-.04 1.65-.04 2.99 3.23-.09 6.32-.15 7.26-.13.09.31.11.84.07 1.12-1.39-.11-4.25-.09-7.33 0 0 1.21 0 2.44.02 3.37.59.84.86 2.07.86 3.56 0 3.26-1.63 6.47-5.08 7.79-.29-.13-.77-.57-.92-.88 2.2-.55 4.29-2.35 4.82-5.33-.55.75-1.34 1.17-2.35 1.17-1.8 0-3.26-1.58-3.26-3.81s1.47-3.72 3.3-3.72c.64 0 1.17.11 1.61.33 0-.64-.02-1.54-.02-2.46-4 .11-8.14.29-9.7.35-.13-.29-.26-.86-.24-1.25.7.07 2.11.09 2.99.07 1.28 0 4.07-.09 6.93-.15l-.02-1.3zm.7 7.5c-.33-1.45-1.12-2.09-2.31-2.09s-2.24 1.12-2.24 2.84c0 1.45.99 2.66 2.29 2.66 1.69 0 2.4-1.45 2.27-3.41zm15.22 6.52c0-1.63 1.34-2.97 2.99-2.97s2.99 1.34 2.99 2.99-1.36 2.99-2.99 2.99-2.99-1.34-2.99-2.99v-.02zm.73.04c0 1.21 1.01 2.22 2.27 2.22s2.24-1.01 2.24-2.24-1.01-2.25-2.24-2.25-2.27.99-2.27 2.25v.02zM13.88 333.33c-2.2 3.17-5.26 4.86-8.45 5.98-.37-.18-.81-.66-1.01-1.08 3.52-.86 6.29-2.66 8.41-5.41 1.54-2.02 2.44-5.02 2.75-7.24-1.25.02-11.09.13-13.07.18-.09-.31-.2-.95-.2-1.32.68.07 1.45.11 2.27.11s9.55-.04 10.69-.09c.26-.02.51-.02.86-.09.22.13.64.51.84.77-.44 2.2-1.14 5.37-3.08 8.19zm5.21-8.27c-.15.15-.46.35-.73.44-.44-.88-1.14-2-1.74-2.71.2-.15.48-.35.68-.42.55.59 1.43 1.94 1.78 2.68zm2.05-1.14c-.15.15-.44.35-.7.44-.46-.9-1.14-1.91-1.74-2.62.2-.15.48-.35.68-.42.55.57 1.41 1.85 1.76 2.6zm17.7 11.2c-2.53 2.75-5.57 4-7.55 4.49-.31-.18-.77-.7-.92-1.08 2.24-.33 5.41-1.76 7.53-4.07 1.43-1.52 2.38-3.21 2.99-5.41-1.14.02-11.93.18-13.75.24-.11-.31-.2-.86-.18-1.28.73.07 1.39.09 2.2.11.9.02 10.41-.09 11.62-.15.31-.02.53-.04.81-.09.2.09.59.33.77.53-.7 2.22-1.63 4.64-3.52 6.71zm-7.88-12.15c1.3.04 6.67-.04 7.77-.09.73-.02 1.25-.07 1.74-.13.09.29.15.86.13 1.23-.59 0-8.03.07-9.37.09-.35 0-1.32.04-1.89.04a5.62 5.62 0 01-.18-1.23c.7.04 1.08.07 1.8.09zm25.51 3.59c-.07.35-.44.9-.68 1.12-1.25-1.08-3.65-2.49-5.66-3.37.11-.29.42-.81.59-1.03 1.69.68 4.51 2.22 5.74 3.28zm.84 8.8c3.04-1.76 6.21-4.8 7.86-8.32.33.2.75.68.9.97-1.8 3.23-4.67 6.25-8.12 8.32-2.4 1.43-4.69 2.22-6.67 2.79-.33-.33-.64-.84-.79-1.23 2.22-.35 4.8-1.32 6.82-2.53zm20.29-6.67c3.06.84 5.83 1.89 8.01 2.95-.02.37-.26.95-.48 1.19-2.27-1.23-5.28-2.38-7.55-2.97-.02 3.61-.04 7.26-.04 7.72 0 .64.02 1.65.07 2.22-.33.04-1.1.02-1.43-.07.07-.62.11-1.34.13-2.16.07-1.17.18-12.78.18-13.51-.02-.53-.02-1.21-.11-1.89.37-.02 1.03.04 1.32.13-.02.48-.07 3.3-.09 6.38zm6.67-2.29c-.46-.9-1.25-2.18-1.8-2.88.18-.18.51-.37.7-.42.53.59 1.5 2.09 1.85 2.86a1.7 1.7 0 01-.75.44zm3.23-1.58c-.15.15-.46.35-.75.44-.44-.9-1.23-2.09-1.8-2.82.2-.15.51-.37.7-.42.55.59 1.5 2.02 1.85 2.79zm21.57-.42s.46 0 1.23-.04c-.04 1.01-.04 1.54-.04 1.54-.04 2.99-.04 8.98 0 11.51 0 .44.02.84.02 1.1-.33.02-.88.02-1.19 0 0 0 .02-.29.02-1.1v-.66c-2.18-.04-9.15-.07-11.53-.02v1.78c-.35.02-.88.02-1.23 0 .02-.35.04-.75.07-1.32.07-3.04.02-8.98-.02-11.66 0 0 0-.55-.02-1.17 1.03.04 1.56.02 1.56.02v.02c1.01.02 8.08.09 11.13.02v-.02zm.04 11.24l.02-10.14c-.84 0-9.57-.04-11.57 0l.02 10.14h11.53zm23.07-9.66c-.84-.02-10.61.04-12.63.11-.13-.37-.18-.95-.15-1.25.42.02 1.1.11 1.63.11 1.14.02 11.27.02 12.37-.13-.07.95-.24 12.28-.09 14.08-.35.07-.88.07-1.25 0l.02-1.52c-2.49-.02-9.7 0-10.61 0-1.01 0-1.74.04-2.33.07-.09-.33-.13-.92-.13-1.3 1.54.11 10.5.09 13.07.07l.11-10.23zm1.54-3.56c.55.59 1.39 1.91 1.76 2.66-.15.18-.46.35-.73.46-.44-.9-1.12-2-1.72-2.71.2-.15.48-.35.68-.42zm3.92 1.52c-.15.18-.44.35-.73.46-.44-.9-1.12-1.91-1.72-2.6.2-.18.48-.37.68-.44.55.57 1.39 1.83 1.76 2.57zm10.3 9.26c-.62 1.32-2.09 5.13-2.4 6.34-.26.02-.64.02-.95-.04-.35-1.25-.64-3.83-.64-6.62 0-3.37.4-6.62.66-8.47.11-.73.22-1.85.26-2.44.4.04.99.18 1.28.37-.59 2.97-1.08 6.49-1.1 9.97 0 1.96.11 3.63.24 4.49.02.15.13.2.18.02.31-.81.99-2.75 1.58-4.22.33.13.64.33.88.62zm9.77-5.57c0 2.99.15 4.93.24 6.87 1.83.53 3.3 1.41 4.2 2.16-.04.35-.22.88-.46 1.17a10.124 10.124 0 00-3.72-2.22v.48c0 1.28-.44 3.19-3.37 3.19s-4.16-1.32-4.16-2.73c0-1.3.84-2.57 4-2.57.84 0 1.65.09 2.4.24-.07-1.87-.2-4.49-.2-6.56v-.68c-2.05.15-4.07.15-5.35.09-.13-.29-.24-.81-.24-1.19 1.58.22 3.67.22 5.59.07.02-1.67.04-3.28.04-3.92.4 0 .95.07 1.23.18-.13 1.12-.18 2.4-.2 3.65 1.56-.15 2.93-.42 3.57-.68.09.31.04.86-.02 1.12-.99.29-2.24.48-3.56.59v.75zm-.81 7.63c-.92-.22-1.8-.33-2.53-.33-1.87 0-2.88.53-2.88 1.52 0 1.08 1.12 1.76 2.75 1.76 2.2 0 2.66-.92 2.66-2.53v-.42zm17.04 5.22c-1.25-1.8-3.26-3.76-5.02-5.02.2-.29.59-.66.88-.81 1.74 1.28 3.63 3.08 5.1 5.02-.18.26-.66.64-.97.81zm12.43-15.33c-.09-.26-.2-.86-.2-1.28.9.07 2.16.09 2.95.09.97-.02 11.11-.09 12.43-.11.4-.02.64-.04.9-.09.26.13.59.46.77.66-1.01 1.85-3.08 4.82-6.16 6.62-.33-.11-.84-.51-1.01-.77 2.27-.97 4.91-3.85 5.59-5.39-1.17 0-12.17.15-13.53.2l-1.74.07zm8.38 2c.33 6.36-.57 9.86-6.12 12.41-.29-.15-.77-.64-.97-.99.53-.15 1.21-.44 1.67-.68 3.76-2.09 4.45-5.28 4.25-9.2-.02-.46-.07-1.06-.18-1.63.42 0 .95 0 1.34.09zm27.09 11.38c-.07.37-.37.84-.64 1.06-3.21-1.72-7.7-2.91-10.56-3.3.04-.33.26-.88.48-1.1 3.65.64 7.55 1.74 10.72 3.34zm-2.18-8.01c-.09.35-.33.79-.57 1.06-2.27-.9-5.68-1.83-8.23-2.27.07-.38.22-.81.42-1.08 2.79.53 6.67 1.58 8.38 2.29zm1.67-5.94c-.09.37-.29.79-.53 1.08-2.27-.84-5.85-1.74-8.29-2.09.07-.4.22-.81.42-1.08 2.79.46 6.67 1.45 8.41 2.09zm23.02 12.76c.42 0 .92-.02 1.36-.04.07.24.09.92.09 1.17-.37-.02-.84-.02-1.32-.02-.68-.02-9.97.04-11.09.07-.35.02-1.08.02-1.58.02-.09-.29-.15-.92-.15-1.17.55.04.92.04 1.54.07.7.02 4.58 0 7.59-.04.29-1.8.79-6.05.84-7.26-2.84 0-5.63.04-6.18.04-.31 0-1.01.02-1.52.04-.09-.31-.13-.97-.13-1.19.57.04.81.07 1.41.09.62.02 3.3-.02 6.07-.04.31 0 .68-.07.86-.11.24.09.57.29.75.44-.09 1.25-.64 5.87-.95 7.99l2.42-.04zm11.03.11c.07-1.21.11-8.43.11-12.17 0-.92-.07-1.69-.11-1.98.26-.02 1.08.07 1.41.18-.15 1.85-.18 13.16-.18 14.13 3.61-.97 9.35-3.63 12.76-8.45.31.22.59.73.68 1.1-2.51 3.3-6.71 6.42-12.96 8.43-.35.13-.62.2-.99.35-.26-.13-.66-.44-.84-.68.07-.29.09-.55.11-.9zm26.03-5.3c-.13.15-.75.44-1.01.53-.42-.95-1.45-2.9-1.87-3.48.2-.15.75-.42.99-.53.35.57 1.43 2.49 1.89 3.48zm10.17-3.89c-.42 2.2-1.41 4.75-2.82 6.73-1.89 2.66-4.55 4.07-6.27 4.73-.29-.18-.7-.62-.9-.95 2.07-.55 4.58-2.07 6.27-4.44 1.41-1.98 2.27-4.29 2.57-6.62.33.09.9.35 1.14.55zm-5.99 2.29c-.15.13-.73.4-1.03.46-.35-.99-1.08-2.64-1.58-3.48.2-.13.77-.37 1.03-.44.4.68 1.21 2.51 1.58 3.45zm18.69-.69c-.02 3.61-.04 7.26-.04 7.72 0 .64.02 1.65.04 2.22-.33.04-1.08.02-1.43-.07.07-.62.13-1.34.15-2.16.07-1.17.18-12.78.18-13.51-.02-.53-.02-1.21-.11-1.89.37-.02 1.01.04 1.32.13-.02.48-.07 3.3-.09 6.38 3.06.84 5.83 1.89 8.01 2.95-.04.37-.26.95-.48 1.19-2.27-1.23-5.28-2.38-7.55-2.97zm21.22.44c-.09.29-.33.77-.55.97-1.03-.64-3.59-1.91-4.97-2.46.09-.31.33-.77.51-1.01 1.25.46 4.12 1.89 5.02 2.51zm2.84 5.54c2.97-1.74 6.23-4.77 7.94-8.36.35.2.77.68.9.97-1.85 3.26-4.71 6.21-8.23 8.34-2.4 1.43-4.69 2.31-6.67 2.88-.29-.22-.66-.81-.84-1.21 2.22-.35 4.84-1.41 6.89-2.62zm-.13-10.47c-.11.31-.4.79-.62.97-1.08-.73-3.67-2.09-4.88-2.62.09-.31.35-.79.55-1.01 1.32.62 3.98 1.96 4.95 2.66zm7.5-.24c-.15.18-.46.37-.75.46-.44-.92-1.12-2.02-1.72-2.75.2-.15.48-.35.7-.44.55.62 1.41 1.96 1.76 2.73zm2.35-1.12c-.15.15-.46.35-.75.46-.44-.92-1.14-1.96-1.72-2.66.2-.18.48-.37.7-.44.55.59 1.41 1.87 1.76 2.64zm19.04 13.33c.42 0 .92-.02 1.36-.04.07.24.09.92.09 1.17-.37-.02-.84-.02-1.32-.02-.68-.02-9.97.04-11.09.07-.35.02-1.08.02-1.58.02-.09-.29-.15-.92-.15-1.17.55.04.92.04 1.54.07.7.02 4.58 0 7.59-.04.29-1.8.79-6.05.84-7.26-2.84 0-5.63.04-6.18.04-.31 0-1.01.02-1.52.04-.09-.31-.13-.97-.13-1.19.57.04.81.07 1.41.09.62.02 3.3-.02 6.07-.04.31 0 .68-.07.86-.11.24.09.57.29.75.44-.09 1.25-.64 5.87-.95 7.99l2.42-.04zm27.71-1.54c.07.31.11.86.09 1.23-.35 0-.9-.02-1.45-.02-.79-.02-13.22.09-14.68.11-.64 0-1.45 0-2.07.02-.09-.31-.15-.88-.15-1.25.68.04 1.12.07 1.89.09.62.02 3.46 0 6.47-.02v-10.12c-2.22.02-4.16.04-4.69.07-.37 0-1.32.02-1.89.04-.09-.35-.18-.9-.18-1.23.7.02 1.12.04 1.87.07 1.47.02 10.1-.11 11.27-.11.75-.02 1.3-.07 1.85-.11.09.29.13.79.11 1.19-.42-.02-3.87.02-7.15.07v10.12c3.23-.02 6.36-.07 6.93-.07l1.78-.07zm9.45-13.01c-.02 1.08-.11 7.88-.15 9.75-.33.04-.81.09-1.25 0 .09-.97.18-7.59.18-8.19 0-.42-.04-1.25-.11-1.67.35-.02 1.03.04 1.34.11zm8.12 1.58c-.02-.68-.04-1.3-.09-1.85.35-.02.95.02 1.3.13-.04.62-.07 1.32-.04 1.69v2.24c-.02 6.58-.75 8.25-2.24 10.14-1.28 1.65-3.45 2.86-4.82 3.32-.31-.2-.77-.66-.97-1.03 1.36-.31 3.52-1.25 4.93-3.06 1.74-2.2 1.94-4.8 1.94-9.42v-2.18zm13.16 5.86c4.91.02 13.53-.07 14.72-.09.09.31.13.99.09 1.3-2.68-.15-15.18 0-17.54-.02-.07-.33-.13-.95-.11-1.32.37.04 1.5.13 2.84.13zm31.66.81c1.94-.99 3.87-1.96 5.37-2.86.46-.31.9-.64 1.28-.97.22.26.42.79.44 1.17-.77.62-5 2.71-7.09 3.74 0 1.08.02 2.6 0 3.67-.29.07-.77.07-1.12-.04.07-.53.11-1.91.11-3.1-2 1.01-3.78 1.98-3.78 3.79 0 2 2.57 2.33 4.62 2.33s3.74-.48 4.8-.88c.09.37.07.95-.04 1.28-.79.26-2.84.68-4.82.68-2.2 0-5.68-.53-5.68-3.32 0-2.55 2.33-3.63 4.91-4.95l-.02-.55c-.04-.99-.75-1.69-2.09-1.69-2 0-3.54 1.72-5.1 3.52-.31-.2-.68-.64-.84-.95 2.79-2.68 4.25-5.19 5.06-6.82-1.23.11-2.53.15-3.79.15-.15-.26-.26-.79-.29-1.21.59.11 1.23.11 1.54.11.81 0 1.89-.02 3.04-.11.44-1.06.77-2.31.86-3.06.33.04.97.26 1.25.46-.13.42-.55 1.63-.9 2.49 1.56-.15 3.12-.42 4.27-.84.13.29.2.73.2 1.03-1.45.37-3.17.68-4.97.86-.53.97-1.63 2.84-2.71 4.31h.02c1.01-.66 1.89-.88 2.73-.88 1.54 0 2.75.9 2.75 2.62v.02zm22.36-1.16c3.54-.02 7.35-.04 7.99-.07.48 0 1.08-.04 1.61-.07.07.26.11.84.11 1.19-.35 0-.86-.02-1.36-.02-.51-.02-4.64 0-8.34.04-.02 2.73-.07 4.62-.02 5.44.02.62.13 1.39 1.23 1.56 1.72.29 6.23.07 7.79-.42.04.29-.04.92-.15 1.28-1.19.24-5.57.62-7.94.24-1.03-.18-2.09-.77-2.11-2.31 0-1.28.04-4.31.04-5.79-2.33.02-4.29.04-4.77.07-.37 0-1.32 0-1.94.02-.09-.29-.18-.95-.15-1.21.64.04 1.03.07 1.78.07.55.02 2.64 0 5.08 0-.02-1.21 0-4.03 0-5.02l-3.06.04c-.35 0-1.36.04-1.94.04-.07-.33-.15-.92-.15-1.21.7.04 1.06.07 1.83.09 1.45.04 8.93-.09 10.17-.13.75-.02 1.3-.07 1.8-.13.07.29.11.86.09 1.21-.42-.02-4.33.02-7.57.07v5.02zm27-.48c2.97-.02 5.74-.07 6.25-.07s1.19-.02 1.69-.04c.07.29.11.81.11 1.17-.42-.02-.92-.04-1.45-.04-.44 0-3.45.02-6.62.04-.26 4.53-2.11 7.24-6.31 9.2-.31-.2-.77-.64-.95-.97 3.72-1.32 5.83-3.76 6.14-8.23-3.15.02-6.18.07-6.8.07-.42 0-1.34.02-1.94.02-.09-.29-.15-.88-.15-1.17.66.02 1.1.04 1.85.07.64.02 3.85 0 7.08-.02v-4.69c-1.85.26-4.44.59-6.4.68-.24-.31-.44-.84-.51-1.21 1.41.11 4.78-.2 7.22-.57 2.31-.37 4.47-.81 5.41-1.21.22.2.55.73.64 1.01-.99.37-3.37.79-5.26 1.12v4.84zm18.2.83c4.91.02 13.53-.07 14.72-.09.09.31.13.99.09 1.3-2.68-.15-15.18 0-17.54-.02-.07-.33-.13-.95-.11-1.32.37.04 1.5.13 2.84.13zm31.25 2.86c-2.2 3.17-5.52 5.1-8.71 6.23-.37-.18-.81-.64-1.01-1.06 3.54-.86 6.56-2.9 8.67-5.68 1.61-2.09 2.6-5.04 2.95-7.35-1.25.02-11.73.13-13.69.18-.11-.33-.22-.92-.22-1.3.68.07 1.45.11 2.27.11s10.25-.04 11.4-.09c.26-.02.51-.02.86-.09.2.09.62.4.77.59-.48 2.42-1.25 5.52-3.28 8.45zm13.36-10.38c-.64 2.99-.99 6.49-.97 9.77 0 1.67.15 3.21.46 4.14.02.11.09.15.13 0 .31-.9.88-2.82 1.39-4.31.33.11.7.33.92.57-.44.99-1.92 5.21-2.11 6.36-.31.02-.66 0-.97-.09-.55-1.45-.92-3.61-.95-6.14-.04-3.21.31-6.56.55-8.21.11-.73.26-1.85.31-2.46.44.07.9.18 1.23.37zm5.7 10.45c-.24.46-.53 1.12-.53 1.8 0 1.03.86 2.27 4.64 2.27 2.09 0 3.96-.35 4.97-.75.13.29.2.88.18 1.21-.77.24-2.82.66-5.06.66-3.83 0-5.83-1.14-5.83-3.21 0-.95.35-1.83.62-2.4.4.09.79.26 1.01.42zm8.32-9.35c.09.31.09.86.07 1.17-1.98.33-6.49.31-8.43.09-.09-.26-.15-.81-.13-1.19 2.18.46 6.95.4 8.49-.07zm11.88-1.92c-.09.97-.77 9.97-.77 13.11 0 2.64 1.45 3.67 3.94 3.67 2.88 0 5.74-1.65 7.39-4.09.24.22.57.84.64 1.14-1.41 1.8-4.4 4.09-8.12 4.09-2.99 0-4.97-1.3-4.97-4.66 0-2.97.42-8.49.48-10.63.07-1.47.07-2.13.02-2.84.42 0 1.08.09 1.39.2zm33.55 15.49c-.07.4-.31.92-.57 1.21-1.19-1.23-2.84-2.22-4.86-2.75.02.37.02.7.02.92 0 1.39-.55 3.1-3.59 3.1s-4.38-1.14-4.38-2.79c0-1.47 1.45-2.64 4.67-2.64.73 0 1.45.07 2.13.15-.04-1.23-.11-2.68-.15-4-2.02.15-4.11.15-5.92.09-.18-.35-.26-.81-.26-1.23.9.13 2.29.2 3.43.2.88 0 1.8-.02 2.73-.09-.02-.68-.04-1.28-.04-1.72 0-.79 0-1.69.02-2.53-1.76.09-3.48.09-4.75.04-.18-.31-.29-.86-.26-1.19.55.07 1.78.15 2.93.15.51 0 1.25 0 2.11-.04.02-.59.02-1.1.04-1.43.02-.88 0-1.36-.02-1.83.37-.04.92 0 1.25.13-.07.66-.15 1.69-.2 3.06 1.39-.11 2.88-.29 3.96-.62.13.29.18.75.11 1.1-1.17.26-2.62.46-4.12.55 0 .7-.02 1.47-.02 2.31 0 .62 0 1.25.02 1.91 1.89-.18 3.7-.48 5-.97.13.31.18.77.15 1.1-1.43.46-3.23.75-5.11.92.04 1.54.13 3.06.2 4.27 2.4.53 4.36 1.58 5.48 2.6zm-6.56-1.78c-.73-.11-1.5-.18-2.29-.18-2.4 0-3.43.73-3.43 1.63s.73 1.76 3.19 1.76c1.39 0 2.55-.48 2.55-2.24 0-.26 0-.59-.02-.97zm18.39-13.71c-.09.97-.77 9.97-.77 13.11 0 2.64 1.45 3.67 3.94 3.67 2.88 0 5.74-1.65 7.39-4.09.24.22.57.84.64 1.14-1.41 1.8-4.4 4.09-8.12 4.09-2.99 0-4.97-1.3-4.97-4.66 0-2.97.42-8.49.48-10.63.07-1.47.07-2.13.02-2.84.42 0 1.08.09 1.39.2zm19.51 3.65c.99 0 2.13-.11 3.28-.26.09-.4.15-.7.2-.95.22-1.1.46-2.27.46-3.17.42.07.99.18 1.34.35-.15.62-.46 2-.84 3.57 1.76-.31 3.41-.73 4.29-1.1.07.31.04.92 0 1.23-1.03.31-2.73.68-4.58.99-.24.95-.48 1.94-.73 2.84-.75 2.82-2.27 7.68-3.28 10.43-.42-.07-.95-.22-1.23-.44 1.06-2.44 2.84-8.03 3.46-10.23.24-.9.46-1.72.64-2.44-1.45.2-2.93.33-4.2.33-.13-.22-.26-.86-.29-1.21.4.04.84.07 1.45.07h.02zm16.24 12.21c.02.33-.07.99-.24 1.28-.51.15-1.91.33-3.56.33-3.39 0-5.65-1.23-5.61-3.45.02-.9.44-1.83.79-2.44.35.04.79.24 1.03.44-.31.46-.68 1.17-.7 1.89-.02 1.06.81 2.46 4.58 2.46 1.67 0 2.99-.24 3.72-.51zm-3.39-11.13c.84 0 2.55.09 3.63.22 0 .33-.04.84-.18 1.14-.92-.18-2.18-.31-3.5-.31-.99 0-2.13.07-3.17.22-.04-.26-.07-.81 0-1.12 1.1-.11 2.31-.15 3.19-.15h.02zm11.86 10.5c0-1.63 1.34-2.97 2.99-2.97s2.99 1.34 2.99 2.99-1.36 2.99-2.99 2.99-2.99-1.34-2.99-2.99v-.02zm.73.04c0 1.21 1.01 2.22 2.27 2.22s2.24-1.01 2.24-2.24-1.01-2.25-2.24-2.25-2.27.99-2.27 2.25v.02zM5.35 412.89c-.4.66-.79 1.5-.79 2.31 0 1.65 1.63 2.77 5.48 2.77 3.17 0 5.57-.51 7-1.17.22.31.35.81.37 1.19-1.28.55-3.76 1.12-7.26 1.12-3.98 0-6.73-1.19-6.73-3.7 0-1.06.44-2.18.88-3.01.35.07.81.26 1.06.48zm-.46-9.4c2.77.7 8.21.57 10.78.07.09.35.04.84-.02 1.17-2.31.4-7.68.51-10.65.02-.13-.4-.15-.84-.11-1.25zm29.31.78c0 1.65-.37 5.06-.9 7.11-.97 3.89-2.33 6.6-4.6 6.6-2 0-3.96-2.75-3.96-5.96 0-4.88 3.98-8.74 9.5-8.74 5.02 0 8.52 3.21 8.52 7.86s-2.77 7.59-7.04 8.29c-.26-.26-.55-.79-.64-1.17.7-.04 1.25-.15 1.74-.29 2.2-.59 4.78-2.46 4.78-6.87 0-3.94-2.82-6.84-7.35-6.84h-.04zm-1.17.07c-4.62.55-7.17 4.22-7.17 7.53 0 3.01 1.63 4.86 2.88 4.86 1.32 0 2.53-1.76 3.48-5.59.48-2 .9-5.28.81-6.8zm35.09 2.39c.07.31.11.79.09 1.17-.42-.02-.92-.02-1.47-.04h-3.43c-.02 5.92-1.3 9.57-6.71 11.93-.35-.2-.81-.7-.99-1.06.53-.13 1.43-.46 1.91-.73 2.86-1.54 4.67-3.98 4.67-9.75v-.37l-6.71.04v5.41c-.29.02-.88.04-1.28 0 .04-.33.09-.88.11-1.56.02-.95.02-2.42.02-3.83l-2.71.02c-.4.02-1.34.02-1.94.04-.11-.31-.18-.88-.15-1.19.66.04 1.1.04 1.87.09.33.02 1.45 0 2.93 0l-.02-2.79c0-.62-.04-1.25-.11-1.74.35-.02 1.01 0 1.3.07 0 .29-.02 2.27-.02 4.47 2.09-.02 4.6-.04 6.71-.07 0-1.21-.02-2.46-.04-3.06 0-.51-.04-1.23-.15-1.76.37-.02 1.06.02 1.36.09 0 .44-.04 2.68-.04 4.73l3.1-.04 1.72-.07zm18.78 6.6c-2.2 3.17-5.26 4.86-8.45 5.98-.37-.18-.81-.66-1.01-1.08 3.52-.86 6.29-2.66 8.41-5.41 1.54-2.02 2.44-5.02 2.75-7.24-1.25.02-11.09.13-13.07.18-.09-.31-.2-.95-.2-1.32.68.07 1.45.11 2.27.11s9.62-.04 10.74-.09c.26-.02.53-.02.86-.09.22.11.64.44.81.66-.46 2.33-1.17 5.48-3.1 8.3zm2.93-10.23c0-1.14.92-2.07 2.09-2.07s2.11.92 2.11 2.09-.95 2.09-2.11 2.09-2.09-.92-2.09-2.09v-.02zm.73.04c0 .73.62 1.32 1.36 1.32s1.34-.59 1.34-1.34-.62-1.34-1.34-1.34-1.36.59-1.36 1.34v.02zm12.99-.35c-.02 1.08-.11 7.88-.15 9.75-.33.04-.81.09-1.25 0 .09-.97.18-7.59.18-8.19 0-.42-.04-1.25-.11-1.67.35-.02 1.03.04 1.34.11zm8.12 1.58c-.02-.68-.04-1.3-.09-1.85.35-.02.95.02 1.3.13-.04.62-.07 1.32-.04 1.69v2.24c-.02 6.58-.75 8.25-2.24 10.14-1.28 1.65-3.45 2.86-4.82 3.32-.31-.2-.77-.66-.97-1.03 1.36-.31 3.52-1.25 4.93-3.06 1.74-2.2 1.94-4.8 1.94-9.42v-2.18zm24.1 10.15c-.15.35-.51.86-.84 1.1-1.03-1.12-2.44-2.38-4.47-3.83-1.94 2.75-5.35 5.76-8.71 7.37-.33-.2-.81-.59-1.06-.99 3.41-1.34 6.82-4.25 8.84-7.02-1.8-1.21-3.83-2.42-5.46-3.19.2-.33.48-.73.77-.92 1.43.73 3.76 2.11 5.33 3.15 1.63-2.53 2.75-5.39 3.19-7.5.48.11.99.42 1.21.64-.66 2.18-1.83 4.93-3.48 7.53 1.69 1.19 3.74 2.75 4.67 3.67zm14.69-7.96c-.07.35-.44.9-.68 1.12-1.25-1.08-3.65-2.49-5.66-3.37.11-.29.42-.81.59-1.03 1.69.68 4.51 2.22 5.74 3.28zm.84 8.8c3.04-1.76 6.21-4.8 7.86-8.32.33.2.75.68.9.97-1.8 3.23-4.67 6.25-8.12 8.32-2.4 1.43-4.69 2.22-6.67 2.79-.33-.33-.64-.84-.79-1.23 2.22-.35 4.8-1.32 6.82-2.53zm20.42-5.5c-.02 3.61-.04 7.26-.04 7.72 0 .64.02 1.65.04 2.22-.33.04-1.08.02-1.43-.07.07-.62.13-1.34.15-2.16.07-1.17.18-12.78.18-13.51-.02-.53-.02-1.21-.11-1.89.37-.02 1.01.04 1.32.13-.02.48-.07 3.3-.09 6.38 3.06.84 5.83 1.89 8.01 2.95-.04.37-.26.95-.48 1.19-2.27-1.23-5.28-2.38-7.55-2.97zm27.65-.09c0 2.46-.73 6.36-2.27 8.18-.62.75-1.23.95-1.89.95-1.06 0-2.49-.55-3.76-1.34-.04-.37.02-.95.13-1.23 1.21.84 2.62 1.39 3.41 1.39.68 0 1.12-.2 1.74-1.21.97-1.58 1.52-4.47 1.52-6.6s-1.06-2.84-2.46-2.84c-.68 0-1.69.2-2.9.44-1.21 3.45-3.21 8.6-4.95 11.68-.35-.09-.86-.35-1.12-.62 2.02-3.15 4-8.34 4.86-10.83-1.45.29-3.06.57-4.58.68-.18-.31-.33-.84-.35-1.23.59.07 1.32.02 2.35-.09.77-.07 1.85-.26 2.95-.48.46-1.36.99-3.08 1.25-4.71.44.09.97.31 1.28.57-.26.73-.62 1.8-.95 2.82-.11.33-.22.7-.37 1.1 1.12-.2 2.13-.35 2.73-.35 1.67 0 3.39.88 3.39 3.72zm6.32 1.89c-.15.29-.57.62-.95.77-.7-1.98-2.75-4.82-4.16-6.09.2-.24.57-.48.86-.64 1.56 1.47 3.54 4.36 4.25 5.96zm-4.14-8.6c.18-.2.46-.42.66-.51.59.53 1.61 1.69 2.07 2.44-.13.18-.42.4-.7.53-.55-.86-1.34-1.83-2.02-2.46zm4.75.51c-.13.2-.42.42-.68.55-.55-.84-1.34-1.76-2.02-2.38.18-.2.46-.44.66-.51.62.51 1.61 1.61 2.05 2.33zm10.16 7.08c3.41-.92 8.56-2 12.23-2.22.11.26.18.86.18 1.19-1.96 0-4 .18-5.68.59-1.69.42-4.38 2.09-4.38 4.86s3.04 3.7 5.17 3.7c.97 0 1.67-.07 2.16-.15 0 .35-.11.95-.29 1.21-5.02.44-8.14-1.52-8.14-4.69 0-2.22 1.5-3.67 2.66-4.49-1.61.33-4.33.99-6.84 1.91-.18-.26-.35-.7-.42-1.06.79-.33 1.45-.66 1.96-1.03 1.58-1.08 3.19-2.44 5.04-4.03 1.61-1.41 3.23-2.9 3.83-3.48-1.34.15-5.99.73-7.61.86-.18-.29-.33-.88-.33-1.17.53 0 .9 0 1.67-.04.92-.07 5.81-.53 7.35-.77.26.2.55.7.68 1.03-1.5 1.25-6.97 6.25-9.24 7.75v.02zm24.31 2.55c-.62 1.32-2.09 5.13-2.4 6.34-.26.02-.64.02-.95-.04-.35-1.25-.64-3.83-.64-6.62 0-3.37.4-6.62.66-8.47.11-.73.22-1.85.26-2.44.4.04.99.18 1.28.37-.59 2.97-1.08 6.49-1.1 9.97 0 1.96.11 3.63.24 4.49.02.15.13.2.18.02.31-.81.99-2.75 1.58-4.22.33.13.64.33.88.62zm9.64-5.57c0 2.99.15 4.93.24 6.87 1.83.53 3.3 1.41 4.2 2.16-.04.35-.24.88-.48 1.17-1.1-1.06-2.42-1.78-3.7-2.22v.48c0 1.28-.44 3.19-3.39 3.19s-4.16-1.32-4.16-2.73c0-1.3.86-2.57 4-2.57.84 0 1.65.09 2.42.24-.07-1.87-.22-4.49-.22-6.56v-.68c-2.02.15-4.05.15-5.3.09-.13-.29-.24-.81-.24-1.19 1.56.22 3.65.22 5.54.07.02-1.67.04-3.28.04-3.92.4 0 .95.04 1.25.15-.15 1.12-.2 2.42-.22 3.67 1.58-.15 2.95-.42 3.59-.68.09.31.07.86-.02 1.12-.99.29-2.24.48-3.56.59v.75zm-.81 7.63c-.92-.22-1.8-.33-2.53-.33-1.87 0-2.9.53-2.9 1.52 0 1.08 1.14 1.76 2.75 1.76 2.22 0 2.68-.92 2.68-2.53v-.42zm3.3-10.74c-.33-.95-.68-1.67-1.17-2.44.2-.15.48-.29.68-.33.46.66.95 1.63 1.23 2.42-.18.15-.48.29-.75.35zm2.95-1.19c-.2.15-.46.29-.77.35-.31-.95-.64-1.58-1.14-2.38.22-.13.51-.29.73-.31.46.64.92 1.54 1.19 2.33zm8.68-.62c-.64 2.99-.99 6.49-.97 9.77 0 1.67.15 3.21.46 4.14.02.11.09.15.13 0 .31-.9.88-2.82 1.39-4.31.33.11.7.33.92.57-.44.99-1.91 5.21-2.11 6.36-.31.02-.66 0-.97-.09-.55-1.45-.92-3.61-.95-6.14-.04-3.21.31-6.56.55-8.21.11-.73.26-1.85.31-2.46.44.07.9.18 1.23.37zm5.7 10.45c-.24.46-.53 1.12-.53 1.8 0 1.03.86 2.27 4.64 2.27 2.09 0 3.96-.35 4.97-.75.13.29.2.88.18 1.21-.77.24-2.82.66-5.06.66-3.83 0-5.83-1.14-5.83-3.21 0-.95.35-1.83.62-2.4.4.09.79.26 1.01.42zm8.32-9.35c.09.31.09.86.07 1.17-1.98.33-6.49.31-8.43.09-.09-.26-.15-.81-.13-1.19 2.18.46 6.95.4 8.49-.07zm9.55 6.53c.42 4.05 1.69 6.93 3.12 6.93.95 0 1.52-1.96 1.98-5.02.37.13.84.37 1.08.62-.79 4.42-1.74 5.68-2.99 5.68-1.78 0-3.67-2.18-4.33-8.08-.26-2.57-.35-4.53-.51-6.18.33-.02 1.01.02 1.34.13-.04.95.13 4.25.31 5.92zm16.55 3.79c-.22.22-.7.44-1.14.53-.4-2.82-1.83-6.21-4.14-8.67.24-.24.66-.51.95-.64 2.44 2.57 4.03 6.58 4.33 8.78zm7.19-9.44c1.5-.15 12.92-1.8 15.29-1.8.15.26.26.77.26 1.14-.44-.04-2.18-.09-3.65.4-3.85 1.32-5.5 4.95-5.5 7.63 0 5.1 4.14 6.16 7.11 6.16-.04.44-.24.95-.48 1.21-3.21-.04-7.79-1.74-7.79-7.06 0-4.11 2.6-6.91 4.95-8.03-1.96.15-9.46 1.41-11.77 1.72-.26-.26-.48-.84-.53-1.21.9-.02 1.72-.11 2.11-.15zm38.48 9.88c0 2.73-1.76 4.58-4.31 4.58-1.08 0-2.09-.13-3.1-.46-.15-.35-.18-.9-.11-1.25.9.4 2.09.62 3.06.62 1.76 0 3.37-1.01 3.37-3.48s-2.22-3.48-3.94-3.48c-2.05 0-4.14.59-5.72 1.3.02 1.72.07 3.52.09 4.69.02 1.87-.68 2.4-1.54 2.4-1.54 0-4.05-1.41-4.05-3.01 0-1.94 2.75-3.78 4.47-4.62 0-.92-.02-1.8-.02-2.49 0-.75.02-1.52.02-2.25-1.23.2-2.97.42-4.2.48-.2-.31-.31-.79-.33-1.12 1.8-.07 3.32-.22 4.55-.4.07-2.02.13-3.74.02-4.51.42-.02 1.06.04 1.32.15-.09 1.03-.2 2.57-.26 4.2 1.52-.26 3.63-.73 4.33-.97.09.29.07.77.02 1.1-.64.15-2.79.62-4.4.88-.02 1.03-.04 2.05-.04 2.95v1.5c1.78-.73 3.94-1.23 5.85-1.23 2.73 0 4.93 1.67 4.93 4.42zm-11.77-1.67c-1.43.77-3.41 2.13-3.41 3.48 0 1.17 1.78 1.94 2.57 1.94.53 0 .86-.15.88-1.25.02-.97-.02-2.57-.04-4.16zm13.95-5.68c-.09.37-.37.84-.55 1.03-.9-.84-3.41-2.31-5.06-2.93.11-.33.33-.66.53-.92 1.65.7 4.18 2.11 5.08 2.82zm25.87 2.04v1.06h-6.05v8.74c0 .86-.26 1.23-.9 1.41-.62.18-1.34.18-4.07.18-.07-.29-.24-.75-.42-1.06.88.02 1.69.04 2.35.04 1.8 0 1.94 0 1.94-.57v-8.74H358.5v-1.06h12.72v-3.78l1.47.09c-.02.13-.11.24-.37.26v3.43h6.05zm-18.04-5.15v3.34h-1.08v-4.38h8.58v-2.82l1.5.11c-.02.15-.13.24-.4.26v2.44h8.67v4.38h-1.1v-3.34h-16.17zm5 13.09c-.68-1.34-2.29-3.39-3.76-4.84l.81-.55c1.52 1.43 3.15 3.43 3.85 4.77l-.9.62zm22.88-9.15c.57-2.2 2.11-5.17 4.8-5.17 2.13 0 4.6 1.72 4.6 7s-2.38 8.74-6.65 10.19c-.37-.2-.7-.62-.9-.99 3.92-.97 6.38-4.05 6.38-9.13 0-4.2-1.61-6.05-3.54-6.05-2.29 0-3.67 2.75-4.25 5.59-.33 1.47-.33 2.68-.29 3.74-.31.07-.86.04-1.19-.07-.09-1.1-.11-3.28-.09-4.31.04-1.89.33-4.58.42-5.83.02-.53.07-1.25.07-1.72.44 0 .99.02 1.34.13-.35 1.98-.73 4.78-.73 6.62h.02zm31.51 9.29c.09.4.07 1.03-.04 1.32-.9.31-3.06.77-5.48.77-3.26 0-6.45-1.28-6.45-4.71.02-2.49 1.8-4.07 3.7-5.39-1.17-1.5-2.57-3.92-3.5-6.14.29-.29.68-.57 1.03-.7.75 2.24 2.33 5.02 3.39 6.23 2.05-1.32 4.82-2.99 5.92-3.81.42-.31.97-.75 1.21-1.01.31.29.59.68.75 1.06-.64.53-4.6 2.93-6.64 4.22-.04.37-.07.79-.07 1.12-.2.09-.55.22-.88.24-.15-.11-.33-.24-.51-.42-1.25.81-3.26 2.27-3.26 4.49-.02 2.02 1.45 3.7 5.32 3.7 2.31 0 4.4-.48 5.5-.97zm14.41-11.69c-1.03 3.34-2.66 7.28-4.36 10.01-.33-.07-.86-.35-1.1-.64 1.69-2.42 3.34-6.21 4.29-9.24-1.25.11-2.53.15-3.67.15-.22-.29-.33-.79-.31-1.19.57.11 1.25.13 1.61.13.68 0 1.63-.02 2.66-.13.15-.53.26-.97.37-1.52.13-.7.22-1.36.24-1.89.44.07.95.2 1.23.42-.15.84-.37 1.83-.66 2.86 1.36-.2 2.77-.53 3.89-1.06.15.22.24.68.24.99-1.21.53-2.79.88-4.44 1.1zm7.3 9.02c1.61.44 3.12 1.19 4.38 2.18 0 .4-.24.95-.53 1.14-1.08-1.03-2.4-1.78-3.79-2.24.04.53.07.92.07 1.12 0 1.52-.9 2.88-3.26 2.88-1.89 0-4.03-.92-4.03-2.88 0-1.8 2.09-2.6 4.12-2.6.66 0 1.32.07 1.98.18-.11-2-.29-4.6-.18-5.72.37-.13.86-.13 1.17-.04-.11 1.25-.13 1.85-.11 2.84 0 .59.09 1.94.18 3.15zm-.99.79c-.7-.15-1.39-.22-2.09-.22-1.85 0-2.97.62-2.97 1.63s.99 1.8 2.82 1.8 2.27-1.08 2.27-2.16c0-.26-.02-.64-.02-1.06zm6.31-8.89c-.09.35-.33.75-.57.99-1.01-1.21-3.37-2.55-4.73-3.08.09-.33.29-.7.46-.9 1.67.68 3.94 2.02 4.84 2.99zm10.17 1.48c.57-2.2 2.11-5.17 4.8-5.17 2.13 0 4.6 1.72 4.6 7s-2.38 8.74-6.64 10.19c-.37-.2-.7-.62-.9-.99 3.92-.97 6.38-4.05 6.38-9.13 0-4.2-1.61-6.05-3.54-6.05-2.29 0-3.67 2.75-4.25 5.59-.33 1.47-.33 2.68-.29 3.74-.31.07-.86.04-1.19-.07-.09-1.1-.11-3.28-.09-4.31.04-1.89.33-4.58.42-5.83.02-.53.07-1.25.07-1.72.44 0 .99.02 1.34.13-.35 1.98-.73 4.78-.73 6.62h.02zm32.75 9.33c-.07.4-.31.92-.57 1.21-1.19-1.23-2.84-2.22-4.86-2.75.02.37.02.7.02.92 0 1.39-.55 3.1-3.59 3.1s-4.38-1.14-4.38-2.79c0-1.47 1.45-2.64 4.67-2.64.73 0 1.45.07 2.13.15-.04-1.23-.11-2.68-.15-4-2.02.15-4.11.15-5.92.09-.18-.35-.26-.81-.26-1.23.9.13 2.29.2 3.43.2.88 0 1.8-.02 2.73-.09-.02-.68-.04-1.28-.04-1.72 0-.79 0-1.69.02-2.53-1.76.09-3.48.09-4.75.04-.18-.31-.29-.86-.26-1.19.55.07 1.78.15 2.93.15.51 0 1.25 0 2.11-.04.02-.59.02-1.1.04-1.43.02-.88 0-1.36-.02-1.83.37-.04.92 0 1.25.13-.07.66-.15 1.69-.2 3.06 1.39-.11 2.88-.29 3.96-.62.13.29.18.75.11 1.1-1.17.26-2.62.46-4.12.55 0 .7-.02 1.47-.02 2.31 0 .62 0 1.25.02 1.91 1.89-.18 3.7-.48 5-.97.13.31.18.77.15 1.1-1.43.46-3.23.75-5.11.92.04 1.54.13 3.06.2 4.27 2.4.53 4.36 1.58 5.48 2.6zm-6.56-1.78c-.73-.11-1.5-.18-2.29-.18-2.4 0-3.43.73-3.43 1.63s.73 1.76 3.19 1.76c1.39 0 2.55-.48 2.55-2.24 0-.26 0-.59-.02-.97zm23.87-12.5c-.02-.75-.04-1.28-.13-1.83.37-.02.95 0 1.25.11-.02.46-.04 1.65-.04 2.99 3.23-.09 6.32-.15 7.26-.13.09.31.11.84.07 1.12-1.39-.11-4.25-.09-7.33 0 0 1.21 0 2.44.02 3.37.59.84.86 2.07.86 3.56 0 3.26-1.63 6.47-5.08 7.79-.29-.13-.77-.57-.92-.88 2.2-.55 4.29-2.35 4.82-5.33-.55.75-1.34 1.17-2.35 1.17-1.8 0-3.26-1.58-3.26-3.81s1.47-3.72 3.3-3.72c.64 0 1.17.11 1.61.33 0-.64-.02-1.54-.02-2.46-4 .11-8.14.29-9.7.35-.13-.29-.26-.86-.24-1.25.7.07 2.11.09 2.99.07 1.28 0 4.07-.09 6.93-.15l-.02-1.3zm.7 7.5c-.33-1.45-1.12-2.09-2.31-2.09s-2.24 1.12-2.24 2.84c0 1.45.99 2.66 2.29 2.66 1.69 0 2.4-1.45 2.27-3.41zm18.87-7.61c0-.55-.02-1.23-.07-1.52.4-.02 1.1.09 1.45.22-.15 1.3-.22 2.82-.24 4.31 1.45-.09 3.96-.29 5.74-.79.15.24.29.81.31 1.1-1.23.26-3.98.62-6.07.73v1.63c0 1.39.18 3.56.33 5.43 2.42.55 4.6 1.67 6.25 3.19-.07.4-.29.88-.64 1.17-1.43-1.58-3.39-2.68-5.54-3.26.04.64.07 1.21.07 1.65 0 1.58-1.17 2.88-3.56 2.88-2.88 0-4.91-1.1-4.91-3.15 0-1.65 1.56-2.86 4.91-2.86.77 0 1.54.07 2.29.18-.11-1.94-.29-4.33-.31-6.25v-4.67zm.37 11.95c-.81-.15-1.65-.22-2.46-.22-2.2 0-3.67.62-3.67 1.87s1.23 2.07 3.61 2.07c1.54 0 2.57-.7 2.57-2.22 0-.4-.02-.9-.04-1.5zm26.98-3.92c0-2.31-1.36-3.37-3.19-3.37-1.72 0-4.91 1.14-7.57 1.54-.2-.24-.42-.84-.44-1.21 2.18-.02 6.29-1.39 8.08-1.39 2.2 0 4.25 1.14 4.25 4.4.04 4.55-2.82 7.83-8.32 9.09-.31-.22-.64-.68-.81-1.1 5.26-.88 8.01-3.89 8.01-7.94v-.02zm-.48-8.71c.04.33-.07.86-.13 1.1-1.56 0-6.12-.48-8.1-.88-.02-.29-.02-.84.07-1.1 2.42.55 6.62.9 8.16.88zm12.99.4c-.64 2.99-.99 6.49-.97 9.77 0 1.67.15 3.21.46 4.14.02.11.09.15.13 0 .31-.9.88-2.82 1.39-4.31.33.11.7.33.92.57-.44.99-1.92 5.21-2.11 6.36-.31.02-.66 0-.97-.09-.55-1.45-.92-3.61-.95-6.14-.04-3.21.31-6.56.55-8.21.11-.73.26-1.85.31-2.46.44.07.9.18 1.23.37zm5.7 10.45c-.24.46-.53 1.12-.53 1.8 0 1.03.86 2.27 4.64 2.27 2.09 0 3.96-.35 4.97-.75.13.29.2.88.18 1.21-.77.24-2.82.66-5.06.66-3.83 0-5.83-1.14-5.83-3.21 0-.95.35-1.83.62-2.4.4.09.79.26 1.01.42zm8.32-9.35c.09.31.09.86.07 1.17-1.98.33-6.49.31-8.43.09-.09-.26-.15-.81-.13-1.19 2.18.46 6.95.4 8.49-.07zM10.25 453.09H7.74c-.07.07-.15.11-.31.13v6.25c0 1.17-.7 1.17-2.75 1.17-.04-.26-.2-.64-.33-.9.88.02 1.58.02 1.83.02.22-.02.29-.09.29-.29v-6.38H3.79v-8.1h2.13c.2-.79.42-1.8.53-2.57H2.42v6.93c0 3.21-.2 7.75-1.58 10.83-.18-.18-.62-.46-.84-.55 1.34-2.99 1.45-7.2 1.45-10.25v-7.94h8.96v.99H7.64l.22.04c-.04.11-.18.2-.44.2-.11.66-.31 1.56-.51 2.33h3.34v8.1zm-4.91 1.47c-.04.15-.15.22-.4.22-.35 1.45-.95 3.12-1.61 4.14-.18-.13-.53-.35-.77-.44.64-1.01 1.19-2.66 1.54-4.27l1.23.35zm-.64-8.67v2.68h4.58v-2.68H4.7zm0 3.56v2.73h4.58v-2.73H4.7zm4.75 4.8c.59 1.19 1.21 2.73 1.45 3.63l-.9.35c-.22-.95-.81-2.53-1.36-3.72l.81-.26zm5.41 3.52c-.07.09-.22.15-.44.18-.79.92-2.46 2.05-3.92 2.73-.13-.22-.51-.55-.73-.75 1.47-.64 3.12-1.72 3.94-2.66l1.14.51zm-3.1-12.83h2.84c.2-.77.37-1.72.51-2.51h-4.2v-.99h9.7v.99h-4.47c-.13.73-.33 1.69-.55 2.51h4.22v11.6h-8.05v-11.6zm7.04 3.54v-2.62h-6.07v2.62h6.07zm0 3.54v-2.64h-6.07v2.64h6.07zm0 3.59v-2.68h-6.07v2.68h6.07zm1.25 5.08c-.68-.81-2.09-2.05-3.28-2.9l.84-.53c1.14.81 2.57 2.02 3.28 2.82l-.84.62zm8.67-10.35c.42 4.05 1.69 6.93 3.12 6.93.95 0 1.52-1.96 1.98-5.02.37.13.84.37 1.08.62-.79 4.42-1.74 5.68-2.99 5.68-1.78 0-3.67-2.18-4.33-8.08-.26-2.57-.35-4.53-.51-6.18.33-.02 1.01.02 1.34.13-.04.95.13 4.25.31 5.92zm16.55 3.79c-.22.22-.7.44-1.14.53-.4-2.82-1.83-6.21-4.14-8.67.24-.24.66-.51.95-.64 2.44 2.57 4.03 6.58 4.33 8.78zm16.42-3.09c1.94-.99 3.87-1.96 5.37-2.86.46-.31.9-.64 1.28-.97.22.26.42.79.44 1.17-.77.62-5 2.71-7.08 3.74 0 1.08.02 2.6 0 3.67-.29.07-.77.07-1.12-.04.07-.53.11-1.91.11-3.1-2 1.01-3.78 1.98-3.78 3.79 0 2 2.57 2.33 4.62 2.33s3.74-.48 4.8-.88c.09.37.07.95-.04 1.28-.79.26-2.84.68-4.82.68-2.2 0-5.68-.53-5.68-3.32 0-2.55 2.33-3.63 4.91-4.95l-.02-.55c-.04-.99-.75-1.69-2.09-1.69-2 0-3.54 1.72-5.1 3.52-.31-.2-.68-.64-.84-.95 2.79-2.68 4.25-5.19 5.06-6.82-1.23.11-2.53.15-3.78.15-.15-.26-.26-.79-.29-1.21.59.11 1.23.11 1.54.11.81 0 1.89-.02 3.04-.11.44-1.06.77-2.31.86-3.06.33.04.97.26 1.25.46-.13.42-.55 1.63-.9 2.49 1.56-.15 3.12-.42 4.27-.84.13.29.2.73.2 1.03-1.45.37-3.17.68-4.97.86-.53.97-1.63 2.84-2.71 4.31h.02c1.01-.66 1.89-.88 2.73-.88 1.54 0 2.75.9 2.75 2.62v.02zm15.98 1.85c-.4.66-.79 1.5-.79 2.31 0 1.65 1.63 2.77 5.48 2.77 3.17 0 5.57-.51 7-1.17.22.31.35.81.37 1.19-1.28.55-3.76 1.12-7.26 1.12-3.98 0-6.73-1.19-6.73-3.7 0-1.06.44-2.18.88-3.01.35.07.81.26 1.06.48zm-.46-9.4c2.77.7 8.21.57 10.78.07.09.35.04.84-.02 1.17-2.31.4-7.68.51-10.65.02-.13-.4-.15-.84-.11-1.25zm24.21 3.81c1.67-1.21 3.63-1.96 5.63-2.13.11-.59.2-1.19.26-1.8.04-.37.11-1.12.04-1.63.44 0 .97.11 1.28.31-.09.99-.26 2.02-.48 3.08 3.63.07 6.91 2.18 6.91 6.45 0 5.81-4.6 7.28-7.13 7.57-.29-.2-.66-.77-.75-1.1 3.85-.09 6.71-2.2 6.71-6.49 0-3.23-2.44-5.46-5.88-5.46h-.07c-.62 2.73-1.52 5.39-2.38 7.04-.26.53-.55 1.08-.88 1.61.37.46.77.92 1.23 1.39-.15.29-.55.64-.84.77-.31-.33-.66-.7-1.03-1.17-.92 1.34-2.05 2.35-3.34 2.35-1.94 0-3.1-2.11-3.1-3.85 0-2.09 1.03-4.36 2.79-6.07-.22-.7-.44-1.39-.62-2.02-.24-.88-.4-1.3-.57-1.78.29-.26.75-.48 1.14-.53.18.95.51 2.24.92 3.59l.13-.11zm1.98 7.55c-.35-.51-.7-1.08-1.03-1.69-.53-1.08-1.08-2.46-1.58-3.87-1.39 1.52-2.11 3.39-2.11 4.8 0 1.23.75 2.82 2.09 2.82.95 0 1.85-.88 2.64-2.05zm3.48-8.69c-1.94.2-3.5.95-4.86 2-.13.11-.26.2-.4.31.53 1.61 1.14 3.17 1.65 4.09.22.4.48.84.77 1.28.26-.44.48-.9.7-1.34.73-1.52 1.58-3.76 2.13-6.34zm29.88 11.22c-.07.4-.31.92-.57 1.21-1.19-1.23-2.84-2.22-4.86-2.75.02.37.02.7.02.92 0 1.39-.55 3.1-3.59 3.1s-4.38-1.14-4.38-2.79c0-1.47 1.45-2.64 4.66-2.64.73 0 1.45.07 2.13.15-.04-1.23-.11-2.68-.15-4-2.02.15-4.11.15-5.92.09-.18-.35-.26-.81-.26-1.23.9.13 2.29.2 3.43.2.88 0 1.8-.02 2.73-.09-.02-.68-.04-1.28-.04-1.72 0-.79 0-1.69.02-2.53-1.76.09-3.48.09-4.75.04-.18-.31-.29-.86-.26-1.19.55.07 1.78.15 2.93.15.51 0 1.25 0 2.11-.04.02-.59.02-1.1.04-1.43.02-.88 0-1.36-.02-1.83.37-.04.92 0 1.25.13-.07.66-.15 1.69-.2 3.06 1.39-.11 2.88-.29 3.96-.62.13.29.18.75.11 1.1-1.17.26-2.62.46-4.11.55 0 .7-.02 1.47-.02 2.31 0 .62 0 1.25.02 1.91 1.89-.18 3.7-.48 4.99-.97.13.31.18.77.15 1.1-1.43.46-3.23.75-5.1.92.04 1.54.13 3.06.2 4.27 2.4.53 4.36 1.58 5.48 2.6zm-6.56-1.78c-.73-.11-1.5-.18-2.29-.18-2.4 0-3.43.73-3.43 1.63s.73 1.76 3.19 1.76c1.39 0 2.55-.48 2.55-2.24 0-.26 0-.59-.02-.97zm18.38-13.71c-.09.97-.77 9.97-.77 13.11 0 2.64 1.45 3.67 3.94 3.67 2.88 0 5.74-1.65 7.39-4.09.24.22.57.84.64 1.14-1.41 1.8-4.4 4.09-8.12 4.09-2.99 0-4.97-1.3-4.97-4.66 0-2.97.42-8.49.48-10.63.07-1.47.07-2.13.02-2.84.42 0 1.08.09 1.39.2zm19.52 3.65c.99 0 2.13-.11 3.28-.26.09-.4.15-.7.2-.95.22-1.1.46-2.27.46-3.17.42.07.99.18 1.34.35-.15.62-.46 2-.84 3.57 1.76-.31 3.41-.73 4.29-1.1.07.31.04.92 0 1.23-1.03.31-2.73.68-4.58.99-.24.95-.48 1.94-.73 2.84-.75 2.82-2.27 7.68-3.28 10.43-.42-.07-.95-.22-1.23-.44 1.06-2.44 2.84-8.03 3.45-10.23.24-.9.46-1.72.64-2.44-1.45.2-2.93.33-4.2.33-.13-.22-.26-.86-.29-1.21.4.04.84.07 1.45.07h.02zm16.24 12.21c.02.33-.07.99-.24 1.28-.51.15-1.91.33-3.56.33-3.39 0-5.65-1.23-5.61-3.45.02-.9.44-1.83.79-2.44.35.04.79.24 1.03.44-.31.46-.68 1.17-.7 1.89-.02 1.06.81 2.46 4.58 2.46 1.67 0 2.99-.24 3.72-.51zm-3.39-11.13c.84 0 2.55.09 3.63.22 0 .33-.04.84-.18 1.14-.92-.18-2.18-.31-3.5-.31-.99 0-2.13.07-3.17.22-.04-.26-.07-.81 0-1.12 1.1-.11 2.31-.15 3.19-.15h.02zm11.86 10.5c0-1.63 1.34-2.97 2.99-2.97s2.99 1.34 2.99 2.99-1.36 2.99-2.99 2.99-2.99-1.34-2.99-2.99v-.02zm.73.04c0 1.21 1.01 2.22 2.27 2.22s2.25-1.01 2.25-2.24-1.01-2.25-2.25-2.25-2.27.99-2.27 2.25v.02z" data-name="design"/></svg>