<svg data-name="レイヤー 2" xmlns="http://www.w3.org/2000/svg" width="925.97" height="446.74" viewBox="0 0 925.97 446.74"><g data-name="KV_モデルなし"><path d="M24.4 417.29c.35-1.25.6-2.55.7-3.8 1.15.15 2.75.75 3.45 1.2-.15.9-.4 1.9-.75 3.05 6.75 1.4 10.55 6.35 10.55 12.65 0 7.75-5.4 13.9-16.25 15.1-.8-.7-1.5-2.35-1.8-3.4 8.9-.25 14.65-4.7 14.65-11.8 0-4.9-2.9-8.7-8.15-9.75-1.85 4.6-5.1 10.35-10.5 15.95.3.95.7 1.85 1.15 2.8-.55.65-1.75 1.5-2.75 1.8-.35-.65-.7-1.4-1-2.15-2.3 1.95-4.65 3.2-7.3 3.2-3.7 0-6.4-3.35-6.4-7.75 0-2.3.9-4.65 2.25-6.5 2.2-3.05 5.7-5.85 9.55-7.75.15-2.7.4-5.45.65-8.05-1.05.05-2 .1-2.95.1-1.3 0-3.75-.05-5.2-.15-.3-.8-.55-2.7-.55-3.55 1.3.3 3.55.45 5.35.45h.05c1.2 0 2.4-.05 3.6-.1.3-3.05.55-5.6.6-6.9 1.25 0 2.7.2 3.65.55-.3 1.3-.6 3.5-.95 6.15 4.8-.45 9.5-1.25 13.7-2.45.3.95.4 2.55.4 3.3-3.3.85-9 1.9-14.45 2.4-.25 2.2-.45 4.55-.65 6.85 3-1 6.1-1.45 8.5-1.45h.85zm-11.75 18.25c-.7-2.9-1.05-6.25-1.05-9.8 0-.7 0-1.4.05-2.15-2.5 1.5-5.35 3.75-7 6.3-.95 1.45-1.35 2.95-1.35 4.35 0 2.15 1.2 4.45 3.3 4.45 1.8 0 3.6-.9 6.05-3.15zm2.7-2.75c2.1-2.45 5.8-7.3 8-12.55-3.15.05-6.1.7-8.5 1.7-.05 1.5-.1 2.95-.1 4.2 0 1.95.15 4.25.6 6.65zm59.05-19.85c-2.35 7.5-6.2 16.8-10 22.75-.95-.2-2.7-1.1-3.4-1.9 3.9-5.45 7.55-13.85 9.7-20.45-2.75.25-5.5.35-8.05.3-.55-.9-.85-2.4-.85-3.6 1.45.25 3.15.35 4.05.35 1.65 0 3.65-.05 5.8-.25.3-1.15.55-2.15.75-3.3.25-1.6.5-3.2.55-4.45 1.35.15 2.85.55 3.75 1.1-.3 1.85-.8 4-1.4 6.2 2.95-.45 5.9-1.2 8.5-2.35.4.7.65 2.2.6 3.15-2.6 1.1-6.2 1.95-10 2.45zm16.75 19.6c3.7 1.05 7.15 2.8 10 5-.05 1.15-.8 2.9-1.65 3.55-2.35-2.25-5.15-4-8.15-5.1.05.9.1 1.65.1 2.05 0 3.8-2.25 6.9-7.9 6.9-4.75 0-9.65-2.35-9.65-7.05 0-4.15 4.65-6.4 9.8-6.4 1.35 0 2.7.1 4.05.3-.25-4.4-.6-10.05-.35-12.65 1.15-.35 2.7-.3 3.6-.1-.25 2.85-.3 4.35-.25 6.6.05 1.35.2 4.2.4 6.9zm-3.25 2.4c-1.45-.3-2.95-.45-4.4-.45-3.9 0-6.2 1.3-6.2 3.4s2.1 3.8 5.85 3.8c4.2 0 4.8-2.4 4.8-4.95 0-.5 0-1.1-.05-1.8zm15.15-20.65c-.3 1.05-1 2.3-1.75 3.1-2.5-2.9-7.9-5.95-11-7.15.25-1 .95-2.2 1.5-2.8 3.75 1.5 9.15 4.65 11.25 6.85zm23.2-2.5c2.1 0 4.55-.2 7-.5.15-.85.3-1.5.4-2.05.5-2.5 1-5.2 1-7.25 1.2.15 3.1.55 4.1 1-.3 1.35-1 4.3-1.8 7.7 3.65-.65 7-1.5 8.95-2.3.2.9.1 2.85-.05 3.75-2.2.7-5.75 1.45-9.75 2.1-.5 2.1-1.05 4.25-1.55 6.2-1.8 6.7-5.15 17.55-7.45 23.75-1.25-.2-3-.75-3.9-1.35 2.45-5.55 6.45-17.8 7.95-23.25.5-1.75.9-3.35 1.25-4.85-3.05.4-6.2.65-9 .65-.35-.75-.7-2.75-.75-3.75 1 .1 2.05.15 3.55.15h.05zm36.95 27.55c.05.95-.2 2.95-.65 3.85-1.25.35-4.6.75-8.35.75-8 0-12.95-2.95-12.9-8.05.05-2.25 1.05-4.6 1.8-6 1.1.2 2.45.75 3.25 1.3-.75 1.1-1.5 2.65-1.5 4.2-.05 2.35 1.85 5.15 9.7 5.15 3.75 0 6.9-.6 8.65-1.2zm-7.7-25.1c2.1 0 5.95.15 8.25.5 0 .95-.1 2.55-.45 3.5-2.1-.45-4.95-.7-7.9-.7-2.45-.05-5.1.1-7.45.45-.15-.7-.1-2.5.05-3.4 2.5-.25 5.25-.4 7.45-.35h.05zm72.05 10.55c0 10.95-6.25 17.65-16.45 19.3-.75-.8-1.75-2.5-2-3.65 1.65-.1 2.95-.35 4.15-.65 5.1-1.3 10.6-5.5 10.6-15.05 0-8.6-6-14.7-15.55-14.9-.05 3.85-.9 10.9-2.05 15.5-2.25 9.15-5.45 15.55-10.95 15.55-4.75 0-9.4-6.45-9.4-14.05 0-11.35 9.25-20.25 21.95-20.25 11.5 0 19.7 7.4 19.7 18.2zm-22.9-14.75c-9.9 1.45-15.15 9.4-15.15 16.45 0 6.4 3.35 10.3 5.9 10.3 2.9 0 5.4-4.05 7.4-12.2 1.05-4.2 1.85-10.75 1.85-14.55zm46.6-6.55h32.45v42.1h-3.5v-3h-25.5v3.3h-3.45v-42.4zm28.95 3.4h-25.5v14.35h25.5v-14.35zm-25.5 32.3h25.5v-14.65h-25.5v14.65zm90.5-36.95c-.25.35-.65.45-1.05.4-1.05 1.5-2.7 3.7-4.1 5.3h9v10.4h-3.3v-7.35H310.1v7.35h-3.2v-10.4h8.2c-.9-1.75-2.55-4.2-4-5.95l2.9-1.25c1.8 1.95 3.65 4.55 4.55 6.3l-1.9.9h9.25v-7.75l4.35.3c-.05.35-.3.6-.95.7v6.75h9.05l-1.5-.7c1.45-1.8 3.4-4.7 4.4-6.65l3.95 1.65zm.55 28v10.45c0 3.75-1.85 3.75-10 3.75-.15-.9-.7-2.05-1.15-2.95 1.9.05 3.65.1 4.9.1 2.55 0 2.95 0 2.95-.9v-7.35H329.3v13.4h-3.4v-13.4h-12.4v11.2h-3.25v-14.3h15.65v-4.2h-11.15v-11.1h26.55v11.1h-11.4c-.15.1-.35.15-.6.2v4h16.45zm-27.85-12.65v5.85H338v-5.85h-20.1zm93.15 7.2c0 10.95-6.25 17.65-16.45 19.3-.75-.8-1.75-2.5-2-3.65 1.65-.1 2.95-.35 4.15-.65 5.1-1.3 10.6-5.5 10.6-15.05 0-8.6-6-14.7-15.55-14.9-.05 3.85-.9 10.9-2.05 15.5-2.25 9.15-5.45 15.55-10.95 15.55-4.75 0-9.4-6.45-9.4-14.05 0-11.35 9.25-20.25 21.95-20.25 11.5 0 19.7 7.4 19.7 18.2zm-22.9-14.75c-9.9 1.45-15.15 9.4-15.15 16.45 0 6.4 3.35 10.3 5.9 10.3 2.9 0 5.4-4.05 7.4-12.2 1.05-4.2 1.85-10.75 1.85-14.55zm54.5 13.95c-1.35 3.45-5.25 10.75-7.95 13.85-1.05-.3-2.5-1.05-3.3-1.8 2.5-2.65 6.35-8.65 8-13.6 1.05.35 2.45 1 3.25 1.55zm12.05-7.6c0 5.55.1 20.95.1 24 0 2.6-1.3 3.9-4.05 3.9-2.25 0-6-.5-7.9-.85-.3-.75-.55-2.9-.55-3.8 2.2.65 5.5 1.2 7.15 1.2 1.25 0 1.9-.5 1.9-1.95 0-3.15-.1-17.8-.1-22.45-6.2.05-11.9.15-13.25.15-1.05 0-3.15 0-4.5.05-.15-.9-.35-2.75-.35-3.6 1.5.1 2.6.1 4.25.15 1.35.05 7.45 0 13.85-.05 0-3.1 0-7.5-.3-9 1 0 3.05.1 4.1.3-.1 1.9-.25 4.95-.35 8.65 6.4-.05 12.4-.15 13.55-.15s2.85-.05 4-.1c.1.8.25 2.6.25 3.55-1.05-.05-2.3-.05-3.55-.1-1.15 0-7.55.05-14.25.1zm10.9 6.25c2.25 2.4 7.2 10.35 8.25 13.75-.7.65-2.2 1.35-3.4 1.65-1.3-4.4-4.95-10.45-7.8-13.85.7-.55 2.05-1.25 2.95-1.55zm-.8-16.4c0-2.6 2.15-4.7 4.8-4.7s4.75 2.1 4.75 4.75-2.15 4.75-4.75 4.75-4.8-2.1-4.8-4.75v-.05zm1.9.1c0 1.55 1.25 2.85 2.9 2.85 1.55 0 2.85-1.3 2.85-2.9s-1.3-2.9-2.85-2.9c-1.65 0-2.9 1.3-2.9 2.9v.05zm40.75 16.4c-.25.9-1.1 2.5-1.7 3.15-2.55-1.6-8.15-4.4-11.4-5.75.3-.9 1.1-2.5 1.65-3.15 2.9 1.15 9.2 4.25 11.45 5.75zm5.9 12.4c6.9-4 14.1-10.95 18.1-19.15 1.05.65 2.3 2.2 2.8 3.1-4.2 7.3-10.85 14.25-19 19.1-5.4 3.25-10.6 5.25-15 6.45-.95-.75-2.05-2.5-2.55-3.7 5.1-.75 11-3.1 15.65-5.8zm.45-23.7c-.3.9-1.25 2.45-1.9 3.1-2.55-1.75-8.25-4.8-11.15-6.1.35-.9 1.25-2.55 1.75-3.15 3.1 1.4 9 4.45 11.3 6.15zm17.05-.3c-.45.45-1.3.95-2.1 1.2-.95-2-2.5-4.6-3.85-6.3.6-.45 1.4-.95 2-1.15 1.25 1.45 3.2 4.55 3.95 6.25zm5.4-2.6c-.45.4-1.3.9-2.05 1.2-1.05-2.1-2.55-4.5-3.9-6.1.6-.5 1.45-.95 2.05-1.15 1.25 1.35 3.15 4.3 3.9 6.05zm57.7 13.65c-1.05-.05-2.25-.05-3.55-.1-1.05 0-7.15.05-13.75.1-.1 6.35-.85 10.2-3.55 14.2-2.3 3.35-6.75 6.65-11.4 8.35-1.15-.6-2.55-2.05-3.15-3 3.45-.9 8.4-3.25 11.1-6.8 2.8-3.8 3.2-7.25 3.25-12.7-6.7.05-13.05.15-14.45.15-1 0-3.05 0-4.4.05-.2-.85-.4-2.7-.35-3.65 1.4.1 2.55.1 4.2.15 2.9.1 29.35-.2 31.85-.25 1.1 0 2.8-.05 4-.1.15.9.25 2.6.2 3.6zm-34.35-12c-.15-.9-.35-2.6-.35-3.65 1.6.1 2.45.15 4.2.2 3 .1 17.75-.25 20.25-.3 1.7-.05 2.95-.2 4.1-.3.15.8.3 2.6.25 3.65-1.55 0-20.85.2-24 .3-.8 0-3.1.05-4.45.1zm71.85 14.6c-.05 11.35-.05 17.05-.05 17.05 0 1.25.05 2.65.1 3.75-.75.1-3 .1-3.85 0 0-.5.1-1.8.15-3.7.05-1.55.15-6.05.1-14.7-3.9 2.35-8.25 4.3-12.55 5.7-.8-.65-1.95-2-2.5-3.15 4.55-.95 9.75-2.95 13.9-5.65 4.35-2.75 8.45-6.7 10.3-9.7.9.65 1.95 1.9 2.45 2.75-1.8 2.35-4.6 5.05-8.05 7.65zm57.05 5.4c-4.95 7.1-11.95 11.25-19.2 13.85-1.15-.6-2.5-2.2-3.2-3.45 7.85-1.9 14.05-5.65 18.85-11.85 3.4-4.4 5.45-10.85 6.15-15.75-3.3.05-24.65.3-29.05.4-.25-.95-.55-3.1-.55-4.05 1.75.15 3.6.25 5.45.25 2.1 0 20.95-.1 23.65-.2.65-.05 1.4-.05 2.25-.2.7.5 2 1.7 2.65 2.6-1.05 4.95-2.65 12-7 18.4zm11.45-19.55c-.4.45-1.25 1-1.95 1.25-1-1.95-2.55-4.55-3.9-6.2.6-.45 1.35-.95 1.9-1.15 1.25 1.4 3.15 4.45 3.95 6.1zm4.8-2.55c-.4.4-1.25.9-1.95 1.2-1-2-2.6-4.4-3.9-6 .6-.4 1.35-.9 1.9-1.1 1.25 1.3 3.15 4.25 3.95 5.9zm53.46 32.25c-.5 1-1.8 2.3-2.85 2.85-2.85-4-7.95-9.95-13.95-14.9-6 6.45-13.45 11.6-20.25 14.6-.85-.6-2.35-2.3-2.95-3.3 8.95-3.15 17-9.65 21.55-14.75 3.95-4.45 7-9.2 8.55-13.4-3.45.05-21.5.45-25.2.65-.3-.95-.55-2.6-.6-3.8 1.45.15 3.05.2 4.7.2 1.8 0 19.35-.3 21.9-.45.85-.05 1.5-.1 2.15-.25.8.45 1.6 1.3 2.05 1.95-1.55 4.05-5.3 10.6-9.65 15.95 4.85 3.8 11.45 10.45 14.55 14.65zm38.05-20.45c-5.2 3.25-11.35 6-16.75 7.7-.95-.7-2.4-2.4-2.85-3.5 5.55-1.05 12.45-3.85 17.9-7.3 5.75-3.7 11.5-9.05 13.75-12.85 1.1.75 2.3 2.1 2.85 3.05-2.4 2.9-6.2 6.6-10.8 10.05-.05 15-.05 22.6-.05 22.6 0 1.7.1 3.5.15 5-1 .15-3.2.15-4.4 0 .05-.9.2-2.35.25-4.9.05-2.1.2-8.3.2-20l-.25.15zm44.54 7.2c-.5.45-2.25 1.35-3.1 1.55-.95-2.2-3.35-6.75-4.35-8.2.6-.45 2.3-1.25 3.05-1.5.95 1.5 3.35 5.85 4.4 8.15zm23.15-8.65c-1 5.15-3.25 10.9-6.5 15.5-4.25 6-10.4 9.3-14.35 10.75-.85-.5-2.15-1.85-2.75-2.85 4.65-1.2 10.45-4.55 14.3-9.95 3.15-4.35 5.1-9.45 5.8-15.05 1 .25 2.7 1.05 3.5 1.6zm-13.5 5c-.5.45-2.2 1.2-3.1 1.4-.85-2.3-2.6-6.35-3.75-8.25.65-.4 2.35-1.1 3.1-1.35 1 1.8 2.9 6 3.75 8.2zm57.71-2.7c6.5-.05 12.4-.15 13.5-.15s2.9-.1 4.1-.15c.2.95.25 2.55.2 3.6-1.05-.05-2.3-.1-3.55-.1-1.1 0-7.5.05-14.35.1-.65 10.1-4.8 16.35-14.5 20.65-.95-.5-2.5-2-3-3 8.6-2.85 13.2-8 13.95-17.6-6.95.05-13.55.15-15 .15-1.05 0-3.1.05-4.5.05-.2-.85-.35-2.75-.35-3.6 1.5.05 2.6.1 4.3.15 1.4.05 8.45 0 15.65-.05v-9.8c-4.2.6-9.95 1.2-14.1 1.4-.7-.9-1.4-2.55-1.6-3.6 3.35.2 11-.4 16.75-1.3 5.3-.8 10.2-1.9 12.45-2.9.7.75 1.6 2.3 1.95 3.25-2.4.8-7.55 1.85-11.9 2.55v10.35zM249.5 307.9c0-.84-.08-2.44-.2-3.22 1.12-.08 2.97-.03 4.09.17-.06 1.06-.08 2.6-.08 4.48 2.16-.03 4.03-.03 4.7-.06.67-.03 1.32-.03 2.02-.17.73.36 1.79 1.18 2.27 1.65-.25 2.52-.81 6.61-2.72 10-2.6 4.62-7.36 7.36-11.9 8.51-.98-.56-2.55-2.32-3.05-3.3 4.87-.78 8.37-2.44 10.84-5.74 1.54-2.04 2.38-5.21 2.58-7.64-2.38 0-10.47.06-13.27.14.03 3.19.03 3.89.03 3.89 0 .53 0 1.04.06 1.9-.98.11-2.69.11-3.81.08.06-.73.08-1.18.11-1.9 0-1.04-.03-3.86-.03-4.93 0-.81-.03-1.71-.11-2.52.95.06 1.88.08 3.02.08h5.46v-1.43zm33.08 16.43c2.77-.03 5.26-.06 5.8-.06.5 0 1.23-.03 1.79-.06.08.64.11 2.77.11 3.3-.81-.03-2.07-.06-2.91-.06-1.09 0-11.87.08-13.55.11-.78.03-1.4.03-2.04.03-.08-.76-.22-2.66-.2-3.3.67.06 1.48.08 2.27.08.56 0 2.72 0 5.21-.03v-7.45l-3.81.06c-.76.03-1.37.03-1.99.03-.11-.76-.22-2.63-.22-3.3.67.06 1.48.08 2.27.08 1.43.06 10.36-.08 11.54-.11.59 0 1.29-.03 1.85-.06.06.64.08 2.72.08 3.28-.84-.03-2.07-.03-3.08-.03-.59 0-1.76 0-3.11.03v7.45zm22.19-12.91c0-1.54-.08-2.69-.22-3.61 1.12 0 2.83.11 3.95.28 0 10.28.45 14.95-5.4 20.13-.9-.42-2.6-1.74-3.33-2.72a9.4 9.4 0 001.88-1.46c2.94-3.05 3.14-6.24 3.14-12.63zm7.73 14.81c.14-.56.2-1.01.22-1.79.06-2.55.2-10.44.14-14.7 0-.92-.06-1.79-.11-2.49.64 0 2.83.17 3.92.36-.17 2.04-.31 12.4-.31 15.37 2.6-.95 5.52-4.12 7-7.84.84.64 1.96 2.21 2.49 3.25-1.82 3.47-4.59 6.89-9.88 9.1-.42.14-.81.31-1.26.5-.67-.42-1.71-1.29-2.21-1.76zm34.7-21.44s-.06.98-.11 4.2c1.88-.03 3.44-.03 3.92-.06.87-.06 1.54-.11 1.99-.2.67.5 1.43 1.32 1.88 1.9-1.51 2.46-4.56 5.77-7.64 8.04 0 2.94.03 5.57.03 7.76 0 .98.06 1.93.08 2.83-.9.08-2.97.08-3.95 0 .06-.9.14-1.51.17-2.83.03-1.54.03-3.42.03-5.49-3 1.65-5.82 2.72-8.12 3.42-.84-.81-1.96-2.52-2.35-3.42 3.25-.59 7.17-1.99 10.25-3.78 2.97-1.71 4.82-3.5 5.96-5.01-1.88 0-10.95.17-13.27.28-.22-.84-.48-2.38-.56-3.53 1.06.06 1.85.11 2.88.11l5.15-.03v-1.51c-.03-.9-.06-2.04-.17-2.91 1.01 0 2.94.14 3.84.25v-.03zm10.25 16.94c-.45.92-1.48 2.18-2.24 2.74-1.54-1.62-4.31-3.75-6.36-4.93.56-.76 1.6-1.93 2.21-2.46 1.93 1.09 4.9 3.3 6.38 4.65zm30.65 3.86c-.53.92-1.79 2.3-2.86 2.88-1.71-2.3-4.09-5.21-7.06-7.78-3.19 3.36-7.08 6.13-10.58 7.62-.78-.62-2.27-2.27-2.86-3.25 4.93-1.65 8.85-4.76 11.45-7.56 2.16-2.27 3.39-4.34 4.28-6.47-2.91.03-10.7.22-12.74.31-.2-.92-.39-2.55-.45-3.67.87.08 1.9.14 2.83.14 1.32 0 10.11-.14 11.79-.22.67-.03 1.34-.11 1.79-.17.78.5 1.51 1.23 1.99 1.93-.98 2.32-2.97 5.74-5.15 8.6 2.77 2.21 6.05 5.68 7.56 7.64zm28.73-14.5c.62 0 2.02-.06 2.69-.08.17 1.01.22 2.32.11 3.42-.76 0-1.68-.03-2.52-.03l-2.86.03c-.06 7.39-1.99 11.84-9.1 14.84-.81-.48-2.44-2.04-3.11-3.16 1.2-.25 2.52-.62 3.39-1.09 3.64-1.9 5.21-4.62 5.21-10.56l-6.47.06v6.38c-.95.11-2.52.14-3.72 0 .03-.39.08-1.74.11-2.6.03-.98.03-2.35.03-3.75l-2.52.03c-.78 0-1.9.03-2.66.06-.22-.81-.34-2.72-.28-3.5.81.06 1.6.08 2.55.11h2.91c0-1.2-.03-2.18-.03-2.72 0-.9-.06-1.9-.14-2.69.98 0 2.86.03 3.78.17 0 .62-.03 2.74-.03 5.24l6.44-.06c0-1.18-.03-2.3-.06-3.02-.03-.64-.06-1.79-.17-2.69 1.06-.03 2.97.06 3.95.17-.03 1.32-.06 3.42-.06 5.49l2.55-.03zm27.71 9.8c-2.6 3.86-6.58 6.58-10.72 8.12-1.15-.64-2.52-2.27-3.25-3.5 4.17-.98 7.48-2.58 10.19-5.91 1.79-2.16 2.86-5.24 3.19-7.62-2.49.03-12.77.17-15.2.22-.2-.95-.34-3.25-.34-4.03 1.18.08 2.49.17 3.44.17 1.62 0 10.81-.08 12.52-.14.53 0 1.18-.03 1.82-.14.73.42 1.82 1.37 2.41 2.18-.7 3.47-1.68 7.08-4.06 10.64zm2.72-14.28c0-1.6 1.29-2.88 2.91-2.88s2.88 1.29 2.88 2.91-1.29 2.88-2.88 2.88-2.91-1.29-2.91-2.88v-.03zm1.46.06c0 .73.64 1.37 1.46 1.37.76 0 1.4-.64 1.4-1.4 0-.81-.64-1.46-1.4-1.46-.81 0-1.46.64-1.46 1.46v.03zm18.1-.31c-.11 2.04-.22 10.56-.25 13.38-1.32.11-2.66.11-3.92 0 .11-2.07.22-9.66.22-11.26 0-.56-.06-1.6-.14-2.27.87 0 3 .06 4.09.14zm11.48 7.22c0 6.75-1.26 9.44-3.39 11.82-1.88 2.1-4.59 3.56-6.55 4.23-.78-.56-2.35-2.24-3-3.22 2.32-.5 5.04-1.65 6.66-3.5 2.04-2.32 2.46-5.1 2.46-9.8 0-1.43 0-2.66-.03-4.17-.06-1.18-.11-2.07-.2-2.91.98-.06 3.08.03 4.09.2-.06.78-.06 1.85-.06 2.6v4.76zm30.43 7.56c-.48 1.01-1.57 2.55-2.49 3.39-1.48-1.57-3-2.88-5.29-4.59-2.52 3.58-6.52 7.08-10.16 8.88-1.09-.62-2.41-1.85-3.25-3 4.37-1.62 7.98-4.79 10.42-8.01-2.1-1.4-4.45-2.72-6.69-3.75.64-1.01 1.57-2.21 2.3-2.94 1.54.78 4.28 2.32 6.38 3.58 1.65-3.08 2.72-6.41 3.14-9.07 1.46.34 3.08 1.15 3.78 1.65-.7 2.58-1.96 5.99-3.86 9.41 2.1 1.46 4.26 3.08 5.74 4.45zm18.38-10.3c-.36 1.01-1.48 2.77-2.18 3.56-1.79-1.4-5.04-3.36-7.48-4.48.45-.9 1.57-2.77 2.02-3.39 2.21.92 5.71 2.83 7.64 4.31zm-.45 11.14c4.73-2.63 7.95-6.5 10.22-11.34 1.01.67 2.38 2.24 2.88 3.19-2.6 4.7-6.3 8.74-11.06 11.48-3 1.71-5.96 2.83-8.26 3.44-1.04-.95-2.07-2.6-2.46-3.78 3.02-.45 6.13-1.54 8.68-3zm29.28-4.93v8.57c0 .81.06 2.41.11 3.58-1.06.11-3.25.03-4.31-.14.08-.9.17-2.38.2-3.56.08-2.58.17-14.28.14-16.49 0-1.04-.06-2.49-.2-3.72 1.09-.03 3.16.06 4.17.22-.06 1.01-.11 4.12-.11 7.59 3.5 1.09 7.42 2.63 9.97 3.84-.22 1.09-.92 2.86-1.57 3.72-2.3-1.26-5.57-2.69-8.4-3.61zm34.28 3.84c-2.6 3.86-6.58 6.58-10.72 8.12-1.15-.64-2.52-2.27-3.25-3.5 4.17-.98 7.48-2.58 10.19-5.91 1.79-2.16 2.86-5.24 3.19-7.62-2.49.03-12.77.17-15.2.22-.2-.95-.34-3.25-.34-4.03 1.18.08 2.49.17 3.44.17 1.62 0 10.47-.08 12.18-.14.53 0 1.18-.03 1.82-.14.73.56 1.9 1.82 2.6 2.86-.56 2.72-1.54 6.41-3.92 9.97zm5.82-12.1c-.31.34-1.09.78-1.68 1.01-.45-.98-1.34-2.55-2.07-3.47.56-.39 1.15-.76 1.62-.95.67.81 1.74 2.58 2.13 3.42zm2.86-1.37c-.34.31-1.04.7-1.62.92-.53-1.06-1.37-2.49-2.07-3.36.53-.36 1.12-.7 1.62-.9.67.76 1.68 2.46 2.07 3.33zm23.31 16.04c-3.11 3.39-7.48 5.26-10.22 5.8-.92-.67-2.35-2.32-2.91-3.42 3.58-.36 7.53-1.85 10.02-4.4 1.51-1.54 2.32-3.28 2.77-5.01-1.71 0-13.16.17-15.48.25-.22-.87-.39-2.8-.36-3.72 1.04.08 1.99.14 3.02.14 1.96.08 11.82-.03 13.92-.17.62-.03 1.09-.08 1.57-.14.56.25 1.57.9 2.1 1.37-.78 3.02-1.9 6.5-4.42 9.3zm-11.45-17.19c1.71.06 9.91-.06 11.34-.11.95-.03 1.68-.11 2.3-.17.17.81.25 2.49.22 3.5-1.15 0-11.62.06-13.5.11-.42 0-1.74.03-2.49.06-.11-.84-.28-2.46-.25-3.5.92.06 1.4.08 2.38.11zm34.5 4.57c-.36 1.01-1.48 2.77-2.18 3.56-1.79-1.4-5.04-3.36-7.48-4.48.45-.9 1.57-2.77 2.02-3.39 2.21.92 5.71 2.83 7.64 4.31zm-.45 11.14c4.73-2.63 7.95-6.5 10.22-11.34 1.01.67 2.38 2.24 2.88 3.19-2.6 4.7-6.3 8.74-11.06 11.48-3 1.71-5.96 2.83-8.26 3.44-1.04-.95-2.07-2.6-2.46-3.78 3.02-.45 6.13-1.54 8.68-3zm29.12-8.88c3.47 1.09 7.42 2.63 9.97 3.84-.25 1.09-.95 2.86-1.57 3.72-2.3-1.26-5.6-2.69-8.43-3.61v8.57c0 .81.08 2.41.14 3.58-1.06.11-3.25.03-4.31-.14.08-.9.17-2.38.2-3.56.06-2.58.14-14.28.14-16.49-.03-1.04-.06-2.49-.2-3.72 1.09-.03 3.16.06 4.17.22-.06 1.01-.11 4.12-.11 7.59zm6.97-1.82c-.5-1.18-1.37-2.8-1.96-3.81.53-.34 1.37-.7 1.85-.84.56.78 1.62 2.77 1.99 3.72-.39.31-1.2.76-1.88.92zm5.21-2.46c-.39.34-1.2.76-1.88.98-.48-1.12-1.37-2.77-2.02-3.75.56-.34 1.34-.73 1.85-.9.62.87 1.62 2.69 2.04 3.67zm97.28-122.41c0 6.28-5.09 11.37-11.37 11.37s-11.37-5.09-11.37-11.37 5.09-11.37 11.37-11.37 11.37 5.18 11.37 11.37zm-21.24 0c0 5.46 4.41 9.87 9.87 9.87s9.87-4.41 9.87-9.87-4.41-9.87-9.87-9.87-9.87 4.5-9.87 9.87zm5.46-5.82c.96-.18 2.46-.32 3.96-.32 3.14 0 5.23 1.09 5.23 3.41 0 1.59-1.27 2.68-2.41 3v.09c.91.36 1.46 1.23 1.82 2.14.45 1.55.82 2.96 1.09 3.46h-2.27c-.18-.32-.5-1.23-.86-2.73-.41-1.55-1.09-2.14-2.5-2.23h-2.05v4.96h-2v-11.78zm2.14 5.18h2.14c1.77 0 2.77-.73 2.77-1.91 0-1.41-1.27-1.91-2.82-1.91-1.05 0-1.82.09-2.09.18v3.64zm-591.34-78.52h16.71v84.91h49.93v5.89h-66.64v-90.8zm91.21-2.05l-20.13 23.56h-3.7l6.98-23.56h16.85zm62.32 0l42.73 92.85h-17.26l-13.83-30.27h-40.2l-14.17 30.27h-7.4l43.41-92.85h6.71zm-25.75 56.7h34.58l-17.39-36.91-17.18 36.91zm78.13-54.65h18.56l33.58 66.85s33.98-63.92 35.44-66.85h16.92v90.8h-16.78v-74.43l-38.15 74.43h-2.88l-39.92-77.58v77.58h-6.78v-90.8zm126.34 0h16.71v58.96c0 18.1 9.55 24.44 13.21 25.92 3.65 1.48 7.74 2.23 12.26 2.23 2.65 0 5.18-.4 7.6-1.2 2.42-.8 4.67-1.88 6.75-3.25s3.96-2.97 5.65-4.79c1.69-1.82 3.14-3.79 4.35-5.89 1.21-2.1 2.15-4.27 2.81-6.51.66-2.23.99-4.43.99-6.57v-58.89h6.71v57.93c0 4.52-.79 8.88-2.36 13.08-1.58 4.2-3.99 7.92-7.23 11.16s-7.37 5.85-12.39 7.81c-5.02 1.96-10.96 2.94-17.8 2.94-6.03 0-11.36-.9-15.99-2.71-4.63-1.8-8.53-4.25-11.68-7.36-3.15-3.1-5.54-6.75-7.16-10.92-1.62-4.18-2.43-8.64-2.43-13.39v-58.55zm101.62 0h16.71v84.91h41.56v5.89h-58.27v-90.8zm135.04 0v5.89h-43.68v32.46h27.86v5.89h-27.86v40.68h43.68v5.89h-60.4v-90.8h60.4zm-279.1-61.82h-26.23l-13.11-22.71L441.99.01h26.23l13.11 22.71-13.11 22.71zm-23.75-4.29h21.28l10.64-18.43-10.64-18.43h-21.28l-10.64 18.43 10.64 18.43z"/><path d="M461.2 33.27H449l-6.09-10.56L449 12.15h12.2l6.1 10.56-6.1 10.56zm-9.72-4.29h7.24l3.63-6.28-3.63-6.28h-7.24l-3.62 6.28 3.62 6.28zm78.33 22.32l-25.99-3.5-9.97-24.26 16.03-20.76 25.99 3.5 9.96 24.26-16.02 20.76zm-22.97-7.42l21.09 2.84 13-16.84-8.09-19.68-21.09-2.84-13 16.84 8.09 19.68z"/><path d="M524.48 38.32l-12.09-1.63-4.63-11.28 7.45-9.65 12.09 1.63 4.63 11.28-7.45 9.65zm-9.06-5.55l7.18.97 4.43-5.74-2.76-6.7-7.18-.96-4.43 5.74 2.75 6.7zm74.57 32.05l-25.24-7.13-6.44-25.42 18.79-18.29 25.24 7.14 6.44 25.42-18.79 18.29zM568.3 54.24l20.47 5.79 15.25-14.84-5.23-20.63-20.48-5.79-15.25 14.84 5.23 20.63z"/><path d="M586.53 51.22L574.8 47.9l-2.99-11.82 8.74-8.51 11.73 3.32 2.99 11.82-8.74 8.51zm-8.18-6.77l6.97 1.97 5.19-5.05-1.78-7.03-6.97-1.97-5.19 5.05 1.78 7.03zm63.11 46.85l-22.1-14.12 1.18-26.2 23.28-12.08 22.1 14.12-1.18 26.2-23.28 12.08zm-17.71-16.4l17.93 11.46 18.89-9.8.95-21.26-17.93-11.46-18.89 9.8-.96 21.26z"/><path d="M642.08 77.28l-10.28-6.57.55-12.18 10.82-5.62 10.28 6.57-.55 12.18-10.82 5.62zm-5.89-8.84l6.11 3.9 6.43-3.34.33-7.24-6.11-3.9-6.43 3.34-.33 7.24z"/><circle cx="487.59" cy="23.42" r="6.55"/><circle cx="552.03" cy="31.51" r="6.55"/><circle cx="614.6" cy="48.8" r="6.55"/><path d="M380.4 51.3l-16.03-20.76 9.97-24.26 25.99-3.5 16.03 20.76-9.97 24.26-25.99 3.5zm-11.12-21.42l13 16.84 21.09-2.84 8.08-19.68-13-16.84-21.08 2.84-8.09 19.68z"/><path d="M385.73 38.32l-7.45-9.65 4.63-11.28L395 15.76l7.45 9.65-4.63 11.28-12.09 1.63zM383.18 28l4.43 5.74 7.18-.97 2.75-6.7-4.43-5.74-7.18.96-2.76 6.7zm-62.96 36.82l-18.79-18.29 6.44-25.42 25.24-7.14 18.8 18.29-6.44 25.42-25.24 7.13zm-14.03-19.63l15.25 14.84 20.47-5.79 5.23-20.63-15.25-14.84-20.48 5.79-5.22 20.63z"/><path d="M323.67 51.22l-8.74-8.51 2.99-11.82 11.74-3.32 8.74 8.51-2.99 11.82-11.73 3.32zm-3.98-9.85l5.19 5.05 6.97-1.97 1.78-7.03-5.19-5.05-6.97 1.97-1.78 7.03zM268.75 91.3l-23.28-12.08-1.18-26.2 22.1-14.12 23.28 12.08 1.18 26.2-22.1 14.12zm-19.11-14.74l18.89 9.8 17.93-11.46-.96-21.26-18.89-9.8-17.93 11.46.96 21.26z"/><path d="M268.12 77.28l-10.83-5.62-.55-12.18 10.28-6.57 10.83 5.62.55 12.18-10.28 6.57zM261.47 69l6.43 3.34 6.1-3.9-.32-7.24-6.43-3.34-6.1 3.9.32 7.24z"/><circle cx="422.62" cy="23.42" r="6.55"/><circle cx="358.18" cy="31.51" r="6.55"/><circle cx="295.61" cy="48.8" r="6.55"/><path d="M370.97 239.93l3.55 2.5c-5.5 19.07-15.66 29.57-34.31 35.56l-4.73-3.83c16.98-5.01 26.51-14.19 31.04-29.78h-42.31v-4.45h46.76zm-2.58-16.14v4.38h-37.92v-4.38h37.92zm67.68 51.77c-11.69-4.31-26.72-8.28-41.54-11.06l3.69-4.17c14.06 2.5 29.02 6.4 42.03 10.99l-4.18 4.25zm-4.45-23.52c-8.56-2.79-19.97-5.42-30.34-7.03l3.48-4.04c10.51 1.53 21.44 4.04 30.27 6.89l-3.41 4.17zm4.66-18.51c-10.23-2.99-22.82-5.63-34.79-7.37l3.69-4.04c11.9 1.6 24.98 4.31 34.79 7.38l-3.69 4.03zm76.02 32.78v4.11h-45.92v-4.11h26.37c.83-5.91 1.53-11.76 2.36-20.94h-22.82v-4.11h29.43c-.56 8.34-1.46 17.18-2.44 23.73l-.21 1.32h13.22zm33.86-42.59v45.44c14.4-5.57 27.07-14.47 34.79-24.63l3.96 4.66c-10.65 11.83-22.68 19.56-40.84 26.16l-5.08-2.92v-48.71h7.17z"/></g></svg>