<svg data-name="レイヤー 2" xmlns="http://www.w3.org/2000/svg" width="280" height="247.06" viewBox="0 0 280 247.06"><g data-name="KV_モデルなし"><path d="M24.31 141.77c0-.42-.04-1.22-.1-1.61.56-.04 1.48-.01 2.04.08a44 44 0 00-.04 2.24c1.08-.01 2.02-.01 2.35-.03.34-.01.66-.01 1.01-.08.36.18.9.59 1.13.83-.13 1.26-.41 3.31-1.36 5-1.3 2.31-3.68 3.68-5.95 4.26-.49-.28-1.28-1.16-1.53-1.65 2.44-.39 4.19-1.22 5.42-2.87.77-1.02 1.19-2.61 1.29-3.82-1.19 0-5.24.03-6.64.07.01 1.6.01 1.95.01 1.95 0 .27 0 .52.03.95-.49.06-1.35.06-1.91.04.03-.36.04-.59.06-.95 0-.52-.01-1.93-.01-2.47 0-.41-.01-.85-.06-1.26.48.03.94.04 1.51.04h2.73v-.71zm16.64 8.22c1.39-.01 2.63-.03 2.9-.03.25 0 .62-.01.9-.03.04.32.05 1.39.05 1.65-.41-.01-1.04-.03-1.46-.03-.55 0-5.94.04-6.78.06-.39.01-.7.01-1.02.01-.04-.38-.11-1.33-.1-1.65.34.03.74.04 1.13.04.28 0 1.36 0 2.6-.01v-3.73l-1.9.03c-.38.01-.69.01-.99.01-.06-.38-.11-1.32-.11-1.65.34.03.74.04 1.13.04.71.03 5.18-.04 5.77-.06.29 0 .64-.01.93-.03.03.32.04 1.36.04 1.64-.42-.01-1.04-.01-1.54-.01-.29 0-.88 0-1.55.01v3.73zm11.17-6.46c0-.77-.04-1.34-.11-1.81.56 0 1.42.06 1.97.14 0 5.14.22 7.48-2.7 10.07-.45-.21-1.3-.87-1.67-1.36.34-.2.66-.45.94-.73 1.47-1.53 1.57-3.12 1.57-6.32zm3.87 7.41c.07-.28.1-.5.11-.9.03-1.27.1-5.22.07-7.35 0-.46-.03-.9-.05-1.25.32 0 1.41.08 1.96.18-.08 1.02-.15 6.21-.15 7.69 1.3-.48 2.76-2.06 3.5-3.92.42.32.98 1.11 1.25 1.62-.91 1.74-2.3 3.45-4.95 4.55-.21.07-.41.15-.63.25-.34-.21-.86-.64-1.11-.88zm17.42-10.73s-.03.49-.05 2.1c.94-.01 1.72-.01 1.96-.03.43-.03.77-.06.99-.1.34.25.71.66.94.95-.76 1.23-2.28 2.89-3.82 4.02 0 1.47.02 2.79.02 3.88 0 .49.03.97.04 1.42-.45.04-1.48.04-1.97 0 .03-.45.07-.76.08-1.42.01-.77.01-1.71.01-2.75-1.5.83-2.91 1.36-4.06 1.71-.42-.41-.98-1.26-1.18-1.71 1.62-.29 3.59-.99 5.13-1.89 1.48-.85 2.41-1.75 2.98-2.51-.94 0-5.48.08-6.64.14-.11-.42-.24-1.19-.28-1.77.53.03.93.06 1.44.06h2.58v-.77c-.01-.45-.03-1.02-.08-1.46.5 0 1.47.07 1.92.13zm5.13 8.46c-.22.46-.74 1.09-1.12 1.37-.77-.81-2.16-1.88-3.18-2.47.28-.38.8-.97 1.11-1.23.97.55 2.45 1.65 3.19 2.33zm15.4 1.95c-.27.46-.9 1.15-1.43 1.44-.86-1.15-2.04-2.6-3.53-3.89-1.6 1.68-3.54 3.07-5.29 3.81-.39-.31-1.13-1.13-1.43-1.62 2.46-.83 4.43-2.38 5.73-3.78 1.08-1.13 1.7-2.17 2.14-3.24-1.46.01-5.35.11-6.37.15-.1-.46-.2-1.27-.22-1.83.44.04.95.07 1.42.07.66 0 5.06-.07 5.9-.11.34-.01.67-.06.9-.08.39.25.76.62.99.97-.49 1.16-1.48 2.87-2.58 4.3 1.39 1.11 3.03 2.84 3.78 3.82zm14.45-7.25c.31 0 1.01-.03 1.35-.04.08.5.11 1.16.05 1.71-.38 0-.84-.01-1.26-.01h-1.43c-.03 3.71-.99 5.94-4.55 7.44-.41-.24-1.22-1.02-1.55-1.58.6-.13 1.26-.31 1.69-.55 1.82-.95 2.61-2.31 2.61-5.28l-3.23.03v3.19c-.48.06-1.26.07-1.86 0 .01-.2.04-.87.05-1.3.02-.49.02-1.18.02-1.88h-1.26c-.39.01-.95.03-1.33.04-.11-.41-.17-1.36-.14-1.75.41.03.8.04 1.28.06h1.46c0-.6-.02-1.09-.02-1.36 0-.45-.03-.95-.07-1.34.49 0 1.43.01 1.89.08 0 .31-.01 1.37-.01 2.62l3.22-.03c0-.59-.01-1.15-.03-1.51-.01-.32-.03-.9-.08-1.34.53-.01 1.48.03 1.97.08-.01.66-.03 1.71-.03 2.75h1.27zm13.93 4.9c-1.3 1.93-3.29 3.29-5.37 4.06-.57-.32-1.26-1.13-1.62-1.75 2.09-.49 3.74-1.29 5.1-2.96.9-1.08 1.43-2.62 1.6-3.81-1.25.01-6.39.08-7.61.11-.1-.48-.17-1.62-.17-2.02.59.04 1.25.08 1.72.08.81 0 5.41-.04 6.26-.07.27 0 .59-.01.91-.07.37.21.91.69 1.21 1.09-.35 1.74-.84 3.54-2.03 5.32zm1.36-7.14c0-.8.64-1.44 1.46-1.44s1.44.64 1.44 1.46-.64 1.44-1.44 1.44-1.46-.64-1.46-1.44zm.73.01c0 .36.32.69.73.69.38 0 .7-.32.7-.7 0-.41-.32-.73-.7-.73-.41 0-.73.32-.73.73zm9.13-.14c-.06 1.02-.11 5.28-.13 6.7-.66.06-1.33.06-1.96 0 .06-1.04.11-4.83.11-5.63 0-.28-.03-.8-.07-1.13.43 0 1.5.03 2.04.07zm5.74 3.61c0 3.38-.63 4.72-1.69 5.91-.94 1.05-2.3 1.78-3.28 2.12-.39-.28-1.18-1.12-1.5-1.61 1.16-.25 2.52-.83 3.33-1.75 1.02-1.16 1.23-2.55 1.23-4.9 0-.71 0-1.33-.01-2.09-.03-.59-.06-1.04-.1-1.46.49-.03 1.54.01 2.04.1-.03.39-.03.92-.03 1.3v2.38zm15.33 3.78c-.24.5-.79 1.27-1.25 1.69-.74-.78-1.5-1.44-2.65-2.3-1.26 1.79-3.26 3.54-5.08 4.44-.55-.31-1.21-.92-1.62-1.5 2.18-.81 3.99-2.4 5.21-4.01-1.05-.7-2.23-1.36-3.35-1.88.32-.5.79-1.11 1.15-1.47.77.39 2.14 1.16 3.19 1.79.83-1.54 1.36-3.21 1.57-4.54.73.17 1.54.57 1.89.83-.35 1.29-.98 3-1.93 4.71 1.05.73 2.13 1.54 2.87 2.23zm9.29-5.15c-.18.5-.74 1.39-1.09 1.78-.9-.7-2.52-1.68-3.74-2.24.22-.45.79-1.39 1.01-1.7 1.11.46 2.86 1.42 3.82 2.16zm-.22 5.58c2.37-1.32 3.98-3.25 5.11-5.67.5.34 1.19 1.12 1.44 1.6-1.3 2.35-3.15 4.37-5.53 5.74-1.5.85-2.98 1.41-4.13 1.72-.52-.48-1.04-1.3-1.23-1.89 1.51-.22 3.07-.77 4.34-1.5zm14.75-2.47v4.29c0 .41.03 1.2.06 1.79-.53.06-1.62.01-2.16-.07.04-.45.08-1.19.1-1.78.04-1.29.09-7.14.07-8.25 0-.52-.03-1.25-.1-1.86.55-.01 1.58.03 2.09.11-.03.5-.06 2.06-.06 3.8 1.75.55 3.71 1.32 4.99 1.92-.11.55-.46 1.43-.78 1.86-1.15-.63-2.79-1.34-4.2-1.81zm17.26 1.92c-1.3 1.93-3.29 3.29-5.36 4.06-.57-.32-1.26-1.13-1.62-1.75 2.09-.49 3.74-1.29 5.1-2.96.9-1.08 1.43-2.62 1.6-3.81-1.25.01-6.39.08-7.61.11-.1-.48-.17-1.62-.17-2.02.59.04 1.25.08 1.72.08.81 0 5.24-.04 6.09-.07.27 0 .59-.01.91-.07.36.28.95.91 1.3 1.43-.28 1.36-.77 3.21-1.96 4.99zm2.91-6.05c-.15.17-.54.39-.84.5-.22-.49-.67-1.27-1.04-1.74.28-.2.57-.38.81-.48.34.41.87 1.29 1.06 1.71zm1.43-.69c-.17.15-.52.35-.81.46-.27-.53-.69-1.25-1.04-1.68.27-.18.56-.35.81-.45.34.38.84 1.23 1.04 1.67zm11.73 8.03c-1.55 1.7-3.74 2.63-5.11 2.9-.46-.34-1.18-1.16-1.46-1.71 1.79-.18 3.77-.92 5.01-2.2.76-.77 1.16-1.64 1.39-2.51-.85 0-6.58.08-7.75.13-.11-.43-.2-1.4-.18-1.86.52.04.99.07 1.51.07.98.04 5.91-.01 6.96-.08.31-.01.55-.04.79-.07.28.13.78.45 1.05.69-.39 1.51-.95 3.25-2.21 4.65zm-5.73-8.6c.85.03 4.96-.03 5.67-.06.47-.01.84-.06 1.15-.08.08.41.12 1.25.11 1.75-.57 0-5.81.03-6.75.06-.21 0-.87.01-1.25.03-.06-.42-.14-1.23-.13-1.75.46.03.7.04 1.19.06zm17.35 2.28c-.18.5-.74 1.39-1.09 1.78-.9-.7-2.52-1.68-3.74-2.24.22-.45.78-1.39 1.01-1.7 1.11.46 2.86 1.42 3.82 2.16zm-.22 5.58c2.37-1.32 3.98-3.25 5.11-5.67.5.34 1.19 1.12 1.44 1.6-1.3 2.35-3.15 4.37-5.53 5.74-1.5.85-2.98 1.41-4.13 1.72-.52-.48-1.04-1.3-1.23-1.89 1.51-.22 3.07-.77 4.34-1.5zm14.66-4.45c1.74.55 3.71 1.32 4.99 1.92-.13.55-.48 1.43-.79 1.86-1.15-.63-2.8-1.34-4.22-1.81v4.29c0 .41.04 1.2.07 1.79-.53.06-1.62.01-2.16-.07.04-.45.08-1.19.1-1.78.03-1.29.07-7.14.07-8.25-.02-.52-.03-1.25-.1-1.86.55-.01 1.58.03 2.09.11-.03.5-.06 2.06-.06 3.8zm3.49-.91c-.25-.59-.69-1.4-.98-1.9.27-.17.69-.35.92-.42.28.39.81 1.39 1 1.86-.2.15-.6.38-.94.46zm2.61-1.23c-.2.17-.6.38-.94.49-.24-.56-.69-1.39-1.01-1.88.28-.17.67-.36.93-.45.31.43.81 1.34 1.02 1.83zM280 86.28c0 2.9-2.36 5.26-5.26 5.26s-5.26-2.36-5.26-5.26 2.36-5.26 5.26-5.26 5.26 2.4 5.26 5.26zm-9.83 0c0 2.53 2.04 4.57 4.57 4.57s4.57-2.04 4.57-4.57-2.04-4.57-4.57-4.57-4.57 2.08-4.57 4.57zm2.53-2.69c.44-.08 1.14-.15 1.83-.15 1.45 0 2.42.51 2.42 1.58 0 .74-.59 1.24-1.12 1.39v.04c.42.17.67.57.84.99.21.72.38 1.37.51 1.6h-1.05c-.08-.15-.23-.57-.4-1.26-.19-.72-.5-.99-1.16-1.03h-.95v2.29h-.93v-5.45zm.99 2.4h.99c.82 0 1.28-.34 1.28-.88 0-.65-.59-.88-1.3-.88-.48 0-.84.04-.97.08v1.68zM0 49.64h7.73v39.3h23.11v2.73H0V49.65zm42.21-.95l-9.32 10.9h-1.71l3.23-10.9h7.8zm28.85 0l19.78 42.98h-7.99l-6.4-14.01H57.84l-6.56 14.01h-3.42l20.09-42.98h3.11zM59.14 74.93h16l-8.05-17.08-7.95 17.08zM95.3 49.64h8.59l15.54 30.94s15.73-29.59 16.4-30.94h7.83v42.02h-7.77V57.21l-17.65 34.45h-1.33L98.43 55.75v35.91h-3.14V49.64zm58.47 0h7.73v27.29c0 8.38 4.42 11.31 6.11 11.99 1.69.69 3.58 1.03 5.67 1.03 1.22 0 2.4-.19 3.52-.55 1.12-.37 2.16-.87 3.12-1.51.96-.63 1.83-1.37 2.62-2.22.78-.84 1.45-1.75 2.01-2.73.56-.97.99-1.97 1.3-3.01.3-1.03.46-2.05.46-3.04V49.63h3.11v26.81c0 2.09-.36 4.11-1.09 6.05a14.32 14.32 0 01-3.35 5.17c-1.5 1.5-3.41 2.71-5.73 3.61-2.33.91-5.07 1.36-8.24 1.36-2.79 0-5.26-.42-7.4-1.25-2.15-.83-3.95-1.97-5.4-3.41a14.253 14.253 0 01-3.31-5.05c-.75-1.93-1.12-4-1.12-6.2v-27.1zm47.03 0h7.73v39.3h19.23v2.73h-26.97V49.65zm62.5 0v2.73h-20.22v15.02h12.9v2.73h-12.9v18.83h20.22v2.73h-27.95V49.66h27.95zM134.13 21.02h-12.14l-6.07-10.51L121.99 0h12.14l6.07 10.51-6.07 10.51zm-10.99-1.98h9.85l4.92-8.53-4.92-8.53h-9.85l-4.92 8.53 4.92 8.53z"/><path d="M130.88 15.4h-5.64l-2.82-4.89 2.82-4.89h5.64l2.82 4.89-2.82 4.89zm-4.5-1.98h3.35l1.68-2.9-1.68-2.9h-3.35l-1.68 2.9 1.68 2.9zm36.26 10.32l-12.03-1.62L146 10.89l7.42-9.61 12.03 1.62 4.61 11.23-7.42 9.61zm-10.63-3.43l9.76 1.31 6.02-7.8-3.74-9.11-9.76-1.31-6.02 7.8 3.74 9.11z"/><path d="M160.17 17.74l-5.59-.75-2.14-5.22 3.45-4.47 5.59.75 2.14 5.22-3.45 4.47zm-4.19-2.57l3.32.45 2.05-2.65-1.28-3.1-3.32-.45-2.05 2.65 1.27 3.1zM190.49 30l-11.68-3.3-2.98-11.77 8.7-8.47 11.68 3.3 2.98 11.77-8.7 8.46zm-10.04-4.9l9.48 2.68 7.06-6.87-2.42-9.55-9.48-2.68-7.06 6.87 2.42 9.55z"/><path d="M188.89 23.71l-5.43-1.54-1.39-5.47 4.05-3.94 5.43 1.54 1.39 5.47-4.05 3.94zm-3.79-3.13l3.23.91 2.4-2.34-.82-3.25-3.23-.91-2.4 2.34.82 3.25zm29.21 21.67l-10.23-6.54.55-12.13 10.77-5.59 10.23 6.54-.54 12.13-10.77 5.59zm-8.2-7.59l8.3 5.3 8.74-4.54.44-9.84-8.3-5.3-8.74 4.54-.44 9.84z"/><path d="M214.6 35.77l-4.76-3.04.25-5.64 5.01-2.6 4.76 3.04-.25 5.64-5.01 2.6zm-2.72-4.09l2.83 1.81 2.98-1.55.15-3.35-2.83-1.81-2.98 1.55-.15 3.35z"/><circle cx="143.09" cy="10.84" r="3.03"/><circle cx="172.92" cy="14.58" r="3.03"/><circle cx="201.88" cy="22.59" r="3.03"/><path d="M93.48 23.74l-7.42-9.61L90.67 2.9l12.03-1.62 7.42 9.61-4.61 11.23-12.03 1.62zm-5.15-9.92l6.02 7.8 9.76-1.31 3.74-9.11-6.02-7.8-9.76 1.31-3.74 9.11z"/><path d="M95.95 17.74l-3.45-4.47 2.14-5.22 5.59-.75 3.45 4.47-2.14 5.22-5.59.75zm-1.18-4.77l2.05 2.65 3.32-.45 1.27-3.1-2.05-2.65-3.32.45-1.28 3.1zM65.63 30l-8.7-8.46 2.98-11.77 11.68-3.3 8.7 8.47-2.98 11.77-11.68 3.3zm-6.49-9.09l7.06 6.87 9.48-2.68 2.42-9.55-7.06-6.87-9.48 2.68-2.42 9.55z"/><path d="M67.23 23.71l-4.05-3.94 1.39-5.47L70 12.76l4.04 3.94-1.39 5.47-5.43 1.54zm-1.84-4.56l2.4 2.34 3.23-.91.82-3.25-2.4-2.34-3.23.91-.82 3.25zm-23.58 23.1l-10.77-5.59-.55-12.13 10.23-6.54 10.77 5.59.55 12.13-10.23 6.54zm-8.84-6.82l8.74 4.54 8.3-5.3-.44-9.84-8.74-4.54-8.3 5.3.44 9.84z"/><path d="M41.52 35.77l-5.01-2.6-.25-5.64 4.76-3.04 5.01 2.6.25 5.64-4.76 3.04zm-3.08-3.83l2.98 1.55 2.83-1.81-.15-3.35-2.98-1.55-2.83 1.81.15 3.35z"/><circle cx="113.03" cy="10.84" r="3.03"/><circle cx="83.2" cy="14.58" r="3.03"/><circle cx="54.24" cy="22.59" r="3.03"/><path d="M89.12 111.05l1.64 1.16c-2.54 8.82-7.25 13.69-15.88 16.46l-2.19-1.77c7.86-2.32 12.27-6.57 14.37-13.78H67.48v-2.06h21.64zm-1.19-7.47v2.03H70.38v-2.03h17.55zm31.32 23.96c-5.41-2-12.37-3.83-19.23-5.12l1.71-1.93c6.51 1.16 13.43 2.96 19.45 5.09l-1.93 1.97zm-2.06-10.89c-3.96-1.29-9.24-2.51-14.04-3.25l1.61-1.87c4.86.71 9.92 1.87 14.01 3.19l-1.58 1.93zm2.16-8.57c-4.73-1.39-10.56-2.61-16.1-3.41l1.71-1.87c5.51.74 11.56 2 16.1 3.42l-1.71 1.87zm35.18 15.17v1.9h-21.25v-1.9h12.21c.38-2.74.71-5.44 1.09-9.69h-10.56v-1.9h13.62c-.26 3.86-.68 7.95-1.13 10.98l-.1.61h6.12zm15.67-19.71v21.03c6.66-2.58 12.53-6.7 16.1-11.4l1.83 2.16c-4.93 5.47-10.5 9.05-18.9 12.11l-2.35-1.35v-22.55h3.32zm-126.39 91.9c.17-.6.29-1.22.34-1.82.55.07 1.32.36 1.66.58-.07.43-.19.91-.36 1.46 3.24.67 5.06 3.05 5.06 6.07 0 3.72-2.59 6.67-7.8 7.25-.38-.34-.72-1.13-.86-1.63 4.27-.12 7.03-2.26 7.03-5.66 0-2.35-1.39-4.18-3.91-4.68-.89 2.21-2.45 4.97-5.04 7.66.14.46.34.89.55 1.34-.26.31-.84.72-1.32.86-.17-.31-.34-.67-.48-1.03-1.1.94-2.23 1.54-3.5 1.54-1.78 0-3.07-1.61-3.07-3.72 0-1.1.43-2.23 1.08-3.12 1.06-1.46 2.74-2.81 4.58-3.72.07-1.3.19-2.62.31-3.86-.5.02-.96.05-1.42.05-.62 0-1.8-.02-2.5-.07-.14-.38-.26-1.3-.26-1.7.62.14 1.7.22 2.57.22h.02c.58 0 1.15-.02 1.73-.05.14-1.46.26-2.69.29-3.31.6 0 1.3.1 1.75.26-.14.62-.29 1.68-.46 2.95 2.3-.22 4.56-.6 6.58-1.18.14.46.19 1.22.19 1.58-1.58.41-4.32.91-6.94 1.15-.12 1.06-.22 2.18-.31 3.29 1.44-.48 2.93-.7 4.08-.7h.41zm-5.64 8.76c-.34-1.39-.5-3-.5-4.7 0-.34 0-.67.02-1.03-1.2.72-2.57 1.8-3.36 3.02-.46.7-.65 1.42-.65 2.09 0 1.03.58 2.14 1.58 2.14.86 0 1.73-.43 2.9-1.51zm1.3-1.32c1.01-1.18 2.78-3.5 3.84-6.02-1.51.02-2.93.34-4.08.82-.02.72-.05 1.42-.05 2.02 0 .94.07 2.04.29 3.19zm28.34-9.53c-1.13 3.6-2.98 8.06-4.8 10.92-.46-.1-1.3-.53-1.63-.91 1.87-2.62 3.62-6.65 4.66-9.82-1.32.12-2.64.17-3.86.14-.26-.43-.41-1.15-.41-1.73.7.12 1.51.17 1.94.17.79 0 1.75-.02 2.78-.12.14-.55.26-1.03.36-1.58.12-.77.24-1.54.26-2.14.65.07 1.37.26 1.8.53-.14.89-.38 1.92-.67 2.98 1.42-.22 2.83-.58 4.08-1.13.19.34.31 1.06.29 1.51-1.25.53-2.98.94-4.8 1.18zm8.04 9.41c1.78.5 3.43 1.34 4.8 2.4-.02.55-.38 1.39-.79 1.7a11.371 11.371 0 00-3.91-2.45c.02.43.05.79.05.98 0 1.82-1.08 3.31-3.79 3.31-2.28 0-4.63-1.13-4.63-3.38 0-1.99 2.23-3.07 4.7-3.07.65 0 1.3.05 1.94.14-.12-2.11-.29-4.82-.17-6.07.55-.17 1.3-.14 1.73-.05-.12 1.37-.14 2.09-.12 3.17.02.65.1 2.02.19 3.31zm-1.56 1.15c-.7-.14-1.42-.22-2.11-.22-1.87 0-2.98.62-2.98 1.63s1.01 1.82 2.81 1.82c2.02 0 2.3-1.15 2.3-2.38 0-.24 0-.53-.02-.86zm7.27-9.91c-.14.5-.48 1.1-.84 1.49-1.2-1.39-3.79-2.86-5.28-3.43.12-.48.46-1.06.72-1.34 1.8.72 4.39 2.23 5.4 3.29zm11.14-1.2c1.01 0 2.18-.1 3.36-.24.07-.41.14-.72.19-.98.24-1.2.48-2.5.48-3.48.58.07 1.49.26 1.97.48-.14.65-.48 2.06-.86 3.7 1.75-.31 3.36-.72 4.3-1.1.1.43.05 1.37-.02 1.8-1.06.34-2.76.7-4.68 1.01-.24 1.01-.5 2.04-.74 2.98-.86 3.22-2.47 8.42-3.58 11.4-.6-.1-1.44-.36-1.87-.65 1.18-2.66 3.1-8.54 3.82-11.16.24-.84.43-1.61.6-2.33-1.46.19-2.98.31-4.32.31-.17-.36-.34-1.32-.36-1.8.48.05.98.07 1.7.07h.02zm17.74 13.23c.02.46-.1 1.42-.31 1.85-.6.17-2.21.36-4.01.36-3.84 0-6.22-1.42-6.19-3.86.02-1.08.5-2.21.86-2.88.53.1 1.18.36 1.56.62-.36.53-.72 1.27-.72 2.02-.02 1.13.89 2.47 4.66 2.47 1.8 0 3.31-.29 4.15-.58zm-3.7-12.05c1.01 0 2.86.07 3.96.24 0 .46-.05 1.22-.22 1.68-1.01-.22-2.38-.34-3.79-.34-1.18-.02-2.45.05-3.58.22-.07-.34-.05-1.2.02-1.63 1.2-.12 2.52-.19 3.58-.17h.02zm34.59 5.06c0 5.26-3 8.47-7.9 9.26-.36-.38-.84-1.2-.96-1.75.79-.05 1.42-.17 1.99-.31 2.45-.62 5.09-2.64 5.09-7.22 0-4.13-2.88-7.06-7.46-7.15-.02 1.85-.43 5.23-.98 7.44-1.08 4.39-2.62 7.46-5.26 7.46-2.28 0-4.51-3.1-4.51-6.74 0-5.45 4.44-9.72 10.54-9.72 5.52 0 9.46 3.55 9.46 8.74zm-10.99-7.08c-4.75.7-7.27 4.51-7.27 7.9 0 3.07 1.61 4.94 2.83 4.94 1.39 0 2.59-1.94 3.55-5.86.5-2.02.89-5.16.89-6.98zm22.36-3.14h15.58v20.21h-1.68v-1.44h-12.24v1.58h-1.66v-20.35zm13.9 1.63h-12.24v6.89h12.24v-6.89zm-12.24 15.51h12.24v-7.03h-12.24v7.03zm43.44-17.74c-.12.17-.31.22-.5.19-.5.72-1.3 1.78-1.97 2.54h4.32v4.99h-1.58v-3.53h-17.11v3.53h-1.54v-4.99h3.94c-.43-.84-1.22-2.02-1.92-2.86l1.39-.6c.86.94 1.75 2.18 2.18 3.02l-.91.43h4.44v-3.72l2.09.14c-.02.17-.14.29-.46.34v3.24h4.34l-.72-.34c.7-.86 1.63-2.26 2.11-3.19l1.9.79zm.26 13.44v5.02c0 1.8-.89 1.8-4.8 1.8-.07-.43-.34-.98-.55-1.42.91.02 1.75.05 2.35.05 1.22 0 1.42 0 1.42-.43v-3.53h-6.31v6.43h-1.63v-6.43h-5.95v5.38h-1.56v-6.86h7.51v-2.02h-5.35v-5.33h12.75v5.33h-5.47c-.07.05-.17.07-.29.1v1.92h7.9zm-13.37-6.07v2.81h9.65v-2.81h-9.65zm44.72 3.45c0 5.26-3 8.47-7.9 9.26-.36-.38-.84-1.2-.96-1.75.79-.05 1.42-.17 1.99-.31 2.45-.62 5.09-2.64 5.09-7.22 0-4.13-2.88-7.06-7.46-7.15-.02 1.85-.43 5.23-.98 7.44-1.08 4.39-2.62 7.46-5.26 7.46-2.28 0-4.51-3.1-4.51-6.74 0-5.45 4.44-9.72 10.54-9.72 5.52 0 9.46 3.55 9.46 8.74zm-10.99-7.08c-4.75.7-7.27 4.51-7.27 7.9 0 3.07 1.61 4.94 2.83 4.94 1.39 0 2.59-1.94 3.55-5.86.5-2.02.89-5.16.89-6.98zm-201.25 44.7c-.65 1.66-2.52 5.16-3.82 6.65-.5-.14-1.2-.5-1.58-.86 1.2-1.27 3.05-4.15 3.84-6.53.5.17 1.18.48 1.56.74zm5.78-3.65c0 2.66.05 10.06.05 11.52 0 1.25-.62 1.87-1.94 1.87-1.08 0-2.88-.24-3.79-.41-.14-.36-.26-1.39-.26-1.82 1.06.31 2.64.58 3.43.58.6 0 .91-.24.91-.94 0-1.51-.05-8.54-.05-10.78-2.98.02-5.71.07-6.36.07-.5 0-1.51 0-2.16.02-.07-.43-.17-1.32-.17-1.73.72.05 1.25.05 2.04.07.65.02 3.58 0 6.65-.02 0-1.49 0-3.6-.14-4.32.48 0 1.46.05 1.97.14-.05.91-.12 2.38-.17 4.15 3.07-.02 5.95-.07 6.5-.07s1.37-.02 1.92-.05c.05.38.12 1.25.12 1.7-.5-.02-1.1-.02-1.7-.05-.55 0-3.62.02-6.84.05zm5.23 3c1.08 1.15 3.46 4.97 3.96 6.6-.34.31-1.06.65-1.63.79-.62-2.11-2.38-5.02-3.74-6.65.34-.26.98-.6 1.42-.74zm-.38-7.87c0-1.25 1.03-2.26 2.3-2.26s2.28 1.01 2.28 2.28-1.03 2.28-2.28 2.28-2.3-1.01-2.3-2.28v-.02zm.91.05c0 .74.6 1.37 1.39 1.37.74 0 1.37-.62 1.37-1.39s-.62-1.39-1.37-1.39c-.79 0-1.39.62-1.39 1.39v.02zm19.57 7.87c-.12.43-.53 1.2-.82 1.51-1.22-.77-3.91-2.11-5.47-2.76.14-.43.53-1.2.79-1.51 1.39.55 4.42 2.04 5.5 2.76zm2.83 5.95c3.31-1.92 6.77-5.26 8.69-9.19.5.31 1.1 1.06 1.34 1.49-2.02 3.5-5.21 6.84-9.12 9.17a28.792 28.792 0 01-7.2 3.1c-.46-.36-.98-1.2-1.22-1.78 2.45-.36 5.28-1.49 7.51-2.78zm.22-11.38c-.14.43-.6 1.18-.91 1.49-1.22-.84-3.96-2.3-5.35-2.93.17-.43.6-1.22.84-1.51 1.49.67 4.32 2.14 5.42 2.95zm8.19-.14c-.22.22-.62.46-1.01.58-.46-.96-1.2-2.21-1.85-3.02.29-.22.67-.46.96-.55.6.7 1.54 2.18 1.9 3zm2.59-1.25c-.22.19-.62.43-.98.58-.5-1.01-1.22-2.16-1.87-2.93.29-.24.7-.46.98-.55.6.65 1.51 2.06 1.87 2.9zm27.69 6.55c-.5-.02-1.08-.02-1.7-.05-.5 0-3.43.02-6.6.05-.05 3.05-.41 4.9-1.7 6.82-1.1 1.61-3.24 3.19-5.47 4.01-.55-.29-1.22-.98-1.51-1.44 1.66-.43 4.03-1.56 5.33-3.26 1.34-1.82 1.54-3.48 1.56-6.1-3.22.02-6.26.07-6.94.07-.48 0-1.46 0-2.11.02-.1-.41-.19-1.3-.17-1.75.67.05 1.22.05 2.02.07 1.39.05 14.09-.1 15.29-.12.53 0 1.34-.02 1.92-.05.07.43.12 1.25.1 1.73zm-16.49-5.76c-.07-.43-.17-1.25-.17-1.75.77.05 1.18.07 2.02.1 1.44.05 8.52-.12 9.72-.14.82-.02 1.42-.1 1.97-.14.07.38.14 1.25.12 1.75-.74 0-10.01.1-11.52.14-.38 0-1.49.02-2.14.05zm34.49 7.01c-.02 5.45-.02 8.18-.02 8.18 0 .6.02 1.27.05 1.8-.36.05-1.44.05-1.85 0 0-.24.05-.86.07-1.78.02-.74.07-2.9.05-7.06-1.87 1.13-3.96 2.06-6.02 2.74-.38-.31-.94-.96-1.2-1.51 2.18-.46 4.68-1.42 6.67-2.71 2.09-1.32 4.06-3.22 4.94-4.66.43.31.94.91 1.18 1.32-.86 1.13-2.21 2.42-3.86 3.67zm27.38 2.59c-2.38 3.41-5.74 5.4-9.22 6.65-.55-.29-1.2-1.06-1.54-1.66 3.77-.91 6.74-2.71 9.05-5.69 1.63-2.11 2.62-5.21 2.95-7.56-1.58.02-11.83.14-13.95.19-.12-.46-.26-1.49-.26-1.94.84.07 1.73.12 2.62.12 1.01 0 10.06-.05 11.35-.1.31-.02.67-.02 1.08-.1.34.24.96.82 1.27 1.25-.5 2.38-1.27 5.76-3.36 8.83zm5.5-9.38c-.19.22-.6.48-.94.6-.48-.94-1.22-2.18-1.87-2.98.29-.22.65-.46.91-.55.6.67 1.51 2.14 1.9 2.93zm2.3-1.22c-.19.19-.6.43-.94.58-.48-.96-1.25-2.11-1.87-2.88.29-.19.65-.43.91-.53.6.62 1.51 2.04 1.9 2.83zm25.66 15.48c-.24.48-.86 1.1-1.37 1.37-1.37-1.92-3.82-4.78-6.7-7.15-2.88 3.1-6.46 5.57-9.72 7.01-.41-.29-1.13-1.1-1.42-1.58 4.3-1.51 8.16-4.63 10.34-7.08 1.9-2.14 3.36-4.42 4.1-6.43-1.66.02-10.32.22-12.1.31-.14-.46-.26-1.25-.29-1.82.7.07 1.46.1 2.26.1.86 0 9.29-.14 10.51-.22.41-.02.72-.05 1.03-.12.38.22.77.62.98.94-.74 1.94-2.54 5.09-4.63 7.66 2.33 1.82 5.5 5.02 6.98 7.03zm18.26-9.82c-2.5 1.56-5.45 2.88-8.04 3.7-.46-.34-1.15-1.15-1.37-1.68 2.66-.5 5.98-1.85 8.59-3.5 2.76-1.78 5.52-4.34 6.6-6.17.53.36 1.1 1.01 1.37 1.46-1.15 1.39-2.98 3.17-5.18 4.82-.02 7.2-.02 10.85-.02 10.85 0 .82.05 1.68.07 2.4-.48.07-1.54.07-2.11 0 .02-.43.1-1.13.12-2.35.02-1.01.1-3.98.1-9.6l-.12.07zm21.38 3.46c-.24.22-1.08.65-1.49.74-.46-1.06-1.61-3.24-2.09-3.94.29-.22 1.1-.6 1.46-.72.46.72 1.61 2.81 2.11 3.91zm11.11-4.15c-.48 2.47-1.56 5.23-3.12 7.44-2.04 2.88-4.99 4.46-6.89 5.16-.41-.24-1.03-.89-1.32-1.37 2.23-.58 5.02-2.18 6.86-4.78 1.51-2.09 2.45-4.54 2.78-7.22.48.12 1.3.5 1.68.77zm-6.48 2.4c-.24.22-1.06.58-1.49.67-.41-1.1-1.25-3.05-1.8-3.96.31-.19 1.13-.53 1.49-.65.48.86 1.39 2.88 1.8 3.94zm27.7-1.3c3.12-.02 5.95-.07 6.48-.07s1.39-.05 1.97-.07c.1.46.12 1.22.1 1.73-.5-.02-1.1-.05-1.7-.05-.53 0-3.6.02-6.89.05-.31 4.85-2.3 7.85-6.96 9.91-.46-.24-1.2-.96-1.44-1.44 4.13-1.37 6.34-3.84 6.7-8.45-3.34.02-6.5.07-7.2.07-.5 0-1.49.02-2.16.02-.1-.41-.17-1.32-.17-1.73.72.02 1.25.05 2.06.07.67.02 4.06 0 7.51-.02v-4.7c-2.02.29-4.78.58-6.77.67-.34-.43-.67-1.22-.77-1.73 1.61.1 5.28-.19 8.04-.62 2.54-.38 4.9-.91 5.98-1.39.34.36.77 1.1.94 1.56-1.15.38-3.62.89-5.71 1.22v4.97z"/></g></svg>