<svg data-name="レイヤー 2" xmlns="http://www.w3.org/2000/svg" width="126.73" height="26.38" viewBox="0 0 126.73 26.38"><path d="M25.26 3.05v2.44h-5.94l.98.22c-.11.2-.31.31-.7.34-.34.76-.84 1.73-1.34 2.57h5.63v14.7c0 2.71-1.09 3.05-6.16 3.05-.11-.76-.53-1.88-.9-2.57 1.06.05 2.13.08 2.91.08 1.48 0 1.6 0 1.6-.62v-8.51c-.39.42-.92.56-1.74.56h-2.8c-2.27 0-2.77-.59-2.77-2.6v-1.79h-3.14c-.31 2.8-1.32 4.76-5.68 5.74-.2-.5-.7-1.29-1.15-1.74v11.45H1.54V8.62h5.35c-.28-.89-.73-2.02-1.18-2.86l1.4-.28H0V3.04h11.12V.11l3.36.2c-.03.25-.2.39-.64.47v2.27h11.42zm-21.2 7.87v3.89c3.25-.64 4.2-1.74 4.51-3.89H4.06zM18.23 23.6h-8.6v1.65H7.25v-8.74h10.98v7.08zM9.33 8.62h6.08c.45-.92.95-2.13 1.29-3.13H8.38c.53.98 1.09 2.18 1.32 3.05l-.36.08zm6.5 9.91H9.64v3.03h6.19v-3.03zm3.44-5.21c.53 0 .64-.11.73-.98.28.22.84.42 1.34.59v-2.02h-5.01v1.79c0 .53.11.62.78.62h2.16zm15.03 13V14.06h10.5V26.1h-2.63v-1.01h-5.35v1.23H34.3zm7.87-9.72h-5.35v5.94h5.35V16.6zM53.59 1.06v10.39h-14.7V1.06h14.7zM50.87 8.9V3.61h-9.44V8.9h9.44zm-3.42 5.15h10.81v12.04H55.6v-1.01H50v1.18h-2.55V14.05zM50 22.51h5.6V16.6H50v5.91zm20.64-5.43c-.08.25-.31.34-.62.31-.31 2.35-.92 5.04-1.74 6.69-.5-.31-1.34-.7-1.9-.92.76-1.57 1.26-4.23 1.57-6.69l2.69.62zm4.4-4.65c-.42-.84-.92-1.68-1.4-2.44l1.93-.87c1.26 1.82 2.55 4.2 3 5.77l-2.1 1.01c-.11-.42-.28-.9-.5-1.43l-2.41.14v11.73h-2.35V14.75c-1.43.06-2.72.14-3.75.17-.06.25-.28.36-.48.39l-.56-2.74 2.1-.03c.53-.62 1.06-1.35 1.6-2.1-.84-1.23-2.3-2.8-3.53-3.95l1.29-1.79.73.64c.9-1.62 1.88-3.67 2.44-5.24l2.72 1.12c-.08.2-.34.28-.67.28-.73 1.57-1.96 3.75-2.97 5.32.53.56 1.01 1.12 1.37 1.62 1.15-1.73 2.21-3.55 2.97-5.07l2.63 1.2c-.11.17-.36.28-.7.28-1.37 2.27-3.5 5.29-5.43 7.64l4.09-.08zm1.2 3.92c.78 1.74 1.57 3.98 1.88 5.46-.59.2-1.18.42-2.13.76-.25-1.51-1.04-3.81-1.76-5.57l2.02-.64zm14.53-14.9l1.34.09c0 .22 0 .56-.03.84-.17 6.36-.42 8.71-1.06 9.55-.62.76-1.34.95-3.53.95-.53 0-1.09 0-1.68-.03-.06-.73-.34-1.71-.73-2.32 1.23.11 2.38.11 2.86.11.42 0 .7-.06.9-.28.39-.47.56-2.16.73-6.41H84.7c-.5 3.72-1.54 7.48-5.54 9.74-.34-.64-1.04-1.54-1.62-1.96 3.22-1.71 4.17-4.56 4.59-7.79H78.1V1.48h12.12l.56-.03zM78.9 26.37V14.89h12.54v11.37h-2.55v-1.09h-7.53v1.2H78.9zm10-9.13h-7.53v5.54h7.53v-5.54zm12.85-4.02c-.34-.62-1.06-1.6-1.62-2.16 4.98-2.49 9.63-7.14 11.68-11.06.22 0 .45.03 3.72.2-.06.28-.31.48-.64.5 2.6 4.14 7.42 8.01 11.84 9.94-.64.7-1.26 1.6-1.74 2.44-4.54-2.38-9.3-6.44-11.73-10.28-2.21 3.7-6.69 7.81-11.51 10.42zm5.21-2.86l3.39.2c-.03.25-.22.39-.67.47v3.08c0 4.03-.59 8.85-6.22 12.24-.45-.59-1.48-1.48-2.18-1.9 5.15-3 5.68-7 5.68-10.39v-3.7zm9.94-.14l3.42.22c-.03.22-.22.39-.67.45v15.43h-2.74v-16.1z" fill="#6e6e64" data-name="design"/></svg>