<svg id="_レイヤー_2" data-name="レイヤー 2" xmlns="http://www.w3.org/2000/svg" viewBox="0 0 305.19 50.83"><defs><style>.cls-1,.cls-2{fill:#06c755;stroke-width:0}.cls-2{fill:#fff}</style></defs><g id="_レイヤー_1-2" data-name="レイヤー 1"><path class="cls-2" d="M53.34 21.64C53.34 9.71 41.38 0 26.67 0S0 9.71 0 21.64c0 10.7 9.49 19.66 22.31 21.35.87.19 2.05.57 2.35 1.32.27.67.18 1.73.09 2.41 0 0-.31 1.88-.38 2.28-.12.67-.54 2.64 2.31 1.44 2.85-1.2 15.36-9.04 20.96-15.49 3.87-4.24 5.72-8.54 5.72-13.32z"/><path class="cls-1" d="M44.47 28.54h-7.49c-.28 0-.51-.23-.51-.51V16.4c0-.29.23-.52.51-.52h7.49c.28 0 .51.23.51.51v1.89c0 .28-.23.51-.51.51h-5.09v1.96h5.09c.28 0 .51.23.51.51v1.89c0 .28-.23.51-.51.51h-5.09v1.96h5.09c.28 0 .51.23.51.51v1.89c0 .28-.23.51-.51.51zm-27.72 0c.28 0 .51-.23.51-.51v-1.89c0-.28-.23-.51-.51-.51h-5.09v-9.24c0-.28-.23-.51-.51-.51H9.26c-.28 0-.51.23-.51.51v11.63c0 .29.23.52.51.52h7.49z"/><rect class="cls-1" x="18.86" y="15.88" width="2.91" height="12.66" rx=".51" ry=".51"/><path class="cls-1" d="M34.14 15.88h-1.89c-.28 0-.51.23-.51.51v6.91l-5.33-7.19s-.03-.04-.04-.05c0-.01-.02-.02-.03-.03 0 0-.02-.02-.03-.02L26.3 16s-.02-.01-.03-.02h-.02s-.02-.01-.03-.02h-.02s-.02 0-.03-.01h-2.08c-.28 0-.51.23-.51.51V28.1c0 .28.23.51.51.51h1.89c.28 0 .51-.23.51-.51v-6.91l5.33 7.2a.8.8 0 00.13.13c.01 0 .02.01.03.02h.01s.02 0 .02.01c0 0 .02 0 .02.01h.02a.585.585 0 00.17.03h1.88c.28 0 .51-.23.51-.51V16.44c0-.28-.23-.51-.51-.51z"/><path class="cls-2" d="M83.33 11.85v20.77h8.8v4.96H77.92V11.85h5.41zm17.28 0v25.73h-5.44V11.85h5.44zm10.02 0l11.26 17.5v-17.5h5.41v25.73h-5.98l-11.26-17.5v17.5h-5.41V11.85h5.98zm36.16 10.05v4.83h-10.37v5.89h11.74v4.96h-17.15V11.85h16.74v4.96h-11.33v5.09h10.37zm31.58-4.04c-.99-.06-1.89-.1-2.59-.1-1.06 0-2.69.06-3.84.42-4.54 1.34-9.66 6.05-9.66 10.56 0 3.01 2.4 4.77 10.59 4.77 1.5 0 2.24-.06 2.88-.1l-.7 5.5c-3.81-.03-6.94-.1-10.33-.96-6.75-1.7-7.71-6.43-7.71-8.9 0-4.35 2.82-8.06 6.85-10.78-2.85.22-10.11.86-12.54 1.18l-.29-5.5c2.08-.03 3.04-.1 6.75-.35 6.82-.45 13.02-.64 20.45-.86l.16 5.12zm-6.5 3.17c1.44 1.76 2.43 3.55 3.58 5.98l-2.82 1.63c-1.09-2.53-1.95-4.06-3.46-6.11l2.69-1.5zm4.39-2.05c1.5 1.79 2.56 3.65 3.71 5.92l-2.85 1.54c-1.18-2.53-1.89-3.84-3.58-6.05l2.72-1.41zm19.97-1.76h-8.03v9.41c0 1.98-.38 4.93-.67 6.98-.51 3.62-1.79 5.76-2.56 7.07L181.16 37c1.44-3.07 2.27-6.4 2.27-9.79V12.65h11.39v-2.46h4.9v2.46h11.9v4.58h-13.89c.58.26 3.84 1.6 7.07 3.97l-2.98 3.65c-1.54-1.34-3.1-2.5-7.94-4.48l2.34-3.14zm-2.4 8.71c-.1 3.01-.74 9.28-2.37 12.61l-4.06-1.79c1.73-3.26 2.34-8 2.5-11.49l3.94.67zm.89-1.63h4.74v10.85c0 .51.32.8.74.8h1.44c.19 0 .48 0 .58-.51.16-.67.26-3.26.29-4.1l3.94.83c-.06 1.12-.35 5.34-1.02 6.66-.8 1.54-2.21 1.6-2.59 1.6h-5.5c-1.09 0-2.59-.51-2.59-2.53V24.3zm13.92-.32c2.43 5.76 3.26 10.91 3.58 13.38l-4.8.99c-.29-4.86-1.28-8.7-3.26-12.99l4.48-1.38zm20.71 16.6l-.64-3.97h3.78c1.18 0 1.18-.54 1.18-2.4h-4.38c-1.38 2.4-4.13 5.76-11.81 6.56l-1.76-4.13c3.97-.1 6.59-.93 8.35-2.43h-4.9v-.35c-1.15.61-1.95.96-4.06 1.76l-1.98-4.22c1.54-.35 3.58-.83 6.24-2.5h-5.76v-3.42h9.44c.1-.16.19-.29.54-.86h-7.33v-8.8h4.48V14.8h-7.13v-3.46h7.13v-1.22h4.74v1.22h6.82v-1.22h4.83v1.22h6.78v3.46h-6.78v1.02h4.19v8.8h-12.74c-.13.26-.16.32-.45.86h15.78v3.42h-5.98c2.11 1.54 3.71 2.27 6.59 2.88l-2.08 4.29c-1.18-.42-2.02-.74-3.84-1.76-.26 2.88-.51 6.27-3.74 6.27h-5.5zm7.2-22.4H221v1.09h15.55v-1.09zm0 2.98H221v1.15h15.55v-1.15zm-2.82 9.73c-1.06-.93-1.38-1.31-1.82-1.98h-6.18c-.64.7-1.12 1.18-2.05 1.98h2.43c.16-.61.22-.9.32-1.47l4.38.19c-.1.64-.16.86-.26 1.28h3.17zm-1.44-15.07V14.8h-6.82v1.02h6.82zm42.02-1.54v4.64h-7.97v6.59c.22 1.09.45 2.4.45 3.65 0 3.23-1.22 6.85-5.28 8.7-2.11.96-5.25 1.5-8.51 1.6l-1.57-4.51c8.77.06 9.54-1.92 9.95-3.07-.93.86-1.7 1.09-3.04 1.09-3.74 0-6.11-3.01-6.11-6.4 0-4.03 3.01-6.46 6.69-6.46 1.09 0 1.7.19 2.4.48l-.03-1.66h-14.33v-4.64h14.24l-.1-2.94h5.25v2.94h7.97zm-12.84 11.68c-.13-.7-.32-2.11-2.24-2.11-1.31 0-2.53.93-2.53 2.69 0 .86.42 2.78 2.5 2.78 1.44 0 2.27-.96 2.27-2.34v-1.02zm38.5-9.98c-.86.58-2.3 1.57-6.72 4.9.86-.16 1.89-.35 2.98-.35 3.68 0 8.96 2.05 8.96 8.7 0 6.18-4.9 10.02-12.03 10.02s-8.8-3.42-8.8-5.76c0-2.94 2.62-5.28 6.21-5.28 3.33 0 6.46 2.02 7.74 5.09 1.89-1.5 1.89-3.55 1.89-3.94 0-3.14-2.62-4.74-6.05-4.74-4.93 0-8.29 2.85-12.99 7.29l-2.88-4.29a217.45 217.45 0 0013.28-10.75c-2.94.19-4.29.26-9.63.38v-4.96c3.52.03 9.66.1 18.05-.22v3.9zm-9.5 16.09c-.8 0-1.73.42-1.73 1.25 0 1.82 2.88 1.95 3.84 1.95.86 0 1.34-.1 1.73-.16-.8-1.89-2.05-3.04-3.84-3.04z"/></g></svg>